<?xml version="1.0" encoding="UTF-8"?>
<svg version="1.1" xmlns="http://www.w3.org/2000/svg" width="397" height="357">
<path d="M0 0 C1.15693359 0.16137451 2.31386719 0.32274902 3.50585938 0.48901367 C13.11999115 1.91166772 22.56560536 3.77685012 31.62207031 7.37890625 C33.59341305 8.16211262 35.58280177 8.86493744 37.5859375 9.5625 C54.94549699 15.79703013 72.97455509 25.34130694 84.5 40.125 C85.2425 40.82625 85.985 41.5275 86.75 42.25 C113.79068942 70.51981167 120.51398832 113.58824214 119.75390625 151.203125 C119.03944676 171.26543484 117.5426759 191.4655158 112.95996094 211.03808594 C112.35129388 213.79970273 111.90302499 216.57650406 111.45654297 219.36816406 C107.24963108 245.62573785 107.24963108 245.62573785 102.5 255.125 C103.16 255.125 103.82 255.125 104.5 255.125 C104.5 258.095 104.5 261.065 104.5 264.125 C105.22703125 264.16455811 105.9540625 264.20411621 106.703125 264.24487305 C114.22398605 264.74927695 121.2195252 266.0211519 128.5 267.9375 C129.54945801 268.20884766 130.59891602 268.48019531 131.68017578 268.75976562 C159.03121026 275.92181539 159.03121026 275.92181539 164.5 284.125 C165.24080297 288.75501858 164.51626221 291.65136774 162.125 295.5625 C150.44907889 311.46960354 128.45043922 320.75357002 110.73681641 328.18603516 C108.75774465 329.01680463 106.7903314 329.8696479 104.82421875 330.73046875 C77.84953715 342.12520967 48.55362045 348.97989541 19.5 352.125 C18.46303482 352.24467133 18.46303482 352.24467133 17.40512085 352.36676025 C4.76852479 353.81952552 -7.71902407 354.52828257 -20.4375 354.5 C-21.33098145 354.49978851 -22.22446289 354.49957703 -23.14501953 354.49935913 C-50.9259703 354.43466528 -78.39729179 351.2526844 -105.5 345.125 C-107.00361084 344.78879639 -107.00361084 344.78879639 -108.53759766 344.44580078 C-150.3276186 334.94837341 -201.34165316 318.6410778 -230.5 285.125 C-232.54962122 281.62356375 -233.07139595 279.20639962 -232.5 275.125 C-229.05103054 270.18040266 -226.24626983 268.11061264 -220.5 265.9375 C-219.30375 265.46957031 -218.1075 265.00164062 -216.875 264.51953125 C-206.35789854 260.9558019 -195.40664963 259.38391942 -184.4375 257.9375 C-183.14650391 257.76025391 -181.85550781 257.58300781 -180.52539062 257.40039062 C-171.07568171 256.125 -171.07568171 256.125 -166.5 256.125 C-166.685625 255.073125 -166.87125 254.02125 -167.0625 252.9375 C-167.5 249.125 -167.5 249.125 -166.96728516 246.73706055 C-166.41925332 243.67363704 -166.80076125 241.55363593 -167.4609375 238.51953125 C-167.68523437 237.45283203 -167.90953125 236.38613281 -168.140625 235.28710938 C-168.38296875 234.18173828 -168.6253125 233.07636719 -168.875 231.9375 C-170.33149075 225.19522825 -171.66842379 218.58751669 -172.24121094 211.70922852 C-172.53836179 208.74192496 -173.00912116 205.82546936 -173.4921875 202.8828125 C-174.58924221 195.94022691 -175.15666329 189.00969539 -175.625 182 C-175.71136719 180.81535156 -175.79773438 179.63070312 -175.88671875 178.41015625 C-176.69169229 166.82109281 -176.51967235 155.35336695 -176.125 143.75 C-176.0940625 142.62078125 -176.063125 141.4915625 -176.03125 140.328125 C-175.79630139 133.48328891 -175.1330761 126.86496941 -173.98266602 120.11230469 C-173.47941452 116.99759284 -173.13563876 113.88801392 -172.8125 110.75 C-171.32885545 100.23496366 -167.82385594 90.17847373 -164.5 80.125 C-164.27940918 79.44985352 -164.05881836 78.77470703 -163.83154297 78.07910156 C-159.03645155 63.67383111 -150.20366464 45.82532742 -138.078125 36.203125 C-135.88626239 34.4363509 -134.40081076 32.87266923 -132.6484375 30.71484375 C-129.54808336 27.00686763 -126.13049977 24.36014459 -122.125 21.6875 C-121.42511963 21.21795898 -120.72523926 20.74841797 -120.00415039 20.26464844 C-84.26780718 -3.22072081 -41.28669308 -5.76959251 0 0 Z " fill="#61D7F7" transform="translate(232.5,2.875)"/>
<path d="M0 0 C1.15693359 0.16137451 2.31386719 0.32274902 3.50585938 0.48901367 C13.11999115 1.91166772 22.56560536 3.77685012 31.62207031 7.37890625 C33.59341305 8.16211262 35.58280177 8.86493744 37.5859375 9.5625 C54.94549699 15.79703013 72.97455509 25.34130694 84.5 40.125 C85.2425 40.82625 85.985 41.5275 86.75 42.25 C113.79068942 70.51981167 120.51398832 113.58824214 119.75390625 151.203125 C119.03944676 171.26543484 117.5426759 191.4655158 112.95996094 211.03808594 C112.35129388 213.79970273 111.90302499 216.57650406 111.45654297 219.36816406 C107.24963108 245.62573785 107.24963108 245.62573785 102.5 255.125 C103.16 255.125 103.82 255.125 104.5 255.125 C104.5 258.095 104.5 261.065 104.5 264.125 C105.22703125 264.16455811 105.9540625 264.20411621 106.703125 264.24487305 C114.22398605 264.74927695 121.2195252 266.0211519 128.5 267.9375 C129.54945801 268.20884766 130.59891602 268.48019531 131.68017578 268.75976562 C159.03121026 275.92181539 159.03121026 275.92181539 164.5 284.125 C165.24080297 288.75501858 164.51626221 291.65136774 162.125 295.5625 C150.44907889 311.46960354 128.45043922 320.75357002 110.73681641 328.18603516 C108.75774465 329.01680463 106.7903314 329.8696479 104.82421875 330.73046875 C77.84953715 342.12520967 48.55362045 348.97989541 19.5 352.125 C18.46303482 352.24467133 18.46303482 352.24467133 17.40512085 352.36676025 C4.76852479 353.81952552 -7.71902407 354.52828257 -20.4375 354.5 C-21.33098145 354.49978851 -22.22446289 354.49957703 -23.14501953 354.49935913 C-50.9259703 354.43466528 -78.39729179 351.2526844 -105.5 345.125 C-107.00361084 344.78879639 -107.00361084 344.78879639 -108.53759766 344.44580078 C-150.3276186 334.94837341 -201.34165316 318.6410778 -230.5 285.125 C-232.54962122 281.62356375 -233.07139595 279.20639962 -232.5 275.125 C-229.05103054 270.18040266 -226.24626983 268.11061264 -220.5 265.9375 C-219.30375 265.46957031 -218.1075 265.00164062 -216.875 264.51953125 C-206.35789854 260.9558019 -195.40664963 259.38391942 -184.4375 257.9375 C-183.14650391 257.76025391 -181.85550781 257.58300781 -180.52539062 257.40039062 C-171.07568171 256.125 -171.07568171 256.125 -166.5 256.125 C-166.685625 255.073125 -166.87125 254.02125 -167.0625 252.9375 C-167.5 249.125 -167.5 249.125 -166.96728516 246.73706055 C-166.41925332 243.67363704 -166.80076125 241.55363593 -167.4609375 238.51953125 C-167.68523437 237.45283203 -167.90953125 236.38613281 -168.140625 235.28710938 C-168.38296875 234.18173828 -168.6253125 233.07636719 -168.875 231.9375 C-170.33149075 225.19522825 -171.66842379 218.58751669 -172.24121094 211.70922852 C-172.53836179 208.74192496 -173.00912116 205.82546936 -173.4921875 202.8828125 C-174.58924221 195.94022691 -175.15666329 189.00969539 -175.625 182 C-175.71136719 180.81535156 -175.79773438 179.63070312 -175.88671875 178.41015625 C-176.69169229 166.82109281 -176.51967235 155.35336695 -176.125 143.75 C-176.0940625 142.62078125 -176.063125 141.4915625 -176.03125 140.328125 C-175.79630139 133.48328891 -175.1330761 126.86496941 -173.98266602 120.11230469 C-173.47941452 116.99759284 -173.13563876 113.88801392 -172.8125 110.75 C-171.32885545 100.23496366 -167.82385594 90.17847373 -164.5 80.125 C-164.27940918 79.44985352 -164.05881836 78.77470703 -163.83154297 78.07910156 C-159.03645155 63.67383111 -150.20366464 45.82532742 -138.078125 36.203125 C-135.88626239 34.4363509 -134.40081076 32.87266923 -132.6484375 30.71484375 C-129.54808336 27.00686763 -126.13049977 24.36014459 -122.125 21.6875 C-121.42511963 21.21795898 -120.72523926 20.74841797 -120.00415039 20.26464844 C-84.26780718 -3.22072081 -41.28669308 -5.76959251 0 0 Z M-78.5 9.125 C-79.24330566 9.30691895 -79.98661133 9.48883789 -80.75244141 9.67626953 C-100.95000478 14.82809844 -118.72891688 25.58276465 -133.5 40.125 C-134.56347656 41.15173828 -134.56347656 41.15173828 -135.6484375 42.19921875 C-152.46337599 59.66616506 -160.16742472 83.09788163 -165.5 106.125 C-165.65993942 106.79568512 -165.81987885 107.46637024 -165.98466492 108.15737915 C-169.68197854 124.07625196 -169.873893 140.35652911 -169.8125 156.625 C-169.81067719 157.63345978 -169.80885437 158.64191956 -169.80697632 159.68093872 C-169.75839207 175.69870745 -168.97747859 191.2783986 -166.5 207.125 C-166.29910562 208.45497272 -166.09894859 209.78505696 -165.89941406 211.11523438 C-163.68846396 226.82413396 -163.68846396 226.82413396 -160.46009827 242.33283997 C-160.14326584 243.58425278 -159.82643341 244.83566559 -159.5 246.125 C-131.19453313 247.59734206 -102.89221862 248.64933916 -74.56005859 249.44390869 C-63.57360347 249.7520614 -52.58757764 250.07503546 -41.6015625 250.3984375 C-40.53226753 250.42981686 -39.46297256 250.46119621 -38.36127472 250.49352646 C-21.40366545 250.99234629 -4.45116482 251.56335271 12.5 252.25 C16.38280697 252.40638759 20.26561702 252.5626981 24.1484375 252.71875 C25.02935059 252.75420929 25.91026367 252.78966858 26.81787109 252.82620239 C50.04212905 253.75088606 73.2555576 254.32818569 96.5 254.125 C100.35975368 238.10375975 103.87839736 222.10687627 106.375 205.8125 C106.47791351 205.14476562 106.58082703 204.47703125 106.68685913 203.7890625 C108.43898673 192.32741212 109.65523616 181.15379083 109.66796875 169.5546875 C109.67129715 168.47478546 109.67462555 167.39488342 109.67805481 166.28225708 C109.68308985 164.00816266 109.6854642 161.73406093 109.68530273 159.45996094 C109.68748065 156.03047104 109.70564999 152.60130782 109.72460938 149.171875 C109.76517757 133.81144562 109.1680315 119.06309088 105.25 104.125 C105.03456543 103.28888184 104.81913086 102.45276367 104.59716797 101.59130859 C98.61704846 79.11135972 88.51773667 60.14017815 72.5 43.125 C71.96117187 42.52171875 71.42234375 41.9184375 70.8671875 41.296875 C61.59705702 31.32799097 49.55691241 24.59071445 37.32080078 18.96386719 C35.72382371 18.22811857 34.13999763 17.46396299 32.55859375 16.6953125 C0.27452715 1.90801599 -44.37576303 0.66519222 -78.5 9.125 Z " fill="#1E508B" transform="translate(232.5,2.875)"/>
<path d="M0 0 C8.58889607 6.81108694 16.79136386 14.50307828 18.90625 25.7421875 C20.08179541 43.89532137 13.30862775 56.24717426 1.58984375 69.73217773 C-3.17169241 75.03071264 -8.4096143 79.45374493 -14.09375 83.7421875 C-15.1593831 84.58101244 -16.22311905 85.42225191 -17.28515625 86.265625 C-23.95673033 91.53291723 -30.80868301 96.35023324 -38.09375 100.7421875 C-39.16689453 101.41121094 -39.16689453 101.41121094 -40.26171875 102.09375 C-41.83241357 103.04588253 -43.45793369 103.90687704 -45.09375 104.7421875 C-45.75375 104.4121875 -46.41375 104.0821875 -47.09375 103.7421875 C-46.87460938 103.15695313 -46.65546875 102.57171875 -46.4296875 101.96875 C-45.29641319 98.90061711 -44.19339665 95.82254325 -43.09375 92.7421875 C-42.85285645 92.07767578 -42.61196289 91.41316406 -42.36376953 90.72851562 C-36.53045955 74.53355178 -29.48640734 53.14583387 -35.34375 35.9921875 C-38.18489355 30.71577806 -40.25720821 27.52446023 -46.09375 25.7421875 C-58.93705818 25.06696429 -68.88764929 28.17708623 -78.90625 36.4921875 C-87.12771403 44.31224189 -93.35971441 54.44810468 -96.46875 65.3671875 C-97.55174025 68.90701848 -98.97610902 70.94812304 -101.53125 73.6171875 C-106.6558592 79.07837061 -109.21382387 85.81872118 -109.53125 93.3046875 C-109.14138179 100.55623618 -107.40684875 106.59888882 -102.37109375 111.91015625 C-99.24773184 116.38984045 -96.58602795 123.68589988 -97.4921875 129.140625 C-97.69070312 129.66914063 -97.88921875 130.19765625 -98.09375 130.7421875 C-99.07472656 130.97292969 -100.05570312 131.20367187 -101.06640625 131.44140625 C-107.96635774 133.09801584 -114.70560328 134.87940487 -121.40625 137.2421875 C-130.1293888 140.23903751 -139.0359156 142.0626898 -148.09375 143.7421875 C-148.99375732 143.92241455 -149.89376465 144.1026416 -150.82104492 144.28833008 C-158.91687444 145.80600209 -166.80714406 146.07552913 -175.03125 146.0546875 C-176.29904297 146.07080078 -177.56683594 146.08691406 -178.87304688 146.10351562 C-190.67663975 146.10956565 -202.29329785 145.34707404 -211.09375 136.7421875 C-221.52608047 125.21171698 -218.80926649 107.26307795 -218.09375 92.7421875 C-217.36960675 84.95205455 -215.89592613 77.34857503 -214.09375 69.7421875 C-213.89539551 68.89785156 -213.69704102 68.05351563 -213.49267578 67.18359375 C-205.54066003 34.74291214 -186.33306935 2.86376091 -157.5690918 -15.1171875 C-110.54835738 -43.22650972 -43.03028334 -31.40341386 0 0 Z " fill="#9FE7F8" transform="translate(292.09375,50.2578125)"/>
<path d="M0 0 C0.33 0 0.66 0 1 0 C1.02705729 1.77074917 1.04642195 3.54161711 1.0625 5.3125 C1.07410156 6.29863281 1.08570313 7.28476562 1.09765625 8.30078125 C1 11 1 11 0 14 C3.465 13.505 3.465 13.505 7 13 C6.505 12.505 6.505 12.505 6 12 C5.85884839 9.32941149 5.95752893 6.67567762 6 4 C22.24747734 3.88246442 38.42907468 4.16142418 54.66015625 4.875 C56.79917005 4.96513785 58.93820356 5.05480895 61.07725525 5.14404297 C66.61241683 5.37616786 72.14729389 5.61447907 77.68212891 5.85424805 C83.36800059 6.0994066 89.05412807 6.33848124 94.74023438 6.578125 C105.82707594 7.04625492 116.91362548 7.52094516 128 8 C129.62651522 11.25303044 129.11453156 14.39225602 129 18 C128 19 128 19 125.31176758 19.0534668 C123.4964856 19.00186401 123.4964856 19.00186401 121.64453125 18.94921875 C120.9716658 18.9310762 120.29880035 18.91293365 119.60554504 18.89424133 C117.34099108 18.83106018 115.07678579 18.75962261 112.8125 18.6875 C111.21858814 18.63994387 109.62467536 18.59241848 108.03076172 18.54492188 C94.55828318 18.130285 81.09124467 17.57990306 67.625 17 C66.64826324 16.95829681 65.67152649 16.91659363 64.66519165 16.87362671 C47.15823407 16.12001534 47.15823407 16.12001534 38.5859375 15.4375 C33.74128358 15.06104488 28.9473777 14.95391244 24.08837891 14.97265625 C23.05980522 14.97561707 23.05980522 14.97561707 22.01045227 14.9786377 C20.34029411 14.98373269 18.6701447 14.99157683 17 15 C73.20067733 17.97776912 73.20067733 17.97776912 129.4375 20.125 C131.31440018 20.18327972 131.31440018 20.18327972 133.22921753 20.24273682 C151.20349388 20.78698644 169.1768315 21.08392167 187.15777397 21.30616379 C194.32838369 21.39758155 201.49881389 21.5026163 208.66925144 21.60656929 C214.5923586 21.69042982 220.51515326 21.76246529 226.43869019 21.80767822 C274.67309777 22.18144868 274.67309777 22.18144868 297 29 C298.70458296 29.48261802 300.4101935 29.96162542 302.11694336 30.43652344 C308.31155295 32.17210758 313.92711747 33.87108805 319 38 C319 39.32 319 40.64 319 42 C310.83464162 44.64699993 302.74726413 45.75675209 294.22460938 46.453125 C292.16166084 46.62199893 290.10048369 46.80568266 288.0390625 46.9921875 C267.95732843 48.76093786 247.89705103 49.16173923 227.74609375 49.16796875 C225.23267093 49.17119918 222.71924828 49.17456442 220.20582581 49.17805481 C214.94719002 49.18400658 209.68857055 49.18589938 204.42993164 49.18530273 C199.15711834 49.18477623 193.88436926 49.19202556 188.61157227 49.20581055 C115.180122 49.3947396 41.74685255 46.32603198 -31.1875 37.4375 C-32.02602509 37.33753723 -32.86455017 37.23757446 -33.72848511 37.13458252 C-42.36296929 36.09522762 -50.78108831 35.00353348 -59 32 C-59 31.01 -59 30.02 -59 29 C-47.64976368 22.61549207 -34.63337842 19.72766125 -22 17 C-28.6 17 -35.2 17 -42 17 C-38.44848879 14.63232586 -35.31746428 14.2650298 -31.19140625 13.7109375 C-30.42827621 13.60278717 -29.66514618 13.49463684 -28.87889099 13.38320923 C-27.26636343 13.15615767 -25.6533112 12.93280596 -24.03979492 12.71289062 C-21.57415551 12.37658975 -19.11028742 12.02916311 -16.64648438 11.6796875 C-15.07821645 11.4602828 -13.50985974 11.24151169 -11.94140625 11.0234375 C-11.20588028 10.92034271 -10.47035431 10.81724792 -9.71253967 10.71102905 C-6.42576975 10.26541975 -3.32583571 10 0 10 C-0.185625 8.906875 -0.37125 7.81375 -0.5625 6.6875 C-1 3 -1 3 0 0 Z " fill="#37A6D8" transform="translate(66,249)"/>
<path d="M0 0 C4.81176717 -0.22782989 7.93903788 0.48670234 11.9375 3.15234375 C17.4633566 8.67820035 19.15326179 14.18704391 19.26757812 21.9453125 C19.02491496 50.68741575 8.86344039 77.71713615 -6.59375 101.67578125 C-8.23253329 103.95915911 -8.23253329 103.95915911 -8.0625 106.15234375 C-6.83525474 106.84043515 -5.57915475 107.4773191 -4.3125 108.08984375 C3.28345272 112.78892171 3.87039533 121.68907248 5.78759766 129.8215332 C6.66551129 133.64550338 7.49732433 137.47864505 8.32177734 141.31445312 C8.91107182 144.03053518 9.52423644 146.74007224 10.14453125 149.44921875 C14.87548188 170.3970878 14.87548188 170.3970878 8.9375 180.15234375 C-12.73057203 179.52658738 -34.39712703 178.86565425 -56.0625 178.15234375 C-54.16000412 171.52742377 -51.45005852 165.96086789 -47.875 160.08984375 C-36.94601106 141.63036641 -36.94601106 141.63036641 -31.0625 121.15234375 C-31.82304687 120.90097656 -32.58359375 120.64960938 -33.3671875 120.390625 C-36.31149121 119.03795214 -37.35431096 117.95940076 -39.1875 115.33984375 C-39.66445312 114.67339844 -40.14140625 114.00695312 -40.6328125 113.3203125 C-41.10460937 112.60488281 -41.57640625 111.88945312 -42.0625 111.15234375 C-42.5678125 110.415 -43.073125 109.67765625 -43.59375 108.91796875 C-45.84918626 104.67103026 -46.8391359 100.12726241 -47.9921875 95.47851562 C-49.4269984 90.16877132 -51.42796253 87.25641477 -55.0625 83.15234375 C-58.80408754 75.12006197 -59.20933308 67.09059997 -56.5625 58.71484375 C-54.54234498 53.52737426 -51.54232441 49.87834968 -47.94921875 45.6875 C-45.41207282 42.27837431 -44.27370715 38.8187593 -42.97265625 34.80859375 C-38.23128784 20.9711237 -27.70003939 10.10385803 -15 3.27734375 C-9.84383652 0.84669481 -5.65111492 0.4174119 0 0 Z " fill="#99DC80" transform="translate(240.0625,74.84765625)"/>
<path d="M0 0 C1.15693359 0.16137451 2.31386719 0.32274902 3.50585938 0.48901367 C13.11999115 1.91166772 22.56560536 3.77685012 31.62207031 7.37890625 C33.59341305 8.16211262 35.58280177 8.86493744 37.5859375 9.5625 C54.94549699 15.79703013 72.97455509 25.34130694 84.5 40.125 C85.2425 40.82625 85.985 41.5275 86.75 42.25 C113.79068942 70.51981167 120.51398832 113.58824214 119.75390625 151.203125 C119.03944676 171.26543484 117.5426759 191.4655158 112.95996094 211.03808594 C112.35129388 213.79970273 111.90302499 216.57650406 111.45654297 219.36816406 C107.24963108 245.62573785 107.24963108 245.62573785 102.5 255.125 C96.23 255.125 89.96 255.125 83.5 255.125 C83.5 254.795 83.5 254.465 83.5 254.125 C87.79 254.125 92.08 254.125 96.5 254.125 C96.60699219 252.90683594 96.71398437 251.68867188 96.82421875 250.43359375 C97.51286698 244.24782011 98.94106261 238.25118533 100.3125 232.1875 C102.44822713 222.49671045 104.32258311 212.8115263 105.8125 203 C105.97145752 201.95336182 106.13041504 200.90672363 106.29418945 199.82836914 C107.78115492 189.70408803 108.65673071 179.79228533 108.66796875 169.5546875 C108.67129715 168.47478546 108.67462555 167.39488342 108.67805481 166.28225708 C108.68308985 164.00816266 108.6854642 161.73406093 108.68530273 159.45996094 C108.68748065 156.03047104 108.70564999 152.60130782 108.72460938 149.171875 C108.76517757 133.81144562 108.1680315 119.06309088 104.25 104.125 C104.03456543 103.28888184 103.81913086 102.45276367 103.59716797 101.59130859 C95.40666031 70.80225943 78.30311401 43.11128607 50.484375 26.35546875 C13.15149232 4.93170029 -36.86162924 -0.1976517 -78.5 10.125 C-79.24330566 10.30691895 -79.98661133 10.48883789 -80.75244141 10.67626953 C-108.47039915 17.74633899 -132.20918406 34.91971471 -147.125 59.3125 C-155.85265207 74.16152594 -160.62290788 89.38294678 -164.5 106.125 C-164.65993942 106.79568512 -164.81987885 107.46637024 -164.98466492 108.15737915 C-168.68197854 124.07625196 -168.873893 140.35652911 -168.8125 156.625 C-168.81067719 157.63345978 -168.80885437 158.64191956 -168.80697632 159.68093872 C-168.75840439 175.6946463 -167.99741013 191.28415205 -165.5 207.125 C-165.29419615 208.45504141 -165.08864278 209.78512159 -164.88330078 211.11523438 C-163.82675064 217.92146557 -162.72842595 224.71939625 -161.5859375 231.51171875 C-160.77163538 236.37502561 -160.05465118 241.22558122 -159.5 246.125 C-161.48 246.125 -163.46 246.125 -165.5 246.125 C-169.41563518 232.55333243 -171.37176954 219.11414586 -172.80322266 205.0769043 C-173.13190775 201.93986456 -173.49901867 199.127944 -174.5 196.125 C-174.7178744 194.11847881 -174.88972485 192.10681886 -175.03515625 190.09375 C-175.12216797 188.88976562 -175.20917969 187.68578125 -175.29882812 186.4453125 C-175.38583984 185.18460938 -175.47285156 183.92390625 -175.5625 182.625 C-175.65337891 181.39523438 -175.74425781 180.16546875 -175.83789062 178.8984375 C-176.66806308 167.13870132 -176.52551278 155.52507562 -176.125 143.75 C-176.0940625 142.62078125 -176.063125 141.4915625 -176.03125 140.328125 C-175.79630139 133.48328891 -175.1330761 126.86496941 -173.98266602 120.11230469 C-173.47941452 116.99759284 -173.13563876 113.88801392 -172.8125 110.75 C-171.32885545 100.23496366 -167.82385594 90.17847373 -164.5 80.125 C-164.27940918 79.44985352 -164.05881836 78.77470703 -163.83154297 78.07910156 C-159.03645155 63.67383111 -150.20366464 45.82532742 -138.078125 36.203125 C-135.88626239 34.4363509 -134.40081076 32.87266923 -132.6484375 30.71484375 C-129.54808336 27.00686763 -126.13049977 24.36014459 -122.125 21.6875 C-121.42511963 21.21795898 -120.72523926 20.74841797 -120.00415039 20.26464844 C-84.26780718 -3.22072081 -41.28669308 -5.76959251 0 0 Z " fill="#2898CF" transform="translate(232.5,2.875)"/>
<path d="M0 0 C0.74233887 -0.01780518 1.48467773 -0.03561035 2.24951172 -0.05395508 C6.51046692 -0.04765046 9.10996286 0.25111791 12.1875 3.3125 C11.06387413 20.91597204 -7.73927846 34.90447081 -20.08007812 45.81445312 C-25.15565899 50.20337142 -30.44847867 54.28502428 -35.8125 58.3125 C-36.4823291 58.82280762 -37.1521582 59.33311523 -37.84228516 59.85888672 C-76.67810982 89.35115809 -76.67810982 89.35115809 -95.8125 88.3125 C-97.75 87.25 -97.75 87.25 -98.8125 85.3125 C-100.78157918 72.37283681 -92.06989757 58.55268752 -84.76171875 48.48828125 C-82.83348764 46.04335908 -80.84485246 43.67118547 -78.8125 41.3125 C-77.98492187 40.28576172 -77.98492187 40.28576172 -77.140625 39.23828125 C-72.35806469 33.44227364 -66.73886824 28.89857242 -60.8125 24.3125 C-59.96945313 23.6421875 -59.12640625 22.971875 -58.2578125 22.28125 C-46.06453243 12.94171633 -32.53892552 6.49494543 -17.8125 2.3125 C-17.04164063 2.06757813 -16.27078125 1.82265625 -15.4765625 1.5703125 C-10.39115435 0.14795696 -5.2483211 0.08202222 0 0 Z " fill="#CDF2FC" transform="translate(188.8125,24.6875)"/>
<path d="M0 0 C0.66 0.33 1.32 0.66 2 1 C0.56825986 3.75303561 -0.87139922 6.50185432 -2.3125 9.25 C-2.71662109 10.02730469 -3.12074219 10.80460938 -3.53710938 11.60546875 C-5.48298575 15.30737991 -7.45452083 18.67193015 -10 22 C-10 22.66 -10 23.32 -10 24 C-8.77275474 24.6880914 -7.51665475 25.32497535 -6.25 25.9375 C1.34595272 30.63657796 1.93289533 39.53672873 3.85009766 47.66918945 C4.72801129 51.49315963 5.55982433 55.3263013 6.38427734 59.16210938 C6.97357182 61.87819143 7.58673644 64.58772849 8.20703125 67.296875 C12.93798188 88.24474405 12.93798188 88.24474405 7 98 C-14.66807203 97.37424363 -36.33462703 96.7133105 -58 96 C-56.09750412 89.37508002 -53.38755852 83.80852414 -49.8125 77.9375 C-38.88351106 59.47802266 -38.88351106 59.47802266 -33 39 C-34.14082031 38.62294922 -34.14082031 38.62294922 -35.3046875 38.23828125 C-38.24899121 36.88560839 -39.29181096 35.80705701 -41.125 33.1875 C-41.62386719 32.4759375 -42.12273437 31.764375 -42.63671875 31.03125 C-43.08660156 30.3609375 -43.53648437 29.690625 -44 29 C-44.639375 28.071875 -45.27875 27.14375 -45.9375 26.1875 C-47 24 -47 24 -46 21 C-43.99389648 19.89672852 -43.99389648 19.89672852 -41.37109375 18.87890625 C-40.41783203 18.50056641 -39.46457031 18.12222656 -38.48242188 17.73242188 C-37.47759766 17.34634766 -36.47277344 16.96027344 -35.4375 16.5625 C-28.7970274 13.96671869 -22.31260303 11.32008142 -16 8 C-13.21138514 6.55650863 -10.41873145 5.12105638 -7.625 3.6875 C-6.91472656 3.31560547 -6.20445312 2.94371094 -5.47265625 2.56054688 C-3.67812687 1.64625629 -1.84155945 0.81542735 0 0 Z " fill="#49B429" transform="translate(242,157)"/>
<path d="M0 0 C0.33 0 0.66 0 1 0 C1.02705729 1.77074917 1.04642195 3.54161711 1.0625 5.3125 C1.07410156 6.29863281 1.08570313 7.28476562 1.09765625 8.30078125 C1 11 1 11 0 14 C3.465 13.505 3.465 13.505 7 13 C6.505 12.505 6.505 12.505 6 12 C5.85884839 9.32941149 5.95752893 6.67567762 6 4 C22.24747734 3.88246442 38.42907468 4.16142418 54.66015625 4.875 C56.79917005 4.96513785 58.93820356 5.05480895 61.07725525 5.14404297 C66.61241683 5.37616786 72.14729389 5.61447907 77.68212891 5.85424805 C83.36800059 6.0994066 89.05412807 6.33848124 94.74023438 6.578125 C105.82707594 7.04625492 116.91362548 7.52094516 128 8 C129.62651522 11.25303044 129.11453156 14.39225602 129 18 C128 19 128 19 125.31176758 19.0534668 C123.4964856 19.00186401 123.4964856 19.00186401 121.64453125 18.94921875 C120.9716658 18.9310762 120.29880035 18.91293365 119.60554504 18.89424133 C117.34099108 18.83106018 115.07678579 18.75962261 112.8125 18.6875 C111.21858814 18.63994387 109.62467536 18.59241848 108.03076172 18.54492188 C94.55828318 18.130285 81.09124467 17.57990306 67.625 17 C66.64826324 16.95829681 65.67152649 16.91659363 64.66519165 16.87362671 C47.15823407 16.12001534 47.15823407 16.12001534 38.5859375 15.4375 C31.40497417 14.96047278 24.19679021 15 17 15 C43.73 16.32 70.46 17.64 98 19 C98 19.33 98 19.66 98 20 C96.90123535 19.95810547 95.8024707 19.91621094 94.67041016 19.87304688 C90.55213579 19.72707782 86.43408424 19.63599312 82.31396484 19.56054688 C80.53883282 19.52057659 78.76395978 19.46617741 76.98974609 19.39648438 C64.76110388 18.67780713 64.76110388 18.67780713 54.0234375 23.7734375 C51.87877241 25.823994 51.87877241 25.823994 50 28 C48.93688599 29.09054687 48.93688599 29.09054687 47.85229492 30.203125 C44.35358627 33.83326003 42.13003054 36.97764204 41 42 C42.65 42.33 44.3 42.66 46 43 C46 43.33 46 43.66 46 44 C39.48436938 44.08627173 33.07530335 43.87751464 26.5859375 43.30078125 C25.2706028 43.18804367 25.2706028 43.18804367 23.92869568 43.07302856 C21.07688519 42.82564373 18.2259019 42.57013441 15.375 42.3125 C14.39566498 42.22485382 13.41632996 42.13720764 12.40731812 42.04690552 C-2.15166937 40.73484753 -16.67793294 39.21431804 -31.1875 37.4375 C-32.02267151 37.33780914 -32.85784302 37.23811829 -33.71832275 37.13540649 C-42.35633998 36.09578198 -50.77768865 35.00477586 -59 32 C-59 31.01 -59 30.02 -59 29 C-47.64976368 22.61549207 -34.63337842 19.72766125 -22 17 C-28.6 17 -35.2 17 -42 17 C-38.44848879 14.63232586 -35.31746428 14.2650298 -31.19140625 13.7109375 C-30.42827621 13.60278717 -29.66514618 13.49463684 -28.87889099 13.38320923 C-27.26636343 13.15615767 -25.6533112 12.93280596 -24.03979492 12.71289062 C-21.57415551 12.37658975 -19.11028742 12.02916311 -16.64648438 11.6796875 C-15.07821645 11.4602828 -13.50985974 11.24151169 -11.94140625 11.0234375 C-11.20588028 10.92034271 -10.47035431 10.81724792 -9.71253967 10.71102905 C-6.42576975 10.26541975 -3.32583571 10 0 10 C-0.185625 8.906875 -0.37125 7.81375 -0.5625 6.6875 C-1 3 -1 3 0 0 Z " fill="#37A6D8" transform="translate(66,249)"/>
<path d="M0 0 C0.66 0.33 1.32 0.66 2 1 C0.56825986 3.75303561 -0.87139922 6.50185432 -2.3125 9.25 C-2.71662109 10.02730469 -3.12074219 10.80460938 -3.53710938 11.60546875 C-5.48298575 15.30737991 -7.45452083 18.67193015 -10 22 C-10 22.66 -10 23.32 -10 24 C-8.26196586 25.10829447 -8.26196586 25.10829447 -6.125 26.1875 C-2.96634913 28.05143885 -1.47138855 29.23141087 -0.5 32.8125 C-0.335 33.864375 -0.17 34.91625 0 36 C-0.66 36 -1.32 36 -2 36 C-2.061875 35.05125 -2.12375 34.1025 -2.1875 33.125 C-2.455625 32.09375 -2.72375 31.0625 -3 30 C-5.23690643 28.55474573 -5.23690643 28.55474573 -8 28 C-9.18529297 27.59974609 -9.18529297 27.59974609 -10.39453125 27.19140625 C-13.1325718 26.69602579 -13.1325718 26.69602579 -15.24609375 28.765625 C-15.96925781 29.58546875 -16.69242188 30.4053125 -17.4375 31.25 C-20.7270003 34.76353604 -23.3589752 37.38103786 -28 39 C-29.32 39 -30.64 39 -32 39 C-32 40.32 -32 41.64 -32 43 C-26.72 43 -21.44 43 -16 43 C-16.51025161 48.58018216 -17.54193749 52.95226024 -19.80078125 58.140625 C-20.07842819 58.78892273 -20.35607513 59.43722046 -20.64213562 60.10516357 C-21.52268707 62.1577332 -22.41654581 64.20411271 -23.3125 66.25 C-24.48167725 68.93997708 -25.64262728 71.63338706 -26.80078125 74.328125 C-27.0847879 74.97881958 -27.36879456 75.62951416 -27.66140747 76.29992676 C-29.43256714 80.4243941 -30.76744643 84.52946047 -31.98046875 88.859375 C-33.56518505 93.76263468 -33.56518505 93.76263468 -37.19140625 95.7421875 C-41.46164797 96.03125002 -45.65886449 96.22032521 -49.9375 96.125 C-50.71673828 96.11597656 -51.49597656 96.10695313 -52.29882812 96.09765625 C-54.19935447 96.07433691 -56.09972008 96.03847586 -58 96 C-56.09750412 89.37508002 -53.38755852 83.80852414 -49.8125 77.9375 C-38.88351106 59.47802266 -38.88351106 59.47802266 -33 39 C-34.14082031 38.62294922 -34.14082031 38.62294922 -35.3046875 38.23828125 C-38.24899121 36.88560839 -39.29181096 35.80705701 -41.125 33.1875 C-41.62386719 32.4759375 -42.12273437 31.764375 -42.63671875 31.03125 C-43.08660156 30.3609375 -43.53648437 29.690625 -44 29 C-44.639375 28.071875 -45.27875 27.14375 -45.9375 26.1875 C-47 24 -47 24 -46 21 C-43.99389648 19.89672852 -43.99389648 19.89672852 -41.37109375 18.87890625 C-40.41783203 18.50056641 -39.46457031 18.12222656 -38.48242188 17.73242188 C-37.47759766 17.34634766 -36.47277344 16.96027344 -35.4375 16.5625 C-28.7970274 13.96671869 -22.31260303 11.32008142 -16 8 C-13.21138514 6.55650863 -10.41873145 5.12105638 -7.625 3.6875 C-6.91472656 3.31560547 -6.20445312 2.94371094 -5.47265625 2.56054688 C-3.67812687 1.64625629 -1.84155945 0.81542735 0 0 Z " fill="#55C92E" transform="translate(242,157)"/>
<path d="M0 0 C0.33 0 0.66 0 1 0 C1.64441515 51.14343014 1.64441515 51.14343014 -2 74 C-2.14985352 74.94955566 -2.29970703 75.89911133 -2.45410156 76.87744141 C-4.82233906 91.28547655 -7.64636567 107.1232553 -19.375 117 C-22.96908101 118.36917372 -26.24333985 118.68969932 -30 118 C-32.65683189 116.50251293 -34.84652751 115.15347249 -37 113 C-37.5749368 105.70548933 -36.17454096 100.94652946 -33 94.4375 C-32.59281738 93.56762451 -32.18563477 92.69774902 -31.76611328 91.80151367 C-28.92262134 85.77081704 -25.92066137 79.82019189 -22.88964844 73.88208008 C-19.47930645 67.12540401 -16.62273964 60.15473759 -13.84545898 53.11816406 C-13.24944024 51.62493316 -12.63810456 50.13777131 -12.01586914 48.65527344 C-9.47808807 42.5414459 -7.57506882 36.4104293 -5.9375 30 C-5.68145996 29.0112085 -5.42541992 28.02241699 -5.16162109 27.00366211 C-2.90850988 18.0779857 -1.2964034 9.10893968 0 0 Z " fill="#9DE7FA" transform="translate(334,133)"/>
<path d="M0 0 C0.33 0 0.66 0 1 0 C1.02705729 1.77074917 1.04642195 3.54161711 1.0625 5.3125 C1.07410156 6.29863281 1.08570313 7.28476562 1.09765625 8.30078125 C1 11 1 11 0 14 C3.465 13.505 3.465 13.505 7 13 C6.505 12.505 6.505 12.505 6 12 C5.85884839 9.32941149 5.95752893 6.67567762 6 4 C22.24747734 3.88246442 38.42907468 4.16142418 54.66015625 4.875 C56.79917005 4.96513785 58.93820356 5.05480895 61.07725525 5.14404297 C66.61241683 5.37616786 72.14729389 5.61447907 77.68212891 5.85424805 C83.36800059 6.0994066 89.05412807 6.33848124 94.74023438 6.578125 C105.82707594 7.04625492 116.91362548 7.52094516 128 8 C129.62651522 11.25303044 129.11453156 14.39225602 129 18 C128 19 128 19 125.31176758 19.0534668 C123.4964856 19.00186401 123.4964856 19.00186401 121.64453125 18.94921875 C120.9716658 18.9310762 120.29880035 18.91293365 119.60554504 18.89424133 C117.34099108 18.83106018 115.07678579 18.75962261 112.8125 18.6875 C111.21858814 18.63994387 109.62467536 18.59241848 108.03076172 18.54492188 C94.55828318 18.130285 81.09124467 17.57990306 67.625 17 C66.64826324 16.95829681 65.67152649 16.91659363 64.66519165 16.87362671 C47.1180069 16.11828371 47.1180069 16.11828371 38.8359375 15.4375 C20.70956188 14.09766084 2.44290538 15.29755434 -15.6875 16 C-18.2506388 16.09667937 -20.8137898 16.19303574 -23.37695312 16.2890625 C-29.58478077 16.52232524 -35.7924469 16.75954738 -42 17 C-38.44848879 14.63232586 -35.31746428 14.2650298 -31.19140625 13.7109375 C-30.42827621 13.60278717 -29.66514618 13.49463684 -28.87889099 13.38320923 C-27.26636343 13.15615767 -25.6533112 12.93280596 -24.03979492 12.71289062 C-21.57415551 12.37658975 -19.11028742 12.02916311 -16.64648438 11.6796875 C-15.07821645 11.4602828 -13.50985974 11.24151169 -11.94140625 11.0234375 C-11.20588028 10.92034271 -10.47035431 10.81724792 -9.71253967 10.71102905 C-6.42576975 10.26541975 -3.32583571 10 0 10 C-0.185625 8.906875 -0.37125 7.81375 -0.5625 6.6875 C-1 3 -1 3 0 0 Z " fill="#2F74AB" transform="translate(66,249)"/>
<path d="M0 0 C2.44129076 1.93503231 2.98847779 2.96543336 4 6 C4.60366977 15.3684904 4.14059454 24.09213186 1 33 C0.59394531 34.19109375 0.18789062 35.3821875 -0.23046875 36.609375 C-2.76379119 43.10496406 -5.56752052 47.34622968 -11.85058594 50.46166992 C-14.86365006 51.78032608 -17.88780028 52.93456226 -21 54 C-22.11238779 52.79923071 -23.21449912 51.58893886 -24.3125 50.375 C-24.92738281 49.70210937 -25.54226562 49.02921875 -26.17578125 48.3359375 C-31.57535551 41.42170751 -32.00424985 34.49019162 -31.30175781 26.01123047 C-30.03985795 17.60060663 -24.6310431 10.09871617 -18 5 C-12.4868981 1.03461295 -6.90532173 -1.66393295 0 0 Z " fill="#959BA4" transform="translate(234,118)"/>
<path d="M0 0 C1.23564697 0.02594238 2.47129395 0.05188477 3.74438477 0.07861328 C5.02627686 0.12228027 6.30816895 0.16594727 7.62890625 0.2109375 C8.87019287 0.24558105 10.11147949 0.28022461 11.39038086 0.31591797 C15.09582257 0.42891685 18.79959 0.56590078 22.50390625 0.7109375 C24.41236328 0.78248047 24.41236328 0.78248047 26.359375 0.85546875 C29.44931492 0.97163191 32.53914431 1.0901483 35.62890625 1.2109375 C35.94575471 10.01228367 36.16862342 17.95771095 32.62890625 26.2109375 C31.62890625 27.2109375 31.62890625 27.2109375 27.65087891 27.2644043 C25.86480336 27.2355829 24.07882491 27.20033504 22.29296875 27.16015625 C21.34384613 27.1412886 20.39472351 27.12242096 19.4168396 27.10298157 C17.39746484 27.0609815 15.37814572 27.01623295 13.35888672 26.96899414 C10.3018685 26.89952738 7.24483004 26.84473551 4.1875 26.79101562 C2.22263636 26.7483012 0.2577916 26.70470765 -1.70703125 26.66015625 C-2.60956635 26.64546799 -3.51210144 26.63077972 -4.44198608 26.61564636 C-19.34690211 26.22303332 -19.34690211 26.22303332 -25.37109375 23.2109375 C-24.68058386 15.77716692 -20.48888713 12.26505694 -15.37109375 7.2109375 C-14.67628906 6.48519531 -13.98148438 5.75945312 -13.265625 5.01171875 C-8.95819504 1.02754807 -5.88379259 -0.15298117 0 0 Z " fill="#70C1E5" transform="translate(132.37109375,267.7890625)"/>
<path d="M0 0 C7.65073956 -0.24734832 15.08154233 0.6165293 22.66259766 1.53814697 C41.68242847 3.83193694 60.72993083 5.26026323 79.84217834 6.51828003 C84.60605702 6.83304276 89.36602943 7.17518601 94.125 7.55859375 C128.15283862 10.28030488 162.35746611 11.10733903 196.47998047 11.65844727 C197.39942444 11.6746814 198.31886841 11.69091553 199.26617432 11.7076416 C200.96301207 11.73728923 202.65991576 11.76348496 204.35687256 11.78527832 C209.30807198 11.87361536 214.09554467 12.30748728 219 13 C219 13.66 219 14.32 219 15 C201.03633874 20.98788709 176.23256059 18.33432503 157.61132431 18.25794983 C155.52104445 18.24983914 153.43077554 18.24491111 151.34048462 18.24060059 C104.51134432 18.12967743 57.8132271 15.58898372 12.0625 4.875 C10.97050293 4.62121582 9.87850586 4.36743164 8.75341797 4.10595703 C7.7532666 3.86216309 6.75311523 3.61836914 5.72265625 3.3671875 C4.83328369 3.15175293 3.94391113 2.93631836 3.02758789 2.71435547 C1 2 1 2 0 0 Z " fill="#2260A0" transform="translate(32,289)"/>
<path d="M0 0 C5.24695799 -0.07466663 10.49360043 -0.12884421 15.7409668 -0.16479492 C17.52259719 -0.17979643 19.30419119 -0.20020433 21.08569336 -0.22631836 C23.66008535 -0.26308509 26.2339853 -0.27981285 28.80859375 -0.29296875 C29.59334579 -0.30845261 30.37809784 -0.32393646 31.18663025 -0.33988953 C40.89925706 -0.34278492 49.06994676 3.76081329 57.6875 7.875 C58.59822266 8.29652344 59.50894531 8.71804688 60.44726562 9.15234375 C65.57854101 11.58942008 69.92405784 14.01193056 74 18 C74 18.66 74 19.32 74 20 C64.02015513 23.32661496 52.14776339 22.31574307 41.72021484 22.4050293 C39.81964064 22.42671939 37.91916916 22.46095046 36.01904297 22.50756836 C16.82761361 22.97190379 16.82761361 22.97190379 10.55078125 17.5793457 C10.03902344 17.05816162 9.52726562 16.53697754 9 16 C8.15566406 15.27554687 7.31132812 14.55109375 6.44140625 13.8046875 C5.82136719 13.16789062 5.20132812 12.53109375 4.5625 11.875 C3.92441406 11.23304688 3.28632813 10.59109375 2.62890625 9.9296875 C0.97874097 7.97481545 -0.1416416 6.41090829 -1 4 C-0.71211415 2.65612105 -0.38348967 1.31978201 0 0 Z " fill="#70C1E5" transform="translate(271,274)"/>
<path d="M0 0 C0.74489685 -0.00133942 1.4897937 -0.00267883 2.25726318 -0.00405884 C12.2789272 -0.00017104 22.16209788 0.36877423 32.125 1.5625 C33.61386719 1.73894043 33.61386719 1.73894043 35.1328125 1.91894531 C40.77617614 2.68511031 45.89122033 3.67201303 51 6.25 C52 8.9375 52 8.9375 52 11.25 C50.48353179 11.90601744 48.96153825 12.5492664 47.4375 13.1875 C46.59058594 13.54714844 45.74367188 13.90679687 44.87109375 14.27734375 C38.90569319 16.29827537 32.79975651 16.417561 26.56640625 16.453125 C25.77080795 16.45882507 24.97520966 16.46452515 24.15550232 16.47039795 C22.47550769 16.47980066 20.795495 16.486363 19.11547852 16.49023438 C16.60072639 16.49985378 14.08682355 16.53088587 11.57226562 16.5625 C-1.66158996 16.64926683 -16.32864893 16.28127735 -28 9.25 C-28.66 8.59 -29.32 7.93 -30 7.25 C-29.875 5.25 -29.875 5.25 -29 3.25 C-20.87244527 -1.60298735 -9.18683522 0.00974281 0 0 Z " fill="#FDF160" transform="translate(182,323.75)"/>
<path d="M0 0 C2.66192454 2.30284201 3.58618228 4.15763428 4.5 7.53515625 C4.7475 8.42783203 4.995 9.32050781 5.25 10.24023438 C5.4975 11.17158203 5.745 12.10292969 6 13.0625 C6.49933695 14.88690036 6.99933525 16.71111983 7.5 18.53515625 C7.86351562 19.89084717 7.86351562 19.89084717 8.234375 21.27392578 C9.22214988 24.79098391 10.36826637 28.25127159 11.546875 31.70874023 C12.09241613 34.46730895 11.80742413 36.31802814 11 39 C9.00390625 40.984375 9.00390625 40.984375 6.5625 42.75 C5.75941406 43.34296875 4.95632812 43.9359375 4.12890625 44.546875 C0.25795226 47.18906745 -2.30219513 47.16343338 -7 47.1875 C-8.8871875 47.20876953 -8.8871875 47.20876953 -10.8125 47.23046875 C-14 47 -14 47 -16 45 C-17.23029331 37.56101719 -15.1274687 31.62986785 -12 25 C-11.45601562 23.80761719 -10.91203125 22.61523438 -10.3515625 21.38671875 C-7.04935932 14.18423251 -3.60327443 7.05710431 0 0 Z " fill="#61D7EF" transform="translate(235,207)"/>
<path d="M0 0 C0.33 0 0.66 0 1 0 C1.02705729 1.77074917 1.04642195 3.54161711 1.0625 5.3125 C1.07410156 6.29863281 1.08570313 7.28476562 1.09765625 8.30078125 C1 11 1 11 0 14 C3.465 13.505 3.465 13.505 7 13 C6.505 12.505 6.505 12.505 6 12 C5.85884839 9.32941149 5.95752893 6.67567762 6 4 C41.19170984 3.73056995 41.19170984 3.73056995 48 6 C48 6.66 48 7.32 48 8 C48.763125 8.12375 49.52625 8.2475 50.3125 8.375 C53 9 53 9 56 11 C56 11.99 56 12.98 56 14 C51.97061311 14.96958013 48.27082679 15.08849532 44.1328125 15.02734375 C42.70069007 15.01300952 41.26856051 14.99937609 39.83642578 14.98632812 C39.07170959 14.97802979 38.30699341 14.96973145 37.519104 14.96118164 C10.99093657 14.69877427 -15.50023901 15.90189362 -42 17 C-38.44848879 14.63232586 -35.31746428 14.2650298 -31.19140625 13.7109375 C-30.42827621 13.60278717 -29.66514618 13.49463684 -28.87889099 13.38320923 C-27.26636343 13.15615767 -25.6533112 12.93280596 -24.03979492 12.71289062 C-21.57415551 12.37658975 -19.11028742 12.02916311 -16.64648438 11.6796875 C-15.07821645 11.4602828 -13.50985974 11.24151169 -11.94140625 11.0234375 C-11.20588028 10.92034271 -10.47035431 10.81724792 -9.71253967 10.71102905 C-6.42576975 10.26541975 -3.32583571 10 0 10 C-0.185625 8.906875 -0.37125 7.81375 -0.5625 6.6875 C-1 3 -1 3 0 0 Z " fill="#3476AA" transform="translate(66,249)"/>
<path d="M0 0 C14.93248712 -0.11074122 29.81247393 0.14811876 44.73300171 0.74050903 C50.74740686 0.97897707 56.76232685 1.2033457 62.77734375 1.42578125 C64.05529312 1.47308884 65.33324249 1.52039642 66.6499176 1.56913757 C77.03739519 1.94573767 87.42612766 2.25494502 97.81640625 2.54296875 C98.60405617 2.56493568 99.39170609 2.58690262 100.20322418 2.60953522 C108.00706772 2.82705463 115.8109967 3.04042619 123.61523914 3.24315548 C126.52053481 3.3194394 129.42573158 3.39909888 132.33091545 3.47951698 C134.33507582 3.53375856 136.33935982 3.5833697 138.34364319 3.63285828 C139.54597092 3.66643936 140.74829865 3.70002045 141.98706055 3.73461914 C143.03282761 3.7618959 144.07859467 3.78917267 145.15605164 3.817276 C147.85677329 3.99079767 150.36438088 4.40019791 153 5 C153 5.33 153 5.66 153 6 C148.05208706 6.0246826 143.1042098 6.04285166 138.15625 6.05493164 C136.47232438 6.05996653 134.78840314 6.06679481 133.10449219 6.07543945 C130.68683797 6.08754196 128.26924144 6.09323668 125.8515625 6.09765625 C125.0963028 6.10281754 124.34104309 6.10797882 123.56289673 6.11329651 C118.22774341 6.11387171 118.22774341 6.11387171 116 5 C116 5.66 116 6.32 116 7 C92.15409534 7.23872991 68.39959484 6.60411362 44.57623291 5.60931396 C40.08943017 5.42344059 35.6023192 5.24531642 31.11523438 5.06640625 C22.40984958 4.71822614 13.70482342 4.36194329 5 4 C5.0825 5.27875 5.165 6.5575 5.25 7.875 C5.29640625 8.59429687 5.3428125 9.31359375 5.390625 10.0546875 C5.59171875 10.69664062 5.7928125 11.33859375 6 12 C7.32 12.66 8.64 13.32 10 14 C6.37 14 2.74 14 -1 14 C-0.67 9.38 -0.34 4.76 0 0 Z " fill="#18578A" transform="translate(67,249)"/>
<path d="M0 0 C0.75594955 -0.00570007 1.51189911 -0.01140015 2.29075623 -0.01727295 C3.88498561 -0.02666954 5.47923396 -0.03323552 7.07348633 -0.03710938 C9.46536909 -0.04675115 11.85636739 -0.07779842 14.24804688 -0.109375 C36.73231718 -0.26439271 36.73231718 -0.26439271 44.93359375 5.203125 C43.56081284 8.57846775 42.35590005 9.8663985 39.05859375 11.390625 C38.04152344 11.87595703 38.04152344 11.87595703 37.00390625 12.37109375 C21.8198118 18.47338077 5.29039121 11.01010637 -8.80273438 5.04492188 C-10.89948719 4.11539971 -12.98786765 3.17258776 -15.06640625 2.203125 C-15.06640625 1.873125 -15.06640625 1.543125 -15.06640625 1.203125 C-10.02480237 0.38305807 -5.11104657 0.0307055 0 0 Z " fill="#EFE65E" transform="translate(89.06640625,321.796875)"/>
<path d="M0 0 C4.75 0.75 4.75 0.75 7 3 C7.6290269 8.68220963 6.18931796 12.39074149 3.375 17.1875 C2.63968973 18.50729186 1.90532579 19.82761137 1.171875 21.1484375 C0.62176758 22.12248535 0.62176758 22.12248535 0.06054688 23.11621094 C-4.39137313 31.0239031 -7.67336289 37.97886766 -9 47 C-13.62 47 -18.24 47 -23 47 C-22 42 -22 42 -21 39 C-20.34 39 -19.68 39 -19 39 C-19.10957031 38.21367187 -19.21914062 37.42734375 -19.33203125 36.6171875 C-18.84736396 31.33716505 -16.37201265 27.62062774 -13.6875 23.125 C-13.18798828 22.24585938 -12.68847656 21.36671875 -12.17382812 20.4609375 C-9.36012593 15.66087335 -9.36012593 15.66087335 -8 14 C-7.01 14 -6.02 14 -5 14 C-4.9175 13.360625 -4.835 12.72125 -4.75 12.0625 C-3.70479628 7.79458483 -1.85908174 3.96892333 0 0 Z " fill="#65DC3A" transform="translate(210,204)"/>
<path d="M0 0 C3.63078266 0.28476727 6.44823363 0.71090325 9.69140625 2.41015625 C27.60131147 11.0162146 53.02312472 10.30244946 72 6 C71.505 4.515 71.505 4.515 71 3 C76.625 2.75 76.625 2.75 80 5 C80 6.32 80 7.64 80 9 C78.48353179 9.65601744 76.96153825 10.2992664 75.4375 10.9375 C74.59058594 11.29714844 73.74367188 11.65679687 72.87109375 12.02734375 C66.90569319 14.04827537 60.79975651 14.167561 54.56640625 14.203125 C53.77080795 14.20882507 52.97520966 14.21452515 52.15550232 14.22039795 C50.47550769 14.22980066 48.795495 14.236363 47.11547852 14.24023438 C44.60072639 14.24985378 42.08682355 14.28088587 39.57226562 14.3125 C26.33841004 14.39926683 11.67135107 14.03127735 0 7 C-0.66 6.34 -1.32 5.68 -2 5 C-1.46428571 1.46428571 -1.46428571 1.46428571 0 0 Z " fill="#FAD70B" transform="translate(154,326)"/>
<path d="M0 0 C0.33 1.32 0.66 2.64 1 4 C6.28 4 11.56 4 17 4 C16.48974839 9.58018216 15.45806251 13.95226024 13.19921875 19.140625 C12.78274834 20.11307159 12.78274834 20.11307159 12.35786438 21.10516357 C11.47731293 23.1577332 10.58345419 25.20411271 9.6875 27.25 C8.51832275 29.93997708 7.35737272 32.63338706 6.19921875 35.328125 C5.9152121 35.97881958 5.63120544 36.62951416 5.33859253 37.29992676 C3.56743286 41.4243941 2.23255357 45.52946047 1.01953125 49.859375 C-0.56518505 54.76263468 -0.56518505 54.76263468 -4.19140625 56.7421875 C-8.46164797 57.03125002 -12.65886449 57.22032521 -16.9375 57.125 C-17.71673828 57.11597656 -18.49597656 57.10695312 -19.29882812 57.09765625 C-21.19935447 57.07433691 -23.09972008 57.03847586 -25 57 C-23.43181728 51.547001 -21.96189783 47.23513217 -18 43 C-18 44.32 -18 45.64 -18 47 C-18.66 47 -19.32 47 -20 47 C-20.144375 47.763125 -20.28875 48.52625 -20.4375 49.3125 C-21 52 -21 52 -22 55 C-17.38 55 -12.76 55 -8 55 C-8 53.68 -8 52.36 -8 51 C-7.10330887 41.83815587 -1.66128223 33.60842583 2.86328125 25.7734375 C6.98661384 18.81985361 6.98661384 18.81985361 7 11 C4.18490007 8.7226499 4.18490007 8.7226499 1 9 C-0.65 13.29 -2.3 17.58 -4 22 C-4.66 22 -5.32 22 -6 22 C-5.566875 20.783125 -5.13375 19.56625 -4.6875 18.3125 C-2.67573096 12.31551229 -1.34557312 6.17436743 0 0 Z " fill="#55CA2E" transform="translate(209,196)"/>
<path d="M0 0 C6.99359485 0.48271008 13.96837971 1.07313402 20.9375 1.83203125 C72.1356667 7.39081602 123.52305362 10.67566107 175 12 C175 12.33 175 12.66 175 13 C168.73 13.33 162.46 13.66 156 14 C156 14.33 156 14.66 156 15 C146.67491898 15.11477325 137.42960882 14.77588679 128.125 14.1875 C126.66350509 14.09729475 125.20199747 14.00729526 123.74047852 13.91748047 C120.55129125 13.72078547 117.36228936 13.52130964 114.17333984 13.32080078 C109.66777615 13.0391019 105.16140887 12.77278465 100.65475464 12.50918579 C80.19605194 11.30840581 59.77308843 9.9343118 39.375 7.9375 C38.53009003 7.85550354 37.68518005 7.77350708 36.81466675 7.68902588 C27.15517212 6.74277319 17.57493751 5.60929576 8 4 C8 3.34 8 2.68 8 2 C5.36 1.67 2.72 1.34 0 1 C0 0.67 0 0.34 0 0 Z " fill="#165592" transform="translate(26,285)"/>
<path d="M0 0 C0.04898438 0.86882812 0.09796875 1.73765625 0.1484375 2.6328125 C0.22320312 3.78523438 0.29796875 4.93765625 0.375 6.125 C0.44460937 7.26195313 0.51421875 8.39890625 0.5859375 9.5703125 C0.87486677 12.97022687 0.87486677 12.97022687 2.01171875 15.94140625 C3.19116154 19.59161853 3.42302144 23.01187792 3.4375 26.8125 C3.44136719 27.51375 3.44523438 28.215 3.44921875 28.9375 C3.31448186 35.01188829 1.69491539 39.2493945 -2 44 C-6.18912008 42.1245362 -7.74756668 40.05437997 -10 36 C-13.25230194 27.32110437 -12.69927887 19.21398559 -9.3515625 10.6640625 C-7.87797787 7.75948239 -3.77042304 0 0 0 Z " fill="#99A1AB" transform="translate(194,120)"/>
<path d="M0 0 C1.14671928 0.00068733 1.14671928 0.00068733 2.31660461 0.00138855 C3.92942869 0.00439765 5.5422502 0.01224353 7.1550293 0.0246582 C9.58848719 0.04278407 12.02156006 0.04516836 14.45507812 0.04492188 C22.6603207 0.06414085 30.76730132 0.24837718 38.92578125 1.23046875 C38.92578125 1.89046875 38.92578125 2.55046875 38.92578125 3.23046875 C29.63756187 6.38091857 20.41536623 9.40391919 10.73828125 11.10546875 C10.06933838 11.22510986 9.40039551 11.34475098 8.71118164 11.46801758 C2.62868962 12.45553878 -3.8674491 13.47670321 -9.44921875 10.35546875 C-10.09632813 10.00742187 -10.7434375 9.659375 -11.41015625 9.30078125 C-13.07421875 8.23046875 -13.07421875 8.23046875 -15.07421875 6.23046875 C-15.07421875 4.23046875 -15.07421875 4.23046875 -14.07421875 2.23046875 C-9.39628174 0.19935913 -5.0216985 -0.04997848 0 0 Z " fill="#FDF059" transform="translate(270.07421875,331.76953125)"/>
<path d="M0 0 C-2.91403311 9.45317918 -7.99950756 17.29871564 -14.625 24.5625 C-15.0799585 25.06281738 -15.53491699 25.56313477 -16.00366211 26.07861328 C-21.35201614 31.73405447 -25.47150217 33.36199171 -33 34 C-32.29875 33.34 -31.5975 32.68 -30.875 32 C-25.97370514 27.05669404 -21.36245639 22.24912783 -21 15 C-23.31 14.67 -25.62 14.34 -28 14 C-28 13.34 -28 12.68 -28 12 C-27.10539063 11.55269531 -26.21078125 11.10539063 -25.2890625 10.64453125 C-24.70817871 10.35392822 -24.12729492 10.0633252 -23.52880859 9.76391602 C-22.25361203 9.12664479 -20.97789019 8.49042364 -19.70166016 7.85522461 C-16.78248421 6.40079029 -13.87421618 4.93417531 -10.984375 3.421875 C-10.12328125 2.97328125 -9.2621875 2.5246875 -8.375 2.0625 C-7.61960938 1.66160156 -6.86421875 1.26070312 -6.0859375 0.84765625 C-4 0 -4 0 0 0 Z " fill="#4AB521" transform="translate(240,160)"/>
<path d="M0 0 C-1.47724063 3.64493069 -3.38031761 5.2852382 -6.5 7.625 C-12.17621719 12.14634853 -17.34791141 17.07975484 -22.5 22.1875 C-23.28955078 22.95980957 -24.07910156 23.73211914 -24.89257812 24.52783203 C-28.80963752 28.44742619 -31.95063015 31.81873026 -34 37 C-34.66 37 -35.32 37 -36 37 C-33.44207326 23.69878096 -26.50578469 12.27880091 -15.3125 4.5625 C-10.2078797 1.28695754 -6.12188393 -0.28473879 0 0 Z " fill="#B0F491" transform="translate(235,80)"/>
<path d="M0 0 C1.03115279 3.26913624 0.9638984 5.86041348 0.5625 9.25 C0.46066406 10.14203125 0.35882813 11.0340625 0.25390625 11.953125 C0.17011719 12.62859375 0.08632813 13.3040625 0 14 C-0.66 14 -1.32 14 -2 14 C-1.98839844 15.26457031 -1.97679687 16.52914062 -1.96484375 17.83203125 C-1.95546434 19.49218602 -1.9463643 21.15234239 -1.9375 22.8125 C-1.92912109 23.64587891 -1.92074219 24.47925781 -1.91210938 25.33789062 C-1.90888672 26.14033203 -1.90566406 26.94277344 -1.90234375 27.76953125 C-1.89710693 28.50792236 -1.89187012 29.24631348 -1.88647461 30.00708008 C-2 32 -2 32 -3 35 C-3.09328829 36.83993841 -3.12792423 38.68308938 -3.12939453 40.52539062 C-3.13254669 41.65666382 -3.13569885 42.78793701 -3.13894653 43.95349121 C-3.1369223 45.17540161 -3.13489807 46.39731201 -3.1328125 47.65625 C-3.13376923 48.9100647 -3.13472595 50.16387939 -3.13571167 51.45568848 C-3.13639269 54.10867757 -3.13504458 56.76157479 -3.13037109 59.41455078 C-3.12467399 62.81419812 -3.12795473 66.21376651 -3.13394356 69.61341095 C-3.13842693 72.85686013 -3.13528742 76.10029979 -3.1328125 79.34375 C-3.13483673 80.5656604 -3.13686096 81.7875708 -3.13894653 83.04650879 C-3.13421829 84.74341858 -3.13421829 84.74341858 -3.12939453 86.47460938 C-3.12859894 87.4714978 -3.12780334 88.46838623 -3.12698364 89.4954834 C-3.10548123 92.12986264 -3.10548123 92.12986264 -2 95 C-1.85222064 96.69867188 -1.75252934 98.40177489 -1.68359375 100.10546875 C-1.64169922 101.08837891 -1.59980469 102.07128906 -1.55664062 103.08398438 C-1.51732422 104.10814453 -1.47800781 105.13230469 -1.4375 106.1875 C-1.39431641 107.22326172 -1.35113281 108.25902344 -1.30664062 109.32617188 C-1.20055634 111.8839819 -1.09849854 114.44188845 -1 117 C-1.33 117 -1.66 117 -2 117 C-2.19916016 115.42798828 -2.19916016 115.42798828 -2.40234375 113.82421875 C-2.58057235 112.44529222 -2.75896641 111.06638707 -2.9375 109.6875 C-3.02451172 108.99720703 -3.11152344 108.30691406 -3.20117188 107.59570312 C-3.59210135 104.59857712 -4.0415004 101.87549881 -5 99 C-5.2178744 96.99347881 -5.38972485 94.98181886 -5.53515625 92.96875 C-5.66567383 91.16277344 -5.66567383 91.16277344 -5.79882812 89.3203125 C-5.88583984 88.05960937 -5.97285156 86.79890625 -6.0625 85.5 C-6.15337891 84.27023438 -6.24425781 83.04046875 -6.33789062 81.7734375 C-7.16806308 70.01370132 -7.02551278 58.40007562 -6.625 46.625 C-6.5940625 45.49578125 -6.563125 44.3665625 -6.53125 43.203125 C-6.26121499 35.33610512 -5.30669983 27.75614995 -4 20 C-3.80481002 18.62737365 -3.61586149 17.25382057 -3.4375 15.87890625 C-3.2209375 14.23728516 -3.2209375 14.23728516 -3 12.5625 C-2.855625 11.45003906 -2.71125 10.33757812 -2.5625 9.19140625 C-1.99630703 5.97904751 -1.10885244 3.06320487 0 0 Z " fill="#73B6D8" transform="translate(63,100)"/>
<path d="M0 0 C0.04898438 0.86882812 0.09796875 1.73765625 0.1484375 2.6328125 C0.22320312 3.78523438 0.29796875 4.93765625 0.375 6.125 C0.47941406 7.83042969 0.47941406 7.83042969 0.5859375 9.5703125 C0.87486677 12.97022687 0.87486677 12.97022687 2.01171875 15.94140625 C3.19116154 19.59161853 3.42302144 23.01187792 3.4375 26.8125 C3.44136719 27.51375 3.44523438 28.215 3.44921875 28.9375 C3.31448186 35.01188829 1.69491539 39.2493945 -2 44 C-3.953125 43.1328125 -3.953125 43.1328125 -6 42 C-6.75 39.875 -6.75 39.875 -7 38 C-6.01 38 -5.02 38 -4 38 C-2.38133408 30.71600336 -2.47827455 23.15608804 -3.58984375 15.8046875 C-3.69643311 15.09103027 -3.80302246 14.37737305 -3.9128418 13.64208984 C-4.13426365 12.23531555 -4.37603211 10.83156422 -4.63989258 9.43212891 C-4.953125 7.46875 -4.953125 7.46875 -5 4 C-1.93670886 0 -1.93670886 0 0 0 Z " fill="#8F9B9F" transform="translate(194,120)"/>
<path d="M0 0 C6.35982185 0.09336907 12.747064 0.6596586 18.16040039 4.32128906 C18.77734375 6.40039062 18.77734375 6.40039062 19.16040039 8.32128906 C15.84807341 8.4096359 12.53605604 8.4621249 9.22290039 8.50878906 C7.83361328 8.54649414 7.83361328 8.54649414 6.41625977 8.58496094 C0.53751111 8.6468425 -5.69503067 8.51165557 -10.83959961 5.32128906 C-11.64404297 3.27514648 -11.64404297 3.27514648 -11.83959961 1.32128906 C-9.5004875 -1.01782304 -3.27117778 0.01166542 0 0 Z " fill="#A1C5DF" transform="translate(102.839599609375,254.6787109375)"/>
<path d="M0 0 C1.67642578 0.01353516 1.67642578 0.01353516 3.38671875 0.02734375 C6.13303462 0.05081654 8.87890472 0.08365272 11.625 0.125 C11.625 0.455 11.625 0.785 11.625 1.125 C1.725 1.62 1.725 1.62 -8.375 2.125 C-8.375 2.785 -8.375 3.445 -8.375 4.125 C-2.12038144 6.39116615 4.07650687 7.96295007 10.625 9.125 C10.625 9.455 10.625 9.785 10.625 10.125 C-8.66669495 13.72611639 -8.66669495 13.72611639 -17.375 8.125 C-18.035 7.465 -18.695 6.805 -19.375 6.125 C-19.375 4.125 -19.375 4.125 -18.375 2.125 C-12.56972505 -0.70829119 -6.29638858 -0.09641113 0 0 Z " fill="#F4D411" transform="translate(274.375,331.875)"/>
<path d="M0 0 C6.625 -0.25 6.625 -0.25 10 2 C8.62721909 5.37534275 7.4223063 6.6632735 4.125 8.1875 C3.10792969 8.67283203 3.10792969 8.67283203 2.0703125 9.16796875 C-4.33864733 11.74364506 -12.55506723 12.36767162 -19.18359375 10.328125 C-20.8125 9.5 -20.8125 9.5 -23 8 C-23 7.67 -23 7.34 -23 7 C-22.44538086 6.91959473 -21.89076172 6.83918945 -21.31933594 6.75634766 C-18.79512602 6.38632023 -16.27261061 6.00577141 -13.75 5.625 C-12.44095703 5.43550781 -12.44095703 5.43550781 -11.10546875 5.2421875 C-10.26113281 5.11328125 -9.41679688 4.984375 -8.546875 4.8515625 C-7.77182617 4.73635254 -6.99677734 4.62114258 -6.19824219 4.50244141 C-3.89091581 3.97506716 -2.06586626 3.13993019 0 2 C0 1.34 0 0.68 0 0 Z " fill="#F1D317" transform="translate(124,325)"/>
<path d="M0 0 C0.33 0 0.66 0 1 0 C1.02715383 1.74991334 1.04646551 3.49994945 1.0625 5.25 C1.07410156 6.22453125 1.08570313 7.1990625 1.09765625 8.203125 C1.01135257 10.67486245 0.6403827 12.63346464 0 15 C-8.8647012 16.04033476 -17.71213558 16.32003367 -26.625 16.5625 C-28.12110312 16.60579715 -29.61719701 16.64941456 -31.11328125 16.69335938 C-34.74208861 16.79926182 -38.37100135 16.9008418 -42 17 C-38.44848879 14.63232586 -35.31746428 14.2650298 -31.19140625 13.7109375 C-30.42827621 13.60278717 -29.66514618 13.49463684 -28.87889099 13.38320923 C-27.26636343 13.15615767 -25.6533112 12.93280596 -24.03979492 12.71289062 C-21.57415551 12.37658975 -19.11028742 12.02916311 -16.64648438 11.6796875 C-15.07821645 11.4602828 -13.50985974 11.24151169 -11.94140625 11.0234375 C-11.20588028 10.92034271 -10.47035431 10.81724792 -9.71253967 10.71102905 C-6.42576975 10.26541975 -3.32583571 10 0 10 C-0.185625 8.906875 -0.37125 7.81375 -0.5625 6.6875 C-1 3 -1 3 0 0 Z " fill="#2E5F94" transform="translate(66,249)"/>
<path d="M0 0 C0.66 0.33 1.32 0.66 2 1 C2 2.65 2 4.3 2 6 C3.99508067 6.68124706 5.99638693 7.34427209 8 8 C9.03125 8.350625 10.0625 8.70125 11.125 9.0625 C15.57318269 10.13867323 19.86680912 10.47361813 24.42578125 10.75390625 C27 11 27 11 29 12 C31.47832659 12.15626576 33.93311331 12.25813198 36.4140625 12.31640625 C37.14370209 12.33718735 37.87334167 12.35796844 38.62509155 12.37937927 C40.95829763 12.44481917 43.29161721 12.50373368 45.625 12.5625 C47.20574095 12.60569053 48.78647039 12.64930499 50.3671875 12.69335938 C54.24467504 12.80049481 58.12227685 12.90177782 62 13 C62 12.34 62 11.68 62 11 C65.63 11 69.26 11 73 11 C67.54111551 14.63925633 60.94387139 14.16673876 54.56640625 14.203125 C53.77080795 14.20882507 52.97520966 14.21452515 52.15550232 14.22039795 C50.47550769 14.22980066 48.795495 14.236363 47.11547852 14.24023438 C44.60072639 14.24985378 42.08682355 14.28088587 39.57226562 14.3125 C26.33841004 14.39926683 11.67135107 14.03127735 0 7 C-0.66 6.34 -1.32 5.68 -2 5 C-1.46428571 1.46428571 -1.46428571 1.46428571 0 0 Z " fill="#D7C838" transform="translate(154,326)"/>
<path d="M0 0 C7.73708326 -0.12152487 15.307359 0.15199233 23 1 C23 1.66 23 2.32 23 3 C19.87647773 4.00465729 16.75095147 5.00292927 13.625 6 C12.73554688 6.28617187 11.84609375 6.57234375 10.9296875 6.8671875 C9.65351563 7.27324219 9.65351563 7.27324219 8.3515625 7.6875 C7.17327881 8.06455078 7.17327881 8.06455078 5.97119141 8.44921875 C4 9 4 9 2 9 C2 8.34 2 7.68 2 7 C2.66 6.67 3.32 6.34 4 6 C2.68 5.34 1.36 4.68 0 4 C0 2.68 0 1.36 0 0 Z " fill="#D7D881" transform="translate(286,332)"/>
<path d="M0 0 C0.66 0.33 1.32 0.66 2 1 C-3.42063306 3.71031653 -8.53064912 4.72269727 -14.5234375 5.5703125 C-16.93600664 5.74406664 -16.93600664 5.74406664 -18 7 C-21.8053484 7.2561582 -25.62457575 7.18524783 -29.4375 7.1875 C-31.02208008 7.20586914 -31.02208008 7.20586914 -32.63867188 7.22460938 C-40.86344178 7.23981228 -48.59827626 6.81041641 -56 3 C-54.12465576 3.01571045 -54.12465576 3.01571045 -52.21142578 3.03173828 C-47.53355825 3.06818152 -42.85570304 3.09098833 -38.17773438 3.10986328 C-36.16046024 3.11986576 -34.1432004 3.13347206 -32.12597656 3.15087891 C-29.21155246 3.17538198 -26.29732152 3.18654091 -23.3828125 3.1953125 C-22.49385284 3.20563507 -21.60489319 3.21595764 -20.68899536 3.22659302 C-13.53499865 3.22784944 -6.79951249 2.26650416 0 0 Z " fill="#43615B" transform="translate(230,336)"/>
<path d="M0 0 C0 0.33 0 0.66 0 1 C-0.73412109 0.99476318 -1.46824219 0.98952637 -2.22460938 0.98413086 C-24.21105039 0.45796183 -24.21105039 0.45796183 -46.05078125 2.53515625 C-49.06100824 3.00961587 -51.83168705 3.06457959 -54.875 3 C-59.69931242 2.95187718 -64.23559165 3.2670141 -69 4 C-65.96905143 0.96905143 -62.21747107 1.01885177 -58.125 0.4375 C-56.78501953 0.24462402 -56.78501953 0.24462402 -55.41796875 0.04785156 C-37.08199584 -2.45309285 -18.32219793 -2.8865412 0 0 Z " fill="#88C4E2" transform="translate(225,2)"/>
<path d="M0 0 C2.41539975 3.62309963 2.42206302 6.42228296 2.4375 10.625 C2.44136719 11.33978516 2.44523438 12.05457031 2.44921875 12.79101562 C2.31778775 18.83136553 0.74455817 23.18556807 -3 28 C-4.953125 27.1328125 -4.953125 27.1328125 -7 26 C-7.75 23.875 -7.75 23.875 -8 22 C-7.01 22 -6.02 22 -5 22 C-4.71125 20.88625 -4.4225 19.7725 -4.125 18.625 C-3 15 -3 15 -1 13 C-0.53513282 9.87803664 -0.53513282 9.87803664 -0.375 6.375 C-0.30023438 5.18648437 -0.22546875 3.99796875 -0.1484375 2.7734375 C-0.09945312 1.85820312 -0.05046875 0.94296875 0 0 Z " fill="#82918C" transform="translate(195,136)"/>
<path d="M0 0 C5.94 0.99 5.94 0.99 12 2 C11.01 2.66 10.02 3.32 9 4 C9 4.66 9 5.32 9 6 C0.29004903 9.18656743 -8.00404828 9.18241222 -17.1875 9.1875 C-18.9499707 9.20586914 -18.9499707 9.20586914 -20.74804688 9.22460938 C-22.4409082 9.22750977 -22.4409082 9.22750977 -24.16796875 9.23046875 C-25.70360474 9.23663208 -25.70360474 9.23663208 -27.27026367 9.24291992 C-30.01924465 8.99828741 -31.65690051 8.41201562 -34 7 C-32.95545654 6.98541748 -31.91091309 6.97083496 -30.8347168 6.95581055 C-26.95985655 6.89784449 -23.08557849 6.82061226 -19.21118164 6.73754883 C-17.53419441 6.70429137 -15.85709503 6.67626192 -14.17993164 6.65356445 C-11.76920775 6.62003263 -9.35951238 6.56772022 -6.94921875 6.51171875 C-6.19912033 6.50532883 -5.44902191 6.4989389 -4.67619324 6.49235535 C-0.54399014 6.40111528 -0.54399014 6.40111528 2.99682617 4.46801758 C3.32787354 3.98357178 3.6589209 3.49912598 4 3 C2.68 2.01 1.36 1.02 0 0 Z " fill="#FEEE45" transform="translate(217,326)"/>
<path d="M0 0 C6.20825047 9.31237571 3.30288601 24.45937536 1.35522461 34.93603516 C0.09878066 41.13313391 -1.75609918 47.08840342 -4 53 C-4.33 53 -4.66 53 -5 53 C-5 50.69 -5 48.38 -5 46 C-4.34 46 -3.68 46 -3 46 C-3 43.69 -3 41.38 -3 39 C-2.34 39 -1.68 39 -1 39 C-1.01160156 38.28972656 -1.02320313 37.57945313 -1.03515625 36.84765625 C-1.04417969 35.92855469 -1.05320313 35.00945312 -1.0625 34.0625 C-1.07410156 33.14597656 -1.08570313 32.22945312 -1.09765625 31.28515625 C-1 29 -1 29 0 28 C0.08767112 25.92737924 0.10695873 23.85179706 0.09765625 21.77734375 C0.09443359 20.51728516 0.09121094 19.25722656 0.08789062 17.95898438 C0.07953403 16.61848891 0.07106907 15.27799412 0.0625 13.9375 C0.0574866 12.59310058 0.05292342 11.2486994 0.04882812 9.90429688 C0.03699488 6.60282059 0.02050971 3.30143197 0 0 Z " fill="#98DFA6" transform="translate(256,84)"/>
<path d="M0 0 C0 0.66 0 1.32 0 2 C-0.7425 2.43957031 -1.485 2.87914063 -2.25 3.33203125 C-8.76328629 7.28256143 -13.13555887 14.80842129 -16.89453125 21.30859375 C-18.09770941 23.14949885 -19.33121869 24.56773887 -21 26 C-21.66 26 -22.32 26 -23 26 C-20.61634016 17.63236075 -10.09848159 0 0 0 Z " fill="#9AE196" transform="translate(222,81)"/>
<path d="M0 0 C12.54 0 25.08 0 38 0 C38.495 1.485 38.495 1.485 39 3 C37.35 3.33 35.7 3.66 34 4 C34 3.34 34 2.68 34 2 C32.6682373 2.01571045 32.6682373 2.01571045 31.30957031 2.03173828 C28.00713493 2.06587756 24.70488782 2.09092668 21.40234375 2.10986328 C19.97457922 2.11990427 18.54683517 2.13353981 17.11914062 2.15087891 C15.06375059 2.17521152 13.00863308 2.18650202 10.953125 2.1953125 C9.09929199 2.21102295 9.09929199 2.21102295 7.20800781 2.22705078 C4 2 4 2 0 0 Z " fill="#3998CD" transform="translate(236,271)"/>
<path d="M0 0 C3 2 3 2 4 5 C4.95496339 19.82029723 2.29751234 33.4912771 -6 46 C-8.22265625 46.89453125 -8.22265625 46.89453125 -10 47 C-9.67 46.01 -9.34 45.02 -9 44 C-8.34 44 -7.68 44 -7 44 C-6.7215625 43.29488281 -6.443125 42.58976562 -6.15625 41.86328125 C-5.3860633 39.95602838 -4.59432888 38.05733473 -3.78125 36.16796875 C1.33405394 24.26864891 4.8195559 12.73739772 0 0 Z " fill="#819684" transform="translate(234,119)"/>
<path d="M0 0 C1.03115279 3.26913624 0.9638984 5.86041348 0.5625 9.25 C0.46066406 10.14203125 0.35882813 11.0340625 0.25390625 11.953125 C0.17011719 12.62859375 0.08632813 13.3040625 0 14 C-0.66 14 -1.32 14 -2 14 C-1.96519531 15.2065625 -1.93039063 16.413125 -1.89453125 17.65625 C-1.86637016 19.27081928 -1.83907251 20.88540379 -1.8125 22.5 C-1.77479492 23.68722656 -1.77479492 23.68722656 -1.73632812 24.8984375 C-1.66596502 30.62130318 -2.70702602 34.75203857 -5 40 C-5.33 40 -5.66 40 -6 40 C-6.26172205 34.372976 -5.48043216 29.10513555 -4.5703125 23.5546875 C-3.80419905 18.77959684 -3.18488624 13.98711454 -2.5625 9.19140625 C-1.99630703 5.97904751 -1.10885244 3.06320487 0 0 Z " fill="#74B9DB" transform="translate(63,100)"/>
<path d="M0 0 C0.66 0.33 1.32 0.66 2 1 C0.56825986 3.75303561 -0.87139922 6.50185432 -2.3125 9.25 C-2.71662109 10.02730469 -3.12074219 10.80460938 -3.53710938 11.60546875 C-5.48298575 15.30737991 -7.45452083 18.67193015 -10 22 C-10 22.66 -10 23.32 -10 24 C-8.26196586 25.10829447 -8.26196586 25.10829447 -6.125 26.1875 C-2.96634913 28.05143885 -1.47138855 29.23141087 -0.5 32.8125 C-0.335 33.864375 -0.17 34.91625 0 36 C-0.66 36 -1.32 36 -2 36 C-2.061875 35.05125 -2.12375 34.1025 -2.1875 33.125 C-2.5896875 31.578125 -2.5896875 31.578125 -3 30 C-5.2995961 28.64663567 -5.2995961 28.64663567 -8 28 C-9.34050052 27.34786461 -10.67661368 26.68620031 -12 26 C-11.74175857 20.06044715 -9.66396912 16.36063648 -6.5 11.37890625 C-4.78527565 8.65946061 -3.37460314 5.90193997 -2 3 C-2.66 2.67 -3.32 2.34 -4 2 C-2.125 0.9375 -2.125 0.9375 0 0 Z " fill="#50BF50" transform="translate(242,157)"/>
<path d="M0 0 C1.65 0 3.3 0 5 0 C1.87411919 2.60724321 -1.10208792 3.93277691 -4.9375 5.26171875 C-6.65066406 5.85629883 -6.65066406 5.85629883 -8.3984375 6.46289062 C-9.58695312 6.86701172 -10.77546875 7.27113281 -12 7.6875 C-13.18851562 8.10322266 -14.37703125 8.51894531 -15.6015625 8.94726562 C-24.48406712 12 -24.48406712 12 -29 12 C-29 11.34 -29 10.68 -29 10 C-26.12854755 8.98867084 -23.25354777 7.99075598 -20.375 7 C-19.56675781 6.71382813 -18.75851562 6.42765625 -17.92578125 6.1328125 C-13.46885356 4.61093475 -9.77962528 3.62876697 -5 4 C-5 3.34 -5 2.68 -5 2 C-3.35 2 -1.7 2 0 2 C0 1.34 0 0.68 0 0 Z " fill="#6B89AE" transform="translate(336,331)"/>
<path d="M0 0 C2.79173055 -0.02690104 5.58320348 -0.04679053 8.375 -0.0625 C9.56609375 -0.07506836 9.56609375 -0.07506836 10.78125 -0.08789062 C16.7734375 -0.11328125 16.7734375 -0.11328125 19 1 C19 1.66 19 2.32 19 3 C15.80843552 4.06385483 13.41502524 4.16677982 10.0625 4.1875 C8.50208984 4.20876953 8.50208984 4.20876953 6.91015625 4.23046875 C4.04953387 4.00392282 2.42329849 3.47733619 0 2 C0 1.34 0 0.68 0 0 Z " fill="#FEFED6" transform="translate(81,323)"/>
<path d="M0 0 C2.26195022 0.00534281 4.52370047 0.00003785 6.78564453 -0.00634766 C14.70141776 -0.00960384 22.5281671 0.19525254 30.39892578 1.13037109 C30.39892578 1.46037109 30.39892578 1.79037109 30.39892578 2.13037109 C29.10156494 2.12513428 27.8042041 2.11989746 26.4675293 2.11450195 C21.67245163 2.0964564 16.87737698 2.08494072 12.08227539 2.07543945 C10.00349422 2.07039821 7.92471662 2.06356535 5.84594727 2.05493164 C2.86489992 2.04285687 -0.11610071 2.03714085 -3.09716797 2.03271484 C-4.03257919 2.02755356 -4.96799042 2.02239227 -5.93174744 2.01707458 C-6.79256424 2.01699905 -7.65338104 2.01692352 -8.5402832 2.0168457 C-9.30195297 2.01462509 -10.06362274 2.01240448 -10.84837341 2.01011658 C-12.62918027 1.93946154 -12.62918027 1.93946154 -13.60107422 3.13037109 C-15.29249077 3.04074047 -16.98067024 2.88459433 -18.66357422 2.69287109 C-20.04222656 2.54011719 -20.04222656 2.54011719 -21.44873047 2.38427734 C-22.15900391 2.30048828 -22.86927734 2.21669922 -23.60107422 2.13037109 C-23.60107422 1.80037109 -23.60107422 1.47037109 -23.60107422 1.13037109 C-15.73682118 0.00690637 -7.92543955 -0.02224805 0 0 Z " fill="#D4D36F" transform="translate(180.60107421875,323.86962890625)"/>
<path d="M0 0 C0.33 0 0.66 0 1 0 C1 15.18 1 30.36 1 46 C0.67 46 0.34 46 0 46 C-0.33 36.76 -0.66 27.52 -1 18 C-1.33 18 -1.66 18 -2 18 C-1.85805236 15.93722893 -1.71127784 13.87478969 -1.5625 11.8125 C-1.48128906 10.66394531 -1.40007812 9.51539063 -1.31640625 8.33203125 C-1.04596188 5.48401829 -0.62478253 2.78789518 0 0 Z " fill="#8DE8FE" transform="translate(334,133)"/>
<path d="M0 0 C1.11310547 0.01353516 2.22621094 0.02707031 3.37304688 0.04101562 C6.10337212 0.07617003 8.83267744 0.12537894 11.5625 0.1875 C11.5625 0.5175 11.5625 0.8475 11.5625 1.1875 C10.96711426 1.20731934 10.37172852 1.22713867 9.75830078 1.24755859 C7.06757847 1.34266126 4.37764852 1.45239842 1.6875 1.5625 C0.75035156 1.5934375 -0.18679688 1.624375 -1.15234375 1.65625 C-2.04824219 1.69492187 -2.94414062 1.73359375 -3.8671875 1.7734375 C-5.10831299 1.82056885 -5.10831299 1.82056885 -6.37451172 1.86865234 C-8.65736085 2.01349137 -8.65736085 2.01349137 -10.4375 4.1875 C-11.7575 4.1875 -13.0775 4.1875 -14.4375 4.1875 C-14.4375 5.8375 -14.4375 7.4875 -14.4375 9.1875 C-16.375 8.4375 -16.375 8.4375 -18.4375 7.1875 C-19.1875 5.0625 -19.1875 5.0625 -19.4375 3.1875 C-13.00001935 -0.33140979 -7.22335359 -0.16718741 0 0 Z " fill="#CAC85C" transform="translate(274.4375,331.8125)"/>
<path d="M0 0 C2.24993359 -0.02707139 4.49996095 -0.04642829 6.75 -0.0625 C8.00296875 -0.07410156 9.2559375 -0.08570313 10.546875 -0.09765625 C13.28536501 -0.02021027 15.41880293 0.17219185 18 1 C17.67 1.99 17.34 2.98 17 4 C15.10448978 4.05441656 13.2085208 4.09298035 11.3125 4.125 C10.25675781 4.14820313 9.20101562 4.17140625 8.11328125 4.1953125 C4.97748141 3.99858729 2.82354627 3.33057654 0 2 C0 1.34 0 0.68 0 0 Z " fill="#FEFDC9" transform="translate(183,325)"/>
<path d="M0 0 C0.66 0.33 1.32 0.66 2 1 C1.21625 1.886875 0.4325 2.77375 -0.375 3.6875 C-5.0349928 9.36110706 -5.4727062 14.85378136 -6 22 C-6.66 22 -7.32 22 -8 22 C-8.33 22.66 -8.66 23.32 -9 24 C-9.69113212 15.92143342 -8.76702532 9.72401466 -4 3 C-1.828125 1.21875 -1.828125 1.21875 0 0 Z " fill="#9AA8A7" transform="translate(212,129)"/>
<path d="M0 0 C0.66 0.33 1.32 0.66 2 1 C0.8803014 2.00593243 -0.2459412 3.0045849 -1.375 4 C-2.31472656 4.8353125 -2.31472656 4.8353125 -3.2734375 5.6875 C-5 7 -5 7 -7 7 C-7 7.66 -7 8.32 -7 9 C-10.3 9 -13.6 9 -17 9 C-13.91808369 6.68856277 -11.33831328 5.04719476 -7.9375 3.375 C-6.65166016 2.73691406 -6.65166016 2.73691406 -5.33984375 2.0859375 C-3 1 -3 1 0 0 Z " fill="#51A335" transform="translate(229,164)"/>
<path d="M0 0 C0.66 0 1.32 0 2 0 C2.2408831 6.44362304 1.35299608 12.2103966 0 18.5 C-0.19078125 19.4178125 -0.3815625 20.335625 -0.578125 21.28125 C-1.04503453 23.52241577 -1.51910692 25.76180083 -2 28 C-2.33 28 -2.66 28 -3 28 C-2.88944447 24.45772899 -2.75897691 20.9164564 -2.625 17.375 C-2.5940625 16.37597656 -2.563125 15.37695312 -2.53125 14.34765625 C-2.32760852 9.22267899 -2.01388817 4.79731083 0 0 Z " fill="#70B6D9" transform="translate(347,188)"/>
<path d="M0 0 C0 0.33 0 0.66 0 1 C-0.90363281 1.12117188 -1.80726562 1.24234375 -2.73828125 1.3671875 C-3.91777344 1.53476562 -5.09726562 1.70234375 -6.3125 1.875 C-7.48425781 2.03742188 -8.65601563 2.19984375 -9.86328125 2.3671875 C-13.14530895 2.82300621 -13.14530895 2.82300621 -16 5 C-18.17651367 5.31884766 -18.17651367 5.31884766 -20.66796875 5.4140625 C-21.56064453 5.45273437 -22.45332031 5.49140625 -23.37304688 5.53125 C-24.30181641 5.5621875 -25.23058594 5.593125 -26.1875 5.625 C-27.59805664 5.68300781 -27.59805664 5.68300781 -29.03710938 5.7421875 C-31.3578771 5.83643187 -33.67863748 5.92204025 -36 6 C-32.79854001 3.86569334 -31.01516655 3.502159 -27.265625 2.9296875 C-26.13382813 2.75566406 -25.00203125 2.58164062 -23.8359375 2.40234375 C-22.65257812 2.22832031 -21.46921875 2.05429687 -20.25 1.875 C-18.49816406 1.60236328 -18.49816406 1.60236328 -16.7109375 1.32421875 C-11.09002197 0.47662038 -5.68605087 -0.2493882 0 0 Z " fill="#6988AD" transform="translate(60,260)"/>
<path d="M0 0 C4.95 0 9.9 0 15 0 C15.33 0.99 15.66 1.98 16 3 C12.37 3.66 8.74 4.32 5 5 C5 4.34 5 3.68 5 3 C3.35 2.67 1.7 2.34 0 2 C0 1.34 0 0.68 0 0 Z " fill="#FEFEDD" transform="translate(288,334)"/>
<path d="M0 0 C0.33 1.32 0.66 2.64 1 4 C0.34 4 -0.32 4 -1 4 C-1.144375 4.763125 -1.28875 5.52625 -1.4375 6.3125 C-2 9 -2 9 -3 12 C1.62 12 6.24 12 11 12 C11 12.66 11 13.32 11 14 C5.39 14 -0.22 14 -6 14 C-4.41384826 8.93942063 -2.996935 4.42404691 0 0 Z " fill="#5DC862" transform="translate(190,239)"/>
<path d="M0 0 C0.99 0.33 1.98 0.66 3 1 C3.33 7.93 3.66 14.86 4 22 C1.69362659 19.69362659 1.6032411 18.82368767 1.11328125 15.68359375 C0.97986328 14.83732422 0.84644531 13.99105469 0.70898438 13.11914062 C0.57814453 12.23419922 0.44730469 11.34925781 0.3125 10.4375 C0.17005859 9.54869141 0.02761719 8.65988281 -0.11914062 7.74414062 C-0.86699074 2.86637197 -0.86699074 2.86637197 -1 1 C-0.67 0.67 -0.34 0.34 0 0 Z " fill="#7CBDDD" transform="translate(62,219)"/>
<path d="M0 0 C0 0.33 0 0.66 0 1 C-1.794375 1.0928125 -1.794375 1.0928125 -3.625 1.1875 C-8.44858795 1.75849009 -10.46600981 3.78728165 -14 7 C-14.680625 7.165 -15.36125 7.33 -16.0625 7.5 C-19.18925193 8.30690372 -20.82538395 10.71093048 -23 13 C-23.99 13.495 -23.99 13.495 -25 14 C-22.4619838 8.10817668 -17.29971916 4.51683604 -12.0625 1.0625 C-7.97537979 -0.35548048 -4.28160436 -0.25689626 0 0 Z " fill="#889C8E" transform="translate(234,118)"/>
<path d="M0 0 C2.31 0 4.62 0 7 0 C7.33 0.66 7.66 1.32 8 2 C11.04909772 2.81728392 14.11858951 3.41082939 17.21484375 4.0234375 C20 5 20 5 21.37890625 7.1015625 C21.58386719 7.72804688 21.78882812 8.35453125 22 9 C14.39162534 6.92957946 7.2271408 4.14169523 0 1 C0 0.67 0 0.34 0 0 Z " fill="#CFD78E" transform="translate(74,323)"/>
<path d="M0 0 C0.33 0 0.66 0 1 0 C1.21593533 21.80946882 1.21593533 21.80946882 0 29 C-0.33 29.33 -0.66 29.66 -1 30 C-1.2165625 31.7325 -1.2165625 31.7325 -1.4375 33.5 C-1.623125 34.655 -1.80875 35.81 -2 37 C-2.99 37.495 -2.99 37.495 -4 38 C-3.58082095 32.91469621 -3.02780553 27.93846423 -2 22.9375 C-0.53879165 15.36974931 -0.34228169 7.68332317 0 0 Z " fill="#A1E9DF" transform="translate(259,91)"/>
<path d="M0 0 C6.10816828 -0.20990269 11.49406864 0.50231561 17.4375 1.875 C18.25154297 2.04902344 19.06558594 2.22304688 19.90429688 2.40234375 C21.95351374 2.86380209 23.97997146 3.42405013 26 4 C26.33 4.66 26.66 5.32 27 6 C20.67250629 5.39828638 14.62404348 4.37848091 8.4375 2.9375 C7.61958984 2.75123047 6.80167969 2.56496094 5.95898438 2.37304688 C3.97164104 1.91979313 1.98566799 1.46053788 0 1 C0 0.67 0 0.34 0 0 Z " fill="#5D7EA5" transform="translate(114,344)"/>
<path d="M0 0 C0.66 0.33 1.32 0.66 2 1 C0.00832022 3.72933895 -1.5477197 5.73993883 -4.5 7.4375 C-7.23816564 8.90270475 -7.23816564 8.90270475 -8.9375 12 C-11.28066216 15.40823587 -13.22314114 16.45492138 -17 18 C-15.48391249 14.14086816 -13.19933595 12.54492632 -10 10 C-8.95746651 8.83150487 -7.93751619 7.6425828 -6.9375 6.4375 C-4.82419099 3.89279199 -2.79191792 1.8254848 0 0 Z " fill="#91C8E4" transform="translate(107,27)"/>
<path d="M0 0 C-0.639375 0.28875 -1.27875 0.5775 -1.9375 0.875 C-4.15206079 1.82823451 -4.15206079 1.82823451 -5 4 C-1.7 4 1.6 4 5 4 C5 4.33 5 4.66 5 5 C-8.81776765 5.55353075 -8.81776765 5.55353075 -14 2 C-14 1.67 -14 1.34 -14 1 C-9.32798795 -0.20568053 -4.78503708 -0.09382426 0 0 Z " fill="#E1CE2D" transform="translate(115,331)"/>
<path d="M0 0 C2.56657325 3.84985987 3.13343988 6.58358564 3.31640625 11.10546875 C3.35830078 12.08837891 3.40019531 13.07128906 3.44335938 14.08398438 C3.48267578 15.10814453 3.52199219 16.13230469 3.5625 17.1875 C3.60568359 18.22326172 3.64886719 19.25902344 3.69335938 20.32617188 C3.79944366 22.8839819 3.90150146 25.44188845 4 28 C3.67 28 3.34 28 3 28 C2.86722656 26.95199219 2.73445313 25.90398437 2.59765625 24.82421875 C2.41942765 23.44529222 2.24103359 22.06638707 2.0625 20.6875 C1.97548828 19.99720703 1.88847656 19.30691406 1.79882812 18.59570312 C1.40789865 15.59857712 0.9584996 12.87549881 0 10 C-0.06802967 8.27204648 -0.08495645 6.54164635 -0.0625 4.8125 C-0.05347656 3.91144531 -0.04445312 3.01039063 -0.03515625 2.08203125 C-0.02355469 1.39496094 -0.01195312 0.70789063 0 0 Z " fill="#80BFDD" transform="translate(58,189)"/>
<path d="M0 0 C0.66 0.33 1.32 0.66 2 1 C1.55269531 1.46148437 1.10539063 1.92296875 0.64453125 2.3984375 C-4.07990624 7.49559181 -7.18204303 12.66284331 -10 19 C-10.33 19 -10.66 19 -11 19 C-11.35467952 14.15271316 -10.77654857 10.04272707 -8 6 C-5.48882191 3.74637864 -2.82866869 1.83426734 0 0 Z " fill="#96CA86" transform="translate(214,123)"/>
<path d="M0 0 C0.33 0 0.66 0 1 0 C0.71060362 8.97128765 -0.75623505 16.62656023 -4 25 C-4.33 25 -4.66 25 -5 25 C-5 22.69 -5 20.38 -5 18 C-4.34 18 -3.68 18 -3 18 C-3 15.69 -3 13.38 -3 11 C-2.34 11 -1.68 11 -1 11 C-1.01160156 10.28972656 -1.02320313 9.57945313 -1.03515625 8.84765625 C-1.04869141 7.46900391 -1.04869141 7.46900391 -1.0625 6.0625 C-1.07410156 5.14597656 -1.08570313 4.22945313 -1.09765625 3.28515625 C-1 1 -1 1 0 0 Z " fill="#97DE97" transform="translate(256,112)"/>
<path d="M0 0 C0.33 0 0.66 0 1 0 C1.01417969 1.05058594 1.02835938 2.10117188 1.04296875 3.18359375 C1.28092097 11.57790819 1.78505361 18.06683428 7 25 C7.82371094 26.10601562 7.82371094 26.10601562 8.6640625 27.234375 C9.10492188 27.81703125 9.54578125 28.3996875 10 29 C5.25540028 26.70950358 2.41180019 25.01210521 0.5625 19.83984375 C-0.72227914 13.35349352 -0.20187544 6.57964412 0 0 Z " fill="#95C489" transform="translate(202,142)"/>
<path d="M0 0 C3.84016586 -0.11934702 5.55502772 -0.05836694 8.82421875 2.12109375 C7.08785156 2.17716797 7.08785156 2.17716797 5.31640625 2.234375 C3.77731314 2.300068 2.23825205 2.36651417 0.69921875 2.43359375 C-0.44160156 2.46743164 -0.44160156 2.46743164 -1.60546875 2.50195312 C-6.57245069 2.73745658 -9.70816645 3.8095887 -14.17578125 6.12109375 C-16.55078125 5.80859375 -16.55078125 5.80859375 -18.17578125 5.12109375 C-12.00624499 1.59330041 -7.01380081 0.39035516 0 0 Z " fill="#96DD94" transform="translate(240.17578125,74.87890625)"/>
<path d="M0 0 C0.66 0.33 1.32 0.66 2 1 C0 5 0 5 -1.0625 6.8125 C-2.3467688 9.80912721 -2.62818874 12.77763576 -3 16 C-3.66 16 -4.32 16 -5 16 C-5 18.31 -5 20.62 -5 23 C-5.33 23 -5.66 23 -6 23 C-6.55846049 14.48347749 -4.77545951 7.16318926 0 0 Z " fill="#98AFBC" transform="translate(188,125)"/>
<path d="M0 0 C0.75732422 0.00644531 1.51464844 0.01289063 2.29492188 0.01953125 C3.08060547 0.03628906 3.86628906 0.05304688 4.67578125 0.0703125 C5.47306641 0.07933594 6.27035156 0.08835937 7.09179688 0.09765625 C9.05742025 0.12119665 11.022889 0.15706703 12.98828125 0.1953125 C12.98828125 0.5253125 12.98828125 0.8553125 12.98828125 1.1953125 C10.40575232 1.69980652 7.82239422 2.19905551 5.23828125 2.6953125 C4.14386719 2.90994141 4.14386719 2.90994141 3.02734375 3.12890625 C-0.40515407 3.78420129 -3.50341366 4.1953125 -7.01171875 4.1953125 C-7.01171875 3.5353125 -7.01171875 2.8753125 -7.01171875 2.1953125 C-3.96490814 0.16410543 -3.41053551 -0.05128625 0 0 Z " fill="#165792" transform="translate(38.01171875,264.8046875)"/>
<path d="M0 0 C0.2475 0.556875 0.495 1.11375 0.75 1.6875 C1.97197763 4.12358711 1.97197763 4.12358711 4 6.4375 C6 9 6 9 7 11.6875 C7.7996802 14.12507817 7.7996802 14.12507817 9.9375 15.25 C11.6154811 15.86017494 13.30614622 16.43538207 15 17 C13.35 17.66 11.7 18.32 10 19 C0.22488467 8.44823168 0.22488467 8.44823168 -0.1875 2.125 C-0.125625 1.42375 -0.06375 0.7225 0 0 Z " fill="#849989" transform="translate(203,153)"/>
<path d="M0 0 C0.33 0 0.66 0 1 0 C1.144375 1.11375 1.28875 2.2275 1.4375 3.375 C1.78372035 6.82142047 1.78372035 6.82142047 3 9 C-3.6 8.67 -10.2 8.34 -17 8 C-17 7.67 -17 7.34 -17 7 C-11.72 7 -6.44 7 -1 7 C-1 5.02 -1 3.04 -1 1 C-0.67 0.67 -0.34 0.34 0 0 Z " fill="#4AAF54" transform="translate(218,245)"/>
<path d="M0 0 C1.03115279 3.26913624 0.9638984 5.86041348 0.5625 9.25 C0.46066406 10.14203125 0.35882813 11.0340625 0.25390625 11.953125 C0.17011719 12.62859375 0.08632813 13.3040625 0 14 C-0.66 14 -1.32 14 -2 14 C-2 16.31 -2 18.62 -2 21 C-2.66 20.67 -3.32 20.34 -4 20 C-3.7155186 17.79072956 -3.4220904 15.58261021 -3.125 13.375 C-2.96257813 12.14523438 -2.80015625 10.91546875 -2.6328125 9.6484375 C-2.04516311 6.26038483 -1.18011878 3.22301349 0 0 Z " fill="#95CBE6" transform="translate(63,100)"/>
<path d="M0 0 C0.99 0.33 1.98 0.66 3 1 C-0.465 3.97 -0.465 3.97 -4 7 C-2.92598892 4.08482708 -2.22189824 2.22189824 0 0 Z M-10 10 C-9.01 10.33 -8.02 10.66 -7 11 C-10.465 13.97 -10.465 13.97 -14 17 C-12.92598892 14.08482708 -12.22189824 12.22189824 -10 10 Z " fill="#2891C7" transform="translate(102,33)"/>
<path d="M0 0 C0.66 0 1.32 0 2 0 C2.06058594 0.71027344 2.12117188 1.42054688 2.18359375 2.15234375 C2.26738281 3.07144531 2.35117188 3.99054688 2.4375 4.9375 C2.51871094 5.85402344 2.59992188 6.77054688 2.68359375 7.71484375 C2.76044976 9.96159732 2.76044976 9.96159732 4 11 C4.04063832 12.66617115 4.042721 14.33388095 4 16 C4.99 16.33 5.98 16.66 7 17 C5.35 17 3.7 17 2 17 C0.47893366 13.95786733 0.62570662 10.71952428 0.4375 7.375 C0.39431641 6.66859375 0.35113281 5.9621875 0.30664062 5.234375 C0.20055249 3.48981463 0.09977111 1.74493303 0 0 Z " fill="#459ECC" transform="translate(65,232)"/>
<path d="M0 0 C3.37318265 6.32128943 3.14280313 13.00264655 3 20 C2.67 20 2.34 20 2 20 C-0.46254726 13.38190423 -0.18935472 6.99560484 0 0 Z " fill="#93CBE7" transform="translate(347,105)"/>
<path d="M0 0 C7.26 0 14.52 0 22 0 C22 0.66 22 1.32 22 2 C20.34385343 2.38218767 18.67542976 2.71395102 17 3 C16.67 2.67 16.34 2.34 16 2 C13.30345146 1.92680379 10.63308542 1.90757463 7.9375 1.9375 C6.79958008 1.94426758 6.79958008 1.94426758 5.63867188 1.95117188 C3.75908129 1.9629932 1.87953101 1.98092922 0 2 C0 1.34 0 0.68 0 0 Z " fill="#E6E794" transform="translate(287,333)"/>
<path d="M0 0 C-0.22265625 1.85546875 -0.22265625 1.85546875 -1 4 C-2.99609375 5.30078125 -2.99609375 5.30078125 -5.4375 6.3125 C-6.64212891 6.83263672 -6.64212891 6.83263672 -7.87109375 7.36328125 C-10 8 -10 8 -12 7 C-10.3790787 5.82767315 -8.75313167 4.6622923 -7.125 3.5 C-6.22007813 2.8503125 -5.31515625 2.200625 -4.3828125 1.53125 C-2 0 -2 0 0 0 Z " fill="#7BBCDD" transform="translate(121,19)"/>
<path d="M0 0 C1.23556641 0.01740234 1.23556641 0.01740234 2.49609375 0.03515625 C3.32238281 0.04417969 4.14867187 0.05320312 5 0.0625 C5.63808594 0.07410156 6.27617187 0.08570313 6.93359375 0.09765625 C6.60359375 0.75765625 6.27359375 1.41765625 5.93359375 2.09765625 C4.61359375 2.09765625 3.29359375 2.09765625 1.93359375 2.09765625 C1.93359375 3.74765625 1.93359375 5.39765625 1.93359375 7.09765625 C-0.00390625 6.34765625 -0.00390625 6.34765625 -2.06640625 5.09765625 C-2.87890625 3.03515625 -2.87890625 3.03515625 -3.06640625 1.09765625 C-2.06640625 0.09765625 -2.06640625 0.09765625 0 0 Z " fill="#D8C833" transform="translate(258.06640625,333.90234375)"/>
<path d="M0 0 C5.94 0.99 5.94 0.99 12 2 C11.01 2.66 10.02 3.32 9 4 C9 4.66 9 5.32 9 6 C7.02 6 5.04 6 3 6 C3.33 5.01 3.66 4.02 4 3 C2.68 2.01 1.36 1.02 0 0 Z " fill="#DDD54D" transform="translate(217,326)"/>
<path d="M0 0 C0.33 0 0.66 0 1 0 C1.2396943 5.63281599 0.38529821 10.54538831 -1 16 C-1.33 16 -1.66 16 -2 16 C-2 11.38 -2 6.76 -2 2 C-1.34 2 -0.68 2 0 2 C0 1.34 0 0.68 0 0 Z " fill="#84C2E1" transform="translate(343,217)"/>
<path d="M0 0 C0.99 0.495 0.99 0.495 2 1 C2.88671875 4.01953125 2.88671875 4.01953125 3.6875 7.8125 C3.95949219 9.05644531 4.23148438 10.30039063 4.51171875 11.58203125 C4.94068161 14.58477125 5.04478192 16.2162522 4 19 C3.32900016 16.39688008 2.66304662 13.79264602 2 11.1875 C1.80921875 10.44951172 1.6184375 9.71152344 1.421875 8.95117188 C0.64737086 5.89464659 0 3.16626522 0 0 Z " fill="#63D6C8" transform="translate(243,194)"/>
<path d="M0 0 C2.7710688 2.34591852 3.52059284 4.14776201 4.1875 7.6875 C4.34605469 8.49574219 4.50460938 9.30398437 4.66796875 10.13671875 C4.77753906 10.75160156 4.88710937 11.36648437 5 12 C2.9754262 10.06745228 1.57894208 8.36841312 0 6 C-0.66 6 -1.32 6 -2 6 C-1.34 4.02 -0.68 2.04 0 0 Z " fill="#62D6BC" transform="translate(235,207)"/>
<path d="M0 0 C4.67105792 1.55701931 8.08705685 4.08447373 12 7 C10.68 7.33 9.36 7.66 8 8 C7.67 7.01 7.34 6.02 7 5 C5.35 4.67 3.7 4.34 2 4 C2 3.34 2 2.68 2 2 C1.01 1.67 0.02 1.34 -1 1 C-0.67 0.67 -0.34 0.34 0 0 Z " fill="#77BADC" transform="translate(294,25)"/>
<path d="M0 0 C4.29 0.66 8.58 1.32 13 2 C13 2.33 13 2.66 13 3 C9.37 3.33 5.74 3.66 2 4 C2 3.01 2 2.02 2 1 C1.34 0.67 0.68 0.34 0 0 Z " fill="#DDCD34" transform="translate(272,339)"/>
<path d="M0 0 C0.66 0.33 1.32 0.66 2 1 C2 2.65 2 4.3 2 6 C3.98 6.66 5.96 7.32 8 8 C6.3125 8.6875 6.3125 8.6875 4 9 C1.06589734 7.70353604 -0.59021442 6.90152828 -1.9375 3.9375 C-1.958125 3.298125 -1.97875 2.65875 -2 2 C-1.34 1.34 -0.68 0.68 0 0 Z " fill="#D7C837" transform="translate(154,326)"/>
<path d="M0 0 C1.09570312 0.10183594 2.19140625 0.20367187 3.3203125 0.30859375 C4.16335937 0.39238281 5.00640625 0.47617188 5.875 0.5625 C5.875 1.2225 5.875 1.8825 5.875 2.5625 C4.10450311 2.61660687 2.33353151 2.65534119 0.5625 2.6875 C-0.91669922 2.72230469 -0.91669922 2.72230469 -2.42578125 2.7578125 C-5.125 2.5625 -5.125 2.5625 -8.125 0.5625 C-5.28943413 -0.85528293 -3.1341294 -0.30007622 0 0 Z " fill="#439D5C" transform="translate(243.125,252.4375)"/>
<path d="M0 0 C4.30764815 1.56641751 8.06171464 3.68336156 12 6 C9.39417629 6.93065133 8.35801776 7.14917407 5.75 6.0625 C4.88375 5.5365625 4.88375 5.5365625 4 5 C4 4.34 4 3.68 4 3 C2.35 2.67 0.7 2.34 -1 2 C-0.67 1.34 -0.34 0.68 0 0 Z " fill="#71B8DA" transform="translate(282,18)"/>
<path d="M0 0 C1.65 0.33 3.3 0.66 5 1 C2.63803241 4.54295139 1.07984942 4.77042481 -2.95703125 5.66015625 C-5.33448358 6.05564067 -7.59508395 6.15030725 -10 6 C-6.49461443 4.03698408 -2.86648272 3.04097612 1 2 C0.67 1.34 0.34 0.68 0 0 Z " fill="#FEEF44" transform="translate(120,325)"/>
<path d="M0 0 C3.3 0.33 6.6 0.66 10 1 C10 1.66 10 2.32 10 3 C12.31 3.66 14.62 4.32 17 5 C15 6 15 6 13.046875 5.51171875 C12.28890625 5.23972656 11.5309375 4.96773438 10.75 4.6875 C9.55310547 4.26597656 9.55310547 4.26597656 8.33203125 3.8359375 C7.56246094 3.56007813 6.79289063 3.28421875 6 3 C4.824375 2.608125 3.64875 2.21625 2.4375 1.8125 C1.633125 1.544375 0.82875 1.27625 0 1 C0 0.67 0 0.34 0 0 Z " fill="#FAE73E" transform="translate(156,326)"/>
<path d="M0 0 C0.66 0 1.32 0 2 0 C1.57388649 1.75280733 1.13360733 3.50217435 0.6875 5.25 C0.44386719 6.22453125 0.20023438 7.1990625 -0.05078125 8.203125 C-0.99652356 10.98975665 -2.10708713 12.77304368 -4 15 C-4 13.02 -4 11.04 -4 9 C-3.34 9 -2.68 9 -2 9 C-2 7.35 -2 5.7 -2 4 C-1.34 4 -0.68 4 0 4 C0 2.68 0 1.36 0 0 Z " fill="#A1E7DC" transform="translate(197,105)"/>
<path d="M0 0 C0.66 0.33 1.32 0.66 2 1 C1.67 2.32 1.34 3.64 1 5 C2.65 5.33 4.3 5.66 6 6 C6 6.33 6 6.66 6 7 C4.37536158 7.05395478 2.75021459 7.09277195 1.125 7.125 C0.22007813 7.14820313 -0.68484375 7.17140625 -1.6171875 7.1953125 C-4 7 -4 7 -6 5 C-4.02 5 -2.04 5 0 5 C0 3.35 0 1.7 0 0 Z " fill="#3F9BCD" transform="translate(106,286)"/>
<path d="M0 0 C0.66 0.33 1.32 0.66 2 1 C-1.88309282 4.64775386 -4.71201818 5.58525633 -10 6 C-6.87511433 3.47605388 -3.68685613 1.60298093 0 0 Z " fill="#39563E" transform="translate(224,166)"/>
<path d="M0 0 C0 3.78176921 -1.07555275 5.76967782 -3 9 C-5.1875 10.375 -5.1875 10.375 -7 11 C-5.5140084 6.40693504 -3.14985318 3.56430755 0 0 Z " fill="#85C1E0" transform="translate(89,45)"/>
<path d="M0 0 C2.31 0.33 4.62 0.66 7 1 C3.46588679 3.12046792 0.05606165 3.53199289 -4 4 C-4 3.34 -4 2.68 -4 2 C-4.66 1.67 -5.32 1.34 -6 1 C-3.03 1.495 -3.03 1.495 0 2 C0 1.34 0 0.68 0 0 Z " fill="#EDF3D8" transform="translate(297,335)"/>
<path d="M0 0 C0.93045933 2.55144824 1.08564091 3.74006478 0.22265625 6.359375 C-0.16019531 7.14828125 -0.54304687 7.9371875 -0.9375 8.75 C-1.50791016 9.94882813 -1.50791016 9.94882813 -2.08984375 11.171875 C-2.39019531 11.77515625 -2.69054687 12.3784375 -3 13 C-3.66 13 -4.32 13 -5 13 C-4.54554036 11.58208592 -4.08625056 10.16571954 -3.625 8.75 C-3.24214844 7.56664062 -3.24214844 7.56664062 -2.8515625 6.359375 C-2.04826333 4.13372042 -1.10288338 2.09068328 0 0 Z " fill="#62D5C6" transform="translate(230,217)"/>
<path d="M0 0 C1 2 1 2 0.22265625 4.8203125 C-0.16019531 5.91085938 -0.54304687 7.00140625 -0.9375 8.125 C-1.31777344 9.22070312 -1.69804687 10.31640625 -2.08984375 11.4453125 C-2.39019531 12.28835937 -2.69054687 13.13140625 -3 14 C-3.33 14 -3.66 14 -4 14 C-3.67 10.37 -3.34 6.74 -3 3 C-2.34 3 -1.68 3 -1 3 C-0.67 2.01 -0.34 1.02 0 0 Z " fill="#A1E787" transform="translate(202,104)"/>
<path d="M0 0 C1.41750563 0.11509661 2.83401169 0.24253658 4.25 0.375 C5.03890625 0.44460937 5.8278125 0.51421875 6.640625 0.5859375 C9.085877 1.01507113 10.84836903 1.78600638 13 3 C13 3.33 13 3.66 13 4 C11.02 4 9.04 4 7 4 C7 3.34 7 2.68 7 2 C4.69 2 2.38 2 0 2 C0 1.34 0 0.68 0 0 Z " fill="#8DC5E1" transform="translate(246,6)"/>
<path d="M0 0 C5.28 0 10.56 0 16 0 C16 0.33 16 0.66 16 1 C15.09636719 1.04898437 14.19273437 1.09796875 13.26171875 1.1484375 C12.08222656 1.22320312 10.90273437 1.29796875 9.6875 1.375 C7.92986328 1.47941406 7.92986328 1.47941406 6.13671875 1.5859375 C2.84300113 1.78613747 2.84300113 1.78613747 0 4 C0 2.68 0 1.36 0 0 Z " fill="#F2E966" transform="translate(201,326)"/>
<path d="M0 0 C2.7710688 2.34591852 3.52059284 4.14776201 4.1875 7.6875 C4.34605469 8.49574219 4.50460937 9.30398437 4.66796875 10.13671875 C4.77753906 10.75160156 4.88710938 11.36648437 5 12 C2.13285809 10.56642904 1.39661301 8.85670843 0 6 C-0.1875 2.6875 -0.1875 2.6875 0 0 Z " fill="#7BBDDE" transform="translate(337,75)"/>
<path d="M0 0 C1.28485596 5.13942384 0.22194431 6.37835584 -2 11 C-2.99 11 -3.98 11 -5 11 C-3.35 7.37 -1.7 3.74 0 0 Z " fill="#90C8E4" transform="translate(74,68)"/>
<path d="M0 0 C5.61 0 11.22 0 17 0 C17 0.33 17 0.66 17 1 C12.38 1 7.76 1 3 1 C3 1.66 3 2.32 3 3 C2.01 2.67 1.02 2.34 0 2 C0 1.34 0 0.68 0 0 Z " fill="#FDFAA4" transform="translate(81,323)"/>
<path d="M0 0 C2.67901932 2.31881505 3.66204403 4.31814468 4.6875 7.6875 C4.93886719 8.49574219 5.19023437 9.30398437 5.44921875 10.13671875 C5.63097656 10.75160156 5.81273437 11.36648437 6 12 C2.46804227 9.64536151 1.62378295 7.86614989 0 4 C0 2.68 0 1.36 0 0 Z " fill="#6DB5D8" transform="translate(331,63)"/>
<path d="M0 0 C0.66 0.33 1.32 0.66 2 1 C-0.65654657 4.73884332 -2.58110387 6.64978174 -7 8 C-5.50902342 4.2047869 -3.24299151 2.38957269 0 0 Z " fill="#6EB5DA" transform="translate(97,37)"/>
<path d="M0 0 C0 0.66 0 1.32 0 2 C-0.66 2.66 -1.32 3.32 -2 4 C-1.01 4.66 -0.02 5.32 1 6 C-0.65 5.67 -2.3 5.34 -4 5 C-4.33 4.01 -4.66 3.02 -5 2 C-5.99 1.67 -6.98 1.34 -8 1 C-2.25 0 -2.25 0 0 0 Z " fill="#F7F184" transform="translate(99,326)"/>
<path d="M0 0 C5.57142857 5.14285714 5.57142857 5.14285714 6 9 C2.56225537 7.85408512 1.82586841 7.04311402 0 4 C0 2.68 0 1.36 0 0 Z " fill="#81BFDE" transform="translate(324,52)"/>
<path d="M0 0 C-1.24176695 0.70226141 -2.49385599 1.38629109 -3.75 2.0625 C-4.79414063 2.63677734 -4.79414063 2.63677734 -5.859375 3.22265625 C-8.36140628 4.1312406 -9.5332355 3.88336837 -12 3 C-10.75823305 2.29773859 -9.50614401 1.61370891 -8.25 0.9375 C-7.20585937 0.36322266 -7.20585937 0.36322266 -6.140625 -0.22265625 C-3.63859372 -1.1312406 -2.4667645 -0.88336837 0 0 Z " fill="#98DFA2" transform="translate(234,77)"/>
<path d="M0 0 C3.68802044 1.22934015 4.72356973 2.93859378 7 6 C6.67 6.66 6.34 7.32 6 8 C1.3125 4.38671875 1.3125 4.38671875 0 3 C0 2.01 0 1.02 0 0 Z " fill="#87C3E2" transform="translate(317,44)"/>
<path d="M0 0 C2.375 0.25 2.375 0.25 5 1 C6.3125 3.0625 6.3125 3.0625 7 5 C4.0625 4.1875 4.0625 4.1875 1 3 C0.67 2.01 0.34 1.02 0 0 Z " fill="#D9DC82" transform="translate(89,327)"/>
<path d="M0 0 C0.66 0.33 1.32 0.66 2 1 C0.25 4.875 0.25 4.875 -2 6 C-2.66 5.67 -3.32 5.34 -4 5 C-4 4.01 -4 3.02 -4 2 C-2.125 0.9375 -2.125 0.9375 0 0 Z " fill="#3895CB" transform="translate(11,276)"/>
</svg>
