<?xml version="1.0" standalone="no"?>
<!DOCTYPE svg PUBLIC "-//W3C//DTD SVG 20010904//EN"
 "http://www.w3.org/TR/2001/REC-SVG-20010904/DTD/svg10.dtd">
<svg version="1.0" xmlns="http://www.w3.org/2000/svg"
 width="820.000000pt" height="391.000000pt" viewBox="0 0 820.000000 391.000000"
 preserveAspectRatio="xMidYMid meet">

<g transform="translate(0.000000,391.000000) scale(0.100000,-0.100000)"
fill="#000000" stroke="none">
<path d="M3945 3483 c-71 -10 -233 -56 -318 -89 -344 -132 -620 -385 -782
-717 -72 -148 -107 -256 -137 -432 -11 -66 -25 -124 -32 -128 -6 -4 -30 -5
-53 -2 -35 5 -60 -1 -130 -30 -178 -72 -333 -186 -386 -284 -27 -48 -28 -58
-30 -194 l-2 -142 35 -65 c38 -70 137 -175 219 -230 45 -31 51 -39 51 -71 0
-120 59 -256 151 -348 182 -182 466 -199 676 -41 l52 40 88 -88 c99 -99 160
-134 279 -160 153 -33 320 18 447 137 l66 62 34 -53 c39 -62 142 -160 196
-187 91 -47 216 -67 316 -51 181 28 345 163 405 331 10 30 22 54 27 53 4 0 43
-17 85 -38 146 -72 306 -72 453 -1 154 74 285 272 285 431 0 17 20 48 61 92
89 98 108 136 119 233 18 158 14 214 -22 281 -38 72 -120 147 -229 212 -96 57
-149 76 -192 69 -21 -3 -37 0 -44 9 -6 7 -16 61 -22 119 -25 231 -120 481
-259 679 -65 92 -261 284 -367 358 -104 74 -231 137 -361 180 -166 56 -223 64
-444 67 -113 2 -218 1 -235 -2z m485 -123 c470 -96 848 -427 1009 -883 42
-121 39 -140 -8 -37 -83 184 -197 341 -339 466 l-64 57 -28 -16 c-37 -22 -130
-22 -201 0 -30 9 -56 17 -59 17 -3 1 -39 20 -81 43 -94 52 -175 130 -189 183
-6 22 -18 41 -28 44 -80 25 -372 34 -492 16 -306 -48 -575 -185 -796 -405
-109 -109 -237 -301 -286 -432 -33 -90 -33 -45 1 56 163 486 598 840 1116 910
109 15 325 6 445 -19z m-168 -322 c3 -7 27 -13 59 -14 32 -1 73 -11 99 -23 24
-11 52 -21 61 -21 10 0 25 -3 34 -6 14 -6 13 -10 -9 -33 -23 -24 -25 -30 -15
-64 20 -74 114 -86 150 -18 17 32 17 34 -2 67 -10 19 -17 34 -15 34 3 0 11 3
20 6 9 3 16 1 16 -6 0 -6 -5 -8 -11 -4 -8 4 -9 -1 -4 -17 10 -32 12 -34 29
-20 10 8 16 9 21 1 3 -5 1 -10 -4 -10 -34 0 9 -49 57 -64 12 -4 22 -14 22 -22
0 -8 7 -14 16 -14 9 0 22 -8 29 -17 7 -9 21 -18 31 -19 10 -2 20 -7 22 -12 2
-6 19 -27 38 -48 20 -22 42 -47 51 -56 9 -10 19 -15 23 -13 4 2 5 -7 2 -22 -4
-21 -2 -25 12 -20 9 4 16 3 17 -1 5 -44 13 -67 29 -85 11 -11 20 -27 20 -36 0
-8 7 -23 16 -33 13 -14 14 -21 5 -32 -10 -11 -8 -15 6 -19 15 -4 14 -5 -3 -6
-12 0 -36 -14 -53 -30 -16 -15 -32 -27 -33 -26 -4 5 -10 -44 -12 -92 -1 -53
25 -90 83 -120 28 -14 55 -20 82 -18 29 3 39 0 39 -11 0 -8 -4 -14 -10 -14
-17 0 -11 -28 8 -39 11 -7 13 -13 6 -18 -6 -5 -15 -39 -19 -78 -8 -69 -11 -83
-14 -87 -4 -5 -13 -64 -15 -93 0 -19 -9 -34 -21 -41 -11 -6 -19 -16 -17 -22 1
-7 -6 -12 -15 -12 -16 0 -16 -2 -3 -11 12 -8 9 -10 -12 -6 -17 2 -25 0 -21 -6
4 -6 0 -8 -11 -4 -9 4 -15 3 -12 -2 7 -11 -129 -61 -233 -86 -93 -22 -329 -17
-434 10 -64 17 -127 58 -127 83 0 19 53 73 110 112 72 49 116 99 149 170 22
47 26 69 26 150 0 83 -3 102 -28 155 -15 33 -35 67 -43 76 -12 14 -13 24 -3
63 24 98 -7 208 -79 280 -46 47 -86 68 -120 64 -23 -3 -27 -7 -25 -33 3 -36
26 -55 66 -55 37 0 84 -49 93 -96 7 -41 0 -112 -13 -125 -6 -6 -32 1 -64 15
-32 15 -84 28 -126 32 l-71 7 -21 58 c-39 106 -163 199 -266 199 -53 0 -67
-18 -44 -59 14 -24 20 -26 81 -26 57 0 70 -4 93 -25 38 -35 65 -93 65 -137 0
-35 -4 -40 -45 -62 -60 -32 -131 -109 -163 -179 -37 -82 -38 -203 -1 -282 33
-71 76 -120 142 -161 120 -75 145 -124 86 -173 -39 -33 -169 -72 -286 -86 -88
-11 -98 -10 -215 19 -131 32 -282 84 -273 93 3 3 -6 9 -20 12 -14 4 -23 10
-20 15 4 8 -22 25 -35 23 -3 0 -6 7 -6 16 -4 75 -9 114 -16 118 -4 3 -8 25 -8
49 0 25 -5 45 -12 47 -10 4 -9 28 1 112 11 90 11 110 0 117 -16 10 -12 14 21
23 20 6 22 5 10 -4 -12 -10 -10 -10 10 -5 14 4 33 7 43 6 9 0 15 4 12 10 -4 5
2 9 13 9 41 0 82 68 83 140 1 40 -4 57 -25 85 -15 19 -32 35 -37 35 -6 0 -7 5
-3 11 4 8 -1 9 -17 4 -22 -7 -21 -6 5 18 15 15 29 40 33 61 3 20 9 36 14 36 4
0 11 9 14 20 4 11 11 18 16 15 5 -4 9 1 9 9 0 9 4 15 8 14 9 -3 72 65 72 78 0
14 69 88 76 82 3 -3 -5 -15 -17 -27 -13 -12 -19 -21 -13 -21 12 1 54 36 54 47
0 12 108 83 128 83 13 0 14 2 4 9 -16 9 27 30 72 35 15 2 31 8 35 15 5 7 14
14 22 15 75 15 97 21 117 34 12 8 22 12 22 9 0 -4 19 2 43 13 33 15 67 19 164
19 85 1 123 -3 125 -11z m358 -33 c0 0 -9 -8 -19 -17 -18 -16 -20 -15 -18 1 0
9 9 17 19 17 10 0 18 -1 18 -1z m-435 -827 c87 -68 53 -201 -55 -215 -54 -8
-103 17 -124 62 -20 41 -20 68 -1 109 31 65 125 88 180 44z m260 -53 c37 -36
34 -86 -6 -119 -34 -29 -45 -31 -84 -16 -34 13 -59 69 -46 104 22 57 94 74
136 31z m-1724 -363 c-23 -43 -377 -370 -388 -358 -11 11 371 376 393 376 3 0
0 -8 -5 -18z m3026 -217 c90 -85 121 -125 95 -125 -11 0 -252 219 -252 229 0
17 14 20 33 6 11 -8 67 -57 124 -110z m-2714 101 c-3 -5 0 -6 8 -4 11 4 144
-45 158 -58 5 -4 -34 -87 -142 -308 -52 -107 -81 -155 -87 -147 -4 8 -13 10
-21 6 -11 -6 -11 -5 -2 5 8 9 9 19 3 31 -12 22 -11 126 2 159 13 33 26 140 17
140 -7 0 -20 53 -13 59 2 2 8 -7 13 -20 9 -22 10 -21 8 11 -1 21 2 34 9 33 6
-1 11 3 11 10 1 7 6 27 11 44 9 27 8 34 -6 42 -13 7 -11 9 10 8 14 -1 24 -6
21 -11z m2247 4 c-8 -5 -11 -12 -7 -16 11 -11 -23 -44 -45 -44 -16 0 -17 -3
-8 -20 8 -14 8 -20 0 -20 -12 0 -4 -40 10 -50 20 -15 30 -95 29 -222 0 -36 4
-69 9 -72 4 -2 7 -23 6 -45 -1 -23 2 -44 7 -47 5 -3 9 0 9 6 0 6 4 8 10 5 6
-4 5 -11 -3 -20 -10 -12 -14 -11 -25 3 -7 9 -11 25 -8 34 2 10 0 21 -5 24 -5
3 -9 -2 -9 -10 0 -9 -9 -16 -20 -16 -16 0 -34 29 -89 143 -83 171 -85 177 -65
177 17 0 9 47 -13 68 -24 24 -14 37 50 60 34 12 85 33 112 46 50 24 83 34 55
16z m-1679 -177 l91 -17 -5 -48 c-4 -28 -2 -48 4 -50 19 -6 -58 -385 -78 -381
-6 1 -14 -13 -17 -33 -7 -33 -9 -34 -39 -30 -261 43 -489 92 -495 107 -2 4
-10 5 -18 2 -20 -7 -18 0 21 83 19 40 35 78 35 84 0 5 5 10 10 10 6 0 10 6 10
14 0 8 17 50 39 93 21 43 57 117 79 164 l41 87 115 -34 c63 -18 156 -41 207
-51z m1368 -15 c18 -40 51 -108 72 -151 22 -43 39 -84 39 -92 0 -7 3 -15 8
-17 9 -4 86 -168 80 -173 -12 -12 -293 -74 -445 -98 -88 -14 -99 -13 -104 17
-3 14 -32 40 -46 41 -1 0 -15 67 -32 148 -33 159 -38 213 -19 201 8 -5 9 8 5
49 l-7 56 37 6 c84 14 281 56 323 69 25 8 47 14 50 15 3 1 20 -32 39 -71z
m-2265 -9 c-3 -5 -6 -28 -6 -50 -1 -76 73 -108 140 -61 36 26 56 17 39 -18
-16 -32 -72 -60 -121 -60 -32 0 -45 7 -73 37 -33 35 -35 40 -31 94 5 65 22 96
44 78 8 -6 11 -15 8 -20z m256 -21 c0 -25 -3 -29 -10 -18 -13 20 -13 50 0 50
6 0 10 -15 10 -32z m2606 -4 c9 -36 -1 -97 -21 -128 -10 -15 -34 -31 -56 -38
-34 -10 -46 -9 -85 8 -49 20 -81 61 -70 89 5 15 10 13 41 -14 37 -32 79 -40
115 -21 24 13 43 70 34 104 -5 22 -3 26 15 26 14 0 23 -8 27 -26z m-1395 1
l235 0 52 -259 c29 -143 50 -261 48 -263 -9 -9 -248 -23 -406 -23 -157 0 -397
14 -406 23 -2 2 20 123 49 270 l52 266 70 -7 c39 -4 176 -7 306 -7z m-1234
-62 c-3 -10 -5 -2 -5 17 0 19 2 27 5 18 2 -10 2 -26 0 -35z m2360 -195 c-3 -8
-6 -5 -6 6 -1 11 2 17 5 13 3 -3 4 -12 1 -19z m-2359 -20 c-1 -18 -8 -44 -15
-58 -12 -23 -13 -21 -7 20 7 53 11 70 19 70 3 0 4 -15 3 -32z m-37 -31 c-10
-9 -11 -8 -5 6 3 10 9 15 12 12 3 -3 0 -11 -7 -18z m-101 -191 c66 -24 114
-47 113 -54 -4 -15 13 -16 22 -2 4 6 11 7 17 4 26 -16 -33 -21 -94 -9 -62 14
-176 64 -147 66 11 0 11 2 -1 6 -18 7 -45 33 -33 32 4 0 60 -19 123 -43z
m2012 -176 c-72 -65 -152 -94 -239 -84 -40 4 -60 10 -56 17 4 6 0 8 -10 4 -10
-3 -17 -3 -17 2 0 5 -10 11 -22 14 -12 4 -19 10 -14 14 8 9 305 51 348 50 25
-1 26 -2 10 -17z"/>
<path d="M3545 2810 c-3 -5 -1 -10 4 -10 6 0 11 5 11 10 0 6 -2 10 -4 10 -3 0
-8 -4 -11 -10z"/>
<path d="M3585 2803 c-100 -24 -136 -103 -76 -164 77 -76 192 7 146 105 -9 19
-26 37 -38 40 -18 5 -20 8 -7 16 16 10 9 11 -25 3z"/>
<path d="M4859 2051 c-24 -25 -29 -38 -29 -79 0 -40 5 -54 26 -75 85 -86 227
-4 188 108 -19 56 -46 75 -106 75 -41 0 -54 -5 -79 -29z"/>
<path d="M3513 2040 c-26 -11 -43 -40 -43 -74 0 -63 89 -90 129 -40 12 15 21
37 21 49 0 49 -59 85 -107 65z"/>
<path d="M3258 1683 c7 -3 16 -2 19 1 4 3 -2 6 -13 5 -11 0 -14 -3 -6 -6z"/>
<path d="M5188 1563 c7 -3 16 -2 19 1 4 3 -2 6 -13 5 -11 0 -14 -3 -6 -6z"/>
<path d="M5201 1314 c0 -11 3 -14 6 -6 3 7 2 16 -1 19 -3 4 -6 -2 -5 -13z"/>
<path d="M5206 1273 c-6 -14 -5 -15 5 -6 7 7 10 15 7 18 -3 3 -9 -2 -12 -12z"/>
<path d="M4025 1264 c-45 -23 -63 -43 -75 -80 -15 -44 -6 -74 20 -67 14 4 20
0 20 -10 0 -27 50 -76 84 -83 42 -7 90 16 110 54 8 15 24 35 35 44 26 22 26
44 1 86 -40 66 -128 91 -195 56z"/>
</g>
</svg>
