<svg xmlns="http://www.w3.org/2000/svg" width="64" height="64" viewBox="0 0 64 64">
  <defs>
    <linearGradient id="ga" x1="0" y1="0" x2="1" y2="1">
      <stop offset="0" stop-color="#9d79ff"/>
      <stop offset="1" stop-color="#5bc0ff"/>
    </linearGradient>
  </defs>
  <rect width="64" height="64" fill="none"/>
  <g>
    <path d="M32 10c8 0 16 6 16 14 0 5-3 8-6 10l2 6-6-3c-2 1-4 1-6 1s-4 0-6-1l-6 3 2-6c-3-2-6-5-6-10 0-8 8-14 16-14z" fill="url(#ga)" stroke="#1a1640" stroke-width="1.5"/>
    <ellipse cx="24" cy="26" rx="3" ry="4" fill="#141427"/>
    <ellipse cx="40" cy="26" rx="3" ry="4" fill="#141427"/>
  </g>
</svg>


