<?xml version="1.0" standalone="no"?>
<!DOCTYPE svg PUBLIC "-//W3C//DTD SVG 20010904//EN"
 "http://www.w3.org/TR/2001/REC-SVG-20010904/DTD/svg10.dtd">
<svg version="1.0" xmlns="http://www.w3.org/2000/svg"
 width="146.000000pt" height="142.000000pt" viewBox="0 0 146.000000 142.000000"
 preserveAspectRatio="xMidYMid meet">

<g transform="translate(0.000000,142.000000) scale(0.100000,-0.100000)"
fill="#000000" stroke="none">
<path d="M727 1403 c-2 -4 -8 -27 -12 -50 -5 -34 -4 -44 9 -49 13 -5 16 -20
14 -68 l-1 -61 -7 60 -7 60 -1 -59 c-1 -40 -8 -66 -19 -79 -18 -20 -18 -20 10
-2 27 17 28 17 48 -1 39 -35 87 -148 119 -279 20 -82 40 -198 35 -203 -1 -2
-14 0 -28 3 -22 6 -27 14 -30 48 l-4 42 -1 -46 c-1 -32 -7 -49 -18 -53 -24 -9
-42 -6 -19 4 13 6 15 9 5 9 -8 0 -21 -3 -29 -8 -11 -7 -9 -12 10 -22 13 -7 28
-13 33 -14 17 0 18 -99 1 -120 -16 -20 -16 -20 -6 2 18 37 12 71 -18 105 -23
26 -36 33 -69 33 -22 0 -51 -7 -66 -14 -27 -15 -52 -73 -40 -92 4 -7 1 -10 -7
-7 -8 2 -15 18 -17 35 -2 24 3 36 24 52 l27 21 -52 0 c-28 0 -51 -4 -51 -8 0
-4 15 -7 33 -6 18 1 22 -1 9 -3 -20 -4 -21 -7 -10 -21 10 -12 10 -14 1 -8 -9
5 -13 -2 -13 -26 -1 -28 -2 -30 -11 -15 -6 10 -8 25 -5 33 3 9 1 12 -4 9 -14
-9 -12 -59 3 -74 10 -10 9 -11 -5 -6 -10 4 -18 15 -18 25 0 10 -6 18 -12 17
-43 -1 -48 3 -38 29 6 14 9 40 9 57 -1 25 -3 22 -9 -16 -5 -27 -14 -55 -22
-64 -11 -14 -14 -6 -19 58 l-5 74 -2 -70 -2 -71 -144 -23 c-140 -23 -185 -23
-170 0 4 7 -7 4 -24 -6 -17 -10 -28 -23 -25 -28 3 -6 1 -7 -6 -3 -6 4 -23 -2
-37 -13 -22 -18 -24 -21 -8 -21 24 0 207 28 261 41 23 5 53 9 67 9 25 0 26 -1
21 -62 -2 -34 -8 -64 -12 -68 -4 -4 -25 -13 -45 -20 -36 -11 -60 -30 -39 -30
6 0 7 -8 4 -17 -6 -15 -5 -16 9 -3 11 10 12 17 5 22 -7 4 0 11 16 17 36 14 60
14 52 1 -3 -5 1 -10 10 -10 9 0 14 -4 10 -9 -3 -5 0 -13 6 -17 8 -4 9 -3 5 4
-4 7 -2 12 3 12 6 0 13 0 16 0 3 0 6 -3 6 -7 1 -5 5 -18 10 -31 14 -38 -13
-89 -53 -100 -75 -20 -111 4 -112 78 -1 27 -2 50 -4 50 -1 0 -7 -10 -13 -22
-8 -21 -9 -20 -5 7 4 26 3 28 -9 12 -10 -14 -14 -15 -19 -5 -3 7 -3 -3 0 -22
4 -19 13 -40 22 -46 11 -8 12 -13 4 -18 -7 -4 -11 -17 -11 -29 1 -17 2 -18 6
-5 2 10 8 18 12 18 9 0 54 -30 66 -46 14 -16 88 -3 123 23 37 28 62 81 62 133
0 46 -19 96 -21 55 0 -16 -3 -14 -11 8 -5 15 -14 27 -20 27 -6 0 -7 -7 -4 -16
3 -8 2 -13 -3 -9 -5 3 -12 -1 -14 -7 -4 -10 -6 -10 -6 0 -2 26 19 51 37 46 14
-5 15 -4 2 5 -13 9 -12 17 10 58 29 55 54 67 64 29 4 -15 13 -26 21 -26 7 0
17 -5 21 -11 4 -8 0 -9 -15 -4 -16 5 -21 2 -21 -12 0 -10 4 -14 8 -8 9 13 65
17 72 5 10 -16 121 -32 177 -26 29 3 69 12 88 20 34 15 35 14 35 -9 0 -13 -3
-31 -6 -40 -9 -22 -57 -45 -91 -44 -22 1 -19 3 15 11 23 5 40 13 37 19 -3 5 1
6 9 3 10 -4 16 -1 16 9 0 9 3 23 6 32 6 16 5 16 -24 1 -18 -9 -34 -16 -37 -16
-3 -1 -12 -3 -21 -7 -13 -5 -13 -8 -2 -15 10 -7 9 -8 -5 -4 -9 3 -28 1 -42 -4
-22 -8 -25 -7 -25 12 0 27 -7 20 -12 -12 -2 -20 2 -26 27 -31 21 -5 11 -7 -35
-8 -108 -2 -179 27 -181 73 -1 18 -2 19 -6 3 -7 -27 32 -63 82 -76 24 -6 81
-11 127 -11 132 1 186 35 180 115 -2 27 17 85 29 85 5 0 20 -23 35 -52 22 -44
24 -53 12 -62 -23 -17 -48 -72 -48 -106 0 -43 22 -90 56 -120 26 -23 26 -22
-4 13 -18 21 -32 45 -32 55 1 13 4 11 14 -7 7 -13 15 -20 18 -15 3 5 4 4 2 -2
-1 -7 8 -22 21 -34 14 -13 22 -27 19 -31 -5 -9 17 -15 74 -22 27 -3 41 2 68
28 19 18 34 30 35 26 3 -19 17 51 18 90 1 33 -6 56 -21 79 -22 31 -81 80 -65
53 6 -9 3 -11 -7 -7 -9 3 -13 11 -9 18 5 8 3 8 -8 0 -11 -9 -17 -9 -26 1 -10
11 -10 15 0 18 9 4 9 6 0 6 -7 1 -13 10 -13 21 0 25 -5 26 185 -10 88 -16 164
-30 169 -30 22 0 -27 36 -152 111 -76 45 -153 93 -172 106 -36 24 -55 30 -45
13 3 -5 1 -10 -4 -10 -6 0 -11 8 -11 18 0 9 -9 23 -19 29 -19 12 -20 27 -23
232 -3 206 -7 245 -25 227 -12 -12 -15 -246 -4 -296 9 -40 10 -37 7 35 -3 62
-2 71 4 40 12 -57 12 -158 0 -150 -5 3 -10 -3 -10 -14 0 -23 -37 -38 -53 -22
-8 8 -4 11 16 11 22 0 27 4 26 23 -1 16 -2 18 -6 5 -5 -19 -57 -26 -67 -9 -4
5 -17 48 -31 96 -29 99 -77 211 -105 240 -15 17 -19 39 -22 132 -2 66 -8 117
-14 123 -7 7 -14 8 -17 3z m280 -345 c-3 -7 -5 -2 -5 12 0 14 2 19 5 13 2 -7
2 -19 0 -25z m10 -280 c-3 -8 -6 -5 -6 6 -1 11 2 17 5 13 3 -3 4 -12 1 -19z
m152 -137 c15 -11 58 -38 97 -60 73 -43 81 -55 12 -20 -22 11 -48 22 -57 24
-9 2 -36 8 -60 14 -25 5 -49 8 -53 5 -13 -8 -9 5 8 31 20 30 19 30 53 6z
m-395 -7 c9 -3 16 -11 16 -17 0 -7 -4 -7 -12 1 -18 18 -28 14 -28 -12 0 -40
-11 -56 -37 -56 -15 0 -22 -4 -17 -11 4 -7 -1 -10 -12 -7 -28 5 -31 61 -5 87
21 21 63 27 95 15z m-69 -124 c3 -5 2 -10 -4 -10 -5 0 -13 5 -16 10 -3 6 -2
10 4 10 5 0 13 -4 16 -10z m325 -99 c0 -11 -9 -23 -21 -26 -28 -9 -31 -3 -13
23 19 27 34 28 34 3z m137 3 c-3 -3 -12 -4 -19 -1 -8 3 -5 6 6 6 11 1 17 -2
13 -5z m3 -61 c14 -9 27 -18 29 -19 2 -2 7 -22 11 -44 6 -33 4 -45 -12 -65
-28 -35 -99 -35 -133 0 -14 13 -25 30 -24 37 2 28 14 59 23 58 5 -1 12 3 15 9
13 20 58 19 92 -1 l34 -20 -18 20 c-10 11 -35 25 -55 30 -30 8 -32 10 -12 11
14 1 37 -7 50 -16z m-97 -8 c-13 -9 -27 -23 -32 -33 -6 -10 -11 -12 -11 -4 0
15 36 52 52 52 7 0 3 -7 -9 -15z m164 -47 c-3 -8 -6 -5 -6 6 -1 11 2 17 5 13
3 -3 4 -12 1 -19z"/>
<path d="M455 1174 c-3 -16 -8 -37 -10 -47 -2 -9 3 -24 11 -31 11 -11 14 -47
14 -150 0 -75 3 -135 8 -135 4 1 22 -4 40 -12 24 -10 32 -20 32 -38 0 -34 6
-23 13 24 4 22 4 34 1 28 -9 -20 -42 -15 -65 8 -19 19 -20 30 -17 189 1 118
-1 173 -9 181 -9 9 -13 5 -18 -17z"/>
<path d="M643 1055 c-19 -42 -34 -77 -32 -80 2 -2 21 32 41 76 20 43 34 79 32
79 -3 0 -21 -34 -41 -75z"/>
<path d="M454 915 c0 -82 2 -115 3 -72 2 43 2 110 0 150 -1 40 -3 5 -3 -78z"/>
<path d="M711 1013 c-13 -25 -38 -119 -45 -169 -5 -37 -3 -42 20 -52 33 -15
73 -15 104 1 21 10 24 19 22 47 -5 51 -28 143 -41 168 -14 26 -47 29 -60 5z
m45 -20 c4 -16 10 -32 14 -38 15 -21 20 -46 8 -39 -6 4 -4 -3 5 -17 9 -13 17
-41 17 -62 0 -34 -3 -39 -20 -34 -11 3 -18 1 -14 -4 9 -15 -64 -10 -79 6 -16
16 -10 66 20 162 18 58 39 69 49 26z"/>
<path d="M781 844 c0 -11 3 -14 6 -6 3 7 2 16 -1 19 -3 4 -6 -2 -5 -13z"/>
<path d="M596 934 c-4 -14 -5 -28 -3 -31 3 -2 8 8 11 23 4 14 5 28 3 31 -3 2
-8 -8 -11 -23z"/>
<path d="M832 905 c0 -16 3 -52 8 -80 6 -41 7 -44 8 -15 0 19 -3 55 -7 80 -6
33 -9 37 -9 15z"/>
<path d="M571 844 c0 -11 3 -14 6 -6 3 7 2 16 -1 19 -3 4 -6 -2 -5 -13z"/>
<path d="M536 738 c6 -57 -5 -140 -17 -132 -5 3 -6 -2 -3 -10 21 -55 43 65 26
141 l-11 48 5 -47z"/>
<path d="M431 731 c-10 -6 -10 -10 -1 -16 13 -8 24 -1 19 14 -3 6 -10 7 -18 2z"/>
<path d="M337 675 c-82 -52 -99 -68 -38 -34 28 15 46 20 48 13 20 -58 58 -53
50 6 -3 21 0 43 6 49 18 18 6 12 -66 -34z m51 -20 c-1 -14 -6 -25 -11 -25 -5
0 -7 7 -4 15 4 8 2 17 -4 20 -5 4 -7 11 -3 16 10 16 24 -1 22 -26z"/>
<path d="M678 663 c7 -3 16 -2 19 1 4 3 -2 6 -13 5 -11 0 -14 -3 -6 -6z"/>
<path d="M218 604 c-38 -20 -36 -28 2 -9 17 9 30 18 30 20 0 7 -1 6 -32 -11z"/>
<path d="M154 564 c-18 -14 -18 -15 4 -4 12 6 22 13 22 15 0 8 -5 6 -26 -11z"/>
<path d="M308 445 c-45 -24 -88 -67 -88 -89 0 -6 9 3 20 21 12 20 42 44 77 62
32 17 54 30 48 30 -5 0 -31 -11 -57 -24z"/>
<path d="M243 153 c4 -3 1 -13 -6 -22 -11 -14 -10 -14 5 -2 16 12 16 31 1 31
-4 0 -3 -3 0 -7z"/>
</g>
</svg>
