<?xml version="1.0" encoding="UTF-8"?>
<svg version="1.1" xmlns="http://www.w3.org/2000/svg" width="146" height="142">
<path d="M0 0 C0.99 0 1.98 0 3 0 C4.69067416 5.78080511 5.08333966 10.46657875 4.75 16.4375 C4.56927195 22.91510048 5.14740634 26.69266732 9.34765625 31.8515625 C15.34208718 39.64573984 17.51867835 50.62919869 20 60 C21.98 60.495 21.98 60.495 24 61 C25.86964076 57.81971189 26.24725953 55.49415546 26.23046875 51.82421875 C26.22853516 50.83099609 26.22660156 49.83777344 26.22460938 48.81445312 C26.21236328 47.78255859 26.20011719 46.75066406 26.1875 45.6875 C26.18685547 44.66720703 26.18621094 43.64691406 26.18554688 42.59570312 C26.16076999 38.33683213 26.12073729 34.21413366 25.3671875 30.015625 C24.80987919 25.43858232 26.49318787 23.72223619 29 20 C29.66 20.33 30.32 20.66 31 21 C32.08632905 27.42573883 32.04633632 34.05996946 32 40.5625 C31.97270026 46.60939158 32.05074098 52.64421225 32.25 58.6875 C32.26417969 59.56156494 32.27835937 60.43562988 32.29296875 61.33618164 C32.36379657 66.16838477 32.36379657 66.16838477 34.921875 70.0546875 C36.93887596 71.05997123 36.93887596 71.05997123 39 71.4375 C41 72 41 72 42.82446289 73.85107422 C45.03899249 76.03851553 47.10888553 77.414119 49.80859375 78.9453125 C50.72060547 79.46480469 51.63261719 79.98429687 52.57226562 80.51953125 C53.51779297 81.04933594 54.46332031 81.57914062 55.4375 82.125 C56.37916016 82.66253906 57.32082031 83.20007813 58.29101562 83.75390625 C63.36717476 86.65527946 63.36717476 86.65527946 68.69165039 89.04638672 C71.49813649 90.20578753 72.55425504 91.34946758 74 94 C73.67 94.99 73.34 95.98 73 97 C72.14768799 96.84853516 71.29537598 96.69707031 70.41723633 96.54101562 C67.240254 95.97852641 64.06262749 95.41987188 60.88452148 94.86376953 C59.51185714 94.62278098 58.13945616 94.38028706 56.76733398 94.13623047 C54.78960765 93.78473032 52.81082755 93.43917579 50.83203125 93.09375 C49.64327393 92.88427734 48.4545166 92.67480469 47.22973633 92.45898438 C44.42318587 92.0601398 41.82694707 91.90677833 39 92 C39 92.66 39 93.32 39 94 C39.86625 94.226875 40.7325 94.45375 41.625 94.6875 C46.65011133 96.64170996 49.88561423 99.32842134 52.875 103.8125 C54.86729361 109.45733188 54.03104104 114.79247005 53.4375 120.625 C53.03697058 124.62473129 53.04029104 128.05452983 54 132 C53.01 132 52.02 132 51 132 C51 131.34 51 130.68 51 130 C50.34 130 49.68 130 49 130 C49 129.34 49 128.68 49 128 C48.05898437 127.90203125 47.11796875 127.8040625 46.1484375 127.703125 C37.55224831 126.6708704 33.00691544 125.78430902 26.75 119.875 C23.64892339 114.78037415 22.4741137 109.4103122 23.75 103.5625 C25 101 25 101 27 98 C27.66 98 28.32 98 29 98 C27.68 95.03 26.36 92.06 25 89 C22.50584854 91.49415146 22.78528995 92.37955815 22.6875 95.8125 C22.36671144 99.51760783 22.10783187 100.84315365 19.9375 104 C11.99556641 109.40727394 1.15741328 109.16297845 -8.01953125 107.4296875 C-15.43808615 105.36596066 -15.43808615 105.36596066 -18 102 C-18.4765625 99.9140625 -18.4765625 99.9140625 -18.625 97.625 C-18.88713956 94.34558063 -19.27366489 91.2166269 -20 88 C-20.66 88 -21.32 88 -22 88 C-22 88.99 -22 89.98 -22 91 C-22.66 91 -23.32 91 -24 91 C-23.979375 91.804375 -23.95875 92.60875 -23.9375 93.4375 C-24 96 -24 96 -25 97 C-24.525625 97.350625 -24.05125 97.70125 -23.5625 98.0625 C-20.46405396 101.90457309 -20.85721111 106.77928565 -21.1875 111.5 C-21.83934267 116.21580003 -23.10453419 119.19017657 -26 123 C-31.26733291 126.13798556 -37.13411077 126.98898908 -43.109375 128.15625 C-46.06716538 129.01960503 -47.02635137 129.75153954 -49 132 C-49.66 132 -50.32 132 -51 132 C-51 130.68 -51 129.36 -51 128 C-50.34 128 -49.68 128 -49 128 C-49.144375 127.24976562 -49.28875 126.49953125 -49.4375 125.7265625 C-52.48580525 108.91854603 -52.48580525 108.91854603 -49.25 102.5625 C-47.26658219 100.30360749 -45.57133985 98.54280391 -43 97 C-42.34 97 -41.68 97 -41 97 C-40.67 96.34 -40.34 95.68 -40 95 C-39.01 94.34 -38.02 93.68 -37 93 C-40.40942055 91.87520658 -42.88699278 92.13247617 -46.39453125 92.77734375 C-47.43287109 92.96103516 -48.47121094 93.14472656 -49.54101562 93.33398438 C-50.62060547 93.53314453 -51.70019531 93.73230469 -52.8125 93.9375 C-65.71070057 96.29607258 -65.71070057 96.29607258 -72 96 C-69.8897089 89.66912669 -61.76079197 86.72166184 -56.1640625 83.73828125 C-51.8907999 81.39062464 -47.72897483 78.87250949 -43.56640625 76.33496094 C-40.1692315 74.27186189 -36.7420788 72.28416304 -33.26416016 70.35961914 C-32.06226547 69.69392662 -32.06226547 69.69392662 -30.83609009 69.01478577 C-30.23018036 68.67990646 -29.62427063 68.34502716 -29 68 C-29.01571045 66.12296387 -29.01571045 66.12296387 -29.03173828 64.20800781 C-29.06794765 59.5638312 -29.09090396 54.91966707 -29.10986328 50.27539062 C-29.1199187 48.26560365 -29.13356485 46.2558313 -29.15087891 44.24609375 C-29.17514724 41.35673412 -29.18648771 38.46756798 -29.1953125 35.578125 C-29.20563507 34.68007141 -29.21595764 33.78201782 -29.22659302 32.85675049 C-29.22681961 31.5958963 -29.22681961 31.5958963 -29.22705078 30.30957031 C-29.231492 29.57232727 -29.23593323 28.83508423 -29.24050903 28.07550049 C-28.96463374 25.69480274 -28.17901432 24.06983569 -27 22 C-26.01 22 -25.02 22 -24 22 C-22.40358351 26.92458583 -21.75979341 31.01593201 -21.8046875 36.24609375 C-21.8075174 36.90207047 -21.81034729 37.55804718 -21.81326294 38.23390198 C-21.82434016 40.30196409 -21.84941937 42.36957173 -21.875 44.4375 C-21.88504598 45.85090515 -21.89416898 47.26431717 -21.90234375 48.67773438 C-21.92423816 52.11863394 -21.95867949 55.55927252 -22 59 C-20.35 59.33 -18.7 59.66 -17 60 C-16.82460693 59.43192627 -16.64921387 58.86385254 -16.46850586 58.27856445 C-7.93682045 30.93682045 -7.93682045 30.93682045 -2 25 C-1.97339879 21.56084363 -2.02805613 18.13468535 -2.12695312 14.69726562 C-2.20502613 9.44800397 -1.46086797 5.04715562 0 0 Z " fill="#677179" transform="translate(72,0)"/>
<path d="M0 0 C0.66 0.33 1.32 0.66 2 1 C3.08632905 7.42573883 3.04633632 14.05996946 3 20.5625 C2.97270026 26.60939158 3.05074098 32.64421225 3.25 38.6875 C3.26417969 39.56156494 3.27835938 40.43562988 3.29296875 41.33618164 C3.36379657 46.16838477 3.36379657 46.16838477 5.921875 50.0546875 C7.93887596 51.05997123 7.93887596 51.05997123 10 51.4375 C12 52 12 52 13.82446289 53.85107422 C16.03899249 56.03851553 18.10888553 57.414119 20.80859375 58.9453125 C21.72060547 59.46480469 22.63261719 59.98429687 23.57226562 60.51953125 C24.51779297 61.04933594 25.46332031 61.57914063 26.4375 62.125 C27.37916016 62.66253906 28.32082031 63.20007813 29.29101562 63.75390625 C34.36717476 66.65527946 34.36717476 66.65527946 39.69165039 69.04638672 C42.49813649 70.20578753 43.55425504 71.34946758 45 74 C44.505 75.485 44.505 75.485 44 77 C43.14768799 76.84853516 42.29537598 76.69707031 41.41723633 76.54101562 C38.240254 75.97852641 35.06262749 75.41987188 31.88452148 74.86376953 C30.51185714 74.62278098 29.13945616 74.38028706 27.76733398 74.13623047 C25.78960765 73.78473032 23.81082755 73.43917579 21.83203125 73.09375 C20.64327393 72.88427734 19.4545166 72.67480469 18.22973633 72.45898438 C15.42318587 72.0601398 12.82694707 71.90677833 10 72 C10 72.66 10 73.32 10 74 C10.86625 74.226875 11.7325 74.45375 12.625 74.6875 C17.65011133 76.64170996 20.88561423 79.32842134 23.875 83.8125 C25.86729361 89.45733188 25.03104104 94.79247005 24.4375 100.625 C24.03697058 104.62473129 24.04029104 108.05452983 25 112 C24.01 112 23.02 112 22 112 C22 111.34 22 110.68 22 110 C21.34 110 20.68 110 20 110 C20 109.34 20 108.68 20 108 C19.05898437 107.90203125 18.11796875 107.8040625 17.1484375 107.703125 C8.55224831 106.6708704 4.00691544 105.78430902 -2.25 99.875 C-5.35107661 94.78037415 -6.5258863 89.4103122 -5.25 83.5625 C-4 81 -4 81 -2 78 C-1.34 78 -0.68 78 0 78 C-1.32 75.03 -2.64 72.06 -4 69 C-6.49415146 71.49415146 -6.21471005 72.37955815 -6.3125 75.8125 C-6.63328856 79.51760783 -6.89216813 80.84315365 -9.0625 84 C-17.00443359 89.40727394 -27.84258672 89.16297845 -37.01953125 87.4296875 C-44.43808615 85.36596066 -44.43808615 85.36596066 -47 82 C-47.4765625 79.9140625 -47.4765625 79.9140625 -47.625 77.625 C-47.88713956 74.34558063 -48.27366489 71.2166269 -49 68 C-50.98 68.495 -50.98 68.495 -53 69 C-53 68.01 -53 67.02 -53 66 C-50.03 65.505 -50.03 65.505 -47 65 C-47 66.32 -47 67.64 -47 69 C-46.67 67.68 -46.34 66.36 -46 65 C-45.34 65 -44.68 65 -44 65 C-43.67 66.32 -43.34 67.64 -43 69 C-42.01 68.01 -41.02 67.02 -40 66 C-39.34 66.99 -38.68 67.98 -38 69 C-37.9175 67.7625 -37.835 66.525 -37.75 65.25 C-37.37084242 62.47279384 -36.98437497 60.97282604 -35.5625 58.5 C-31.55661878 56.15509392 -27.53150506 56.68867522 -23 57 C-23 57.33 -23 57.66 -23 58 C-23.71027344 58.12117188 -24.42054687 58.24234375 -25.15234375 58.3671875 C-26.53099609 58.61855469 -26.53099609 58.61855469 -27.9375 58.875 C-29.31228516 59.11863281 -29.31228516 59.11863281 -30.71484375 59.3671875 C-31.46894531 59.57601562 -32.22304687 59.78484375 -33 60 C-34.38550197 62.77100394 -34.1877467 64.9334706 -34 68 C-33.34 68.99 -32.68 69.98 -32 71 C-29.86286699 71.40171173 -29.86286699 71.40171173 -27.5 71.25 C-26.7059375 71.23453125 -25.911875 71.2190625 -25.09375 71.203125 C-22.94264672 71.12080522 -22.94264672 71.12080522 -21 70 C-18.875 70.9375 -18.875 70.9375 -17 72 C-17.01160156 71.15695313 -17.02320313 70.31390625 -17.03515625 69.4453125 C-17.04417969 68.34960938 -17.05320313 67.25390625 -17.0625 66.125 C-17.07410156 65.03445312 -17.08570313 63.94390625 -17.09765625 62.8203125 C-17 60 -17 60 -16 58 C-16.99 58.33 -17.98 58.66 -19 59 C-19.66 58.01 -20.32 57.02 -21 56 C-19.35 56 -17.7 56 -16 56 C-15.505 55.01 -15.505 55.01 -15 54 C-12.03 54.495 -12.03 54.495 -9 55 C-10.61488086 46.32270684 -12.23299635 37.64792375 -14 29 C-13.34 29 -12.68 29 -12 29 C-11.01 32.63 -10.02 36.26 -9 40 C-7.68 40.33 -6.36 40.66 -5 41 C-3.13035924 37.81971189 -2.75274047 35.49415546 -2.76953125 31.82421875 C-2.77146484 30.83099609 -2.77339844 29.83777344 -2.77539062 28.81445312 C-2.78763672 27.78255859 -2.79988281 26.75066406 -2.8125 25.6875 C-2.81314453 24.66720703 -2.81378906 23.64691406 -2.81445312 22.59570312 C-2.83923001 18.33683213 -2.87926271 14.21413366 -3.6328125 10.015625 C-4.19012081 5.43858232 -2.50681213 3.72223619 0 0 Z " fill="#445666" transform="translate(101,20)"/>
<path d="M0 0 C0.99 0 1.98 0 3 0 C4.69067416 5.78080511 5.08333966 10.46657875 4.75 16.4375 C4.56949295 22.90717941 5.14420148 26.68460443 9.3359375 31.83984375 C14.4765252 38.51295407 16.41309453 46.36337003 16.82421875 54.62109375 C16.90999007 57.13941337 16.90999007 57.13941337 18 59.9375 C19.57215398 64.75222156 19.57938295 69.95259541 20 75 C1.685 74.505 1.685 74.505 -17 74 C-13.22222222 36.22222222 -13.22222222 36.22222222 -2 25 C-1.97339879 21.56084363 -2.02805613 18.13468535 -2.12695312 14.69726562 C-2.20502613 9.44800397 -1.46086797 5.04715562 0 0 Z " fill="#E6E9E4" transform="translate(72,0)"/>
<path d="M0 0 C0.66 0 1.32 0 2 0 C2.18175781 0.75925781 2.36351562 1.51851562 2.55078125 2.30078125 C2.80214844 3.29464844 3.05351563 4.28851563 3.3125 5.3125 C3.55613281 6.29863281 3.79976562 7.28476562 4.05078125 8.30078125 C4.76007937 10.99476448 4.76007937 10.99476448 6.48632812 12.36328125 C8.44253781 14.47851185 8.67199957 16.06482512 9.16796875 18.88671875 C9.33876953 19.82451172 9.50957031 20.76230469 9.68554688 21.72851562 C9.85119141 22.70498047 10.01683594 23.68144531 10.1875 24.6875 C10.36474609 25.67556641 10.54199219 26.66363281 10.72460938 27.68164062 C11.16034822 30.11942279 11.58501819 32.5586135 12 35 C12.99 34.67 13.98 34.34 15 34 C15 23.44 15 12.88 15 2 C15.33 2 15.66 2 16 2 C16.33 11.9 16.66 21.8 17 32 C17.99 32.33 18.98 32.66 20 33 C19.34 33 18.68 33 18 33 C18 34.32 18 35.64 18 37 C19.65 37.33 21.3 37.66 23 38 C23 38.33 23 38.66 23 39 C17.5814234 39.22577402 13.22512279 38.46670113 8 37 C7.98582031 38.02480469 7.97164062 39.04960938 7.95703125 40.10546875 C7.91010984 41.46618971 7.86186256 42.82686541 7.8125 44.1875 C7.80669922 44.86103516 7.80089844 45.53457031 7.79492188 46.22851562 C7.62552695 50.08695556 7.1058001 51.86836911 4.6640625 54.90625 C-2.23715169 60.33007816 -11.63823565 59.61800274 -20 59 C-29.84913718 57.13974899 -29.84913718 57.13974899 -33 53 C-33.4765625 50.9140625 -33.4765625 50.9140625 -33.625 48.625 C-33.88713956 45.34558063 -34.27366489 42.2166269 -35 39 C-36.98 39.495 -36.98 39.495 -39 40 C-39 39.01 -39 38.02 -39 37 C-36.03 36.505 -36.03 36.505 -33 36 C-33 37.32 -33 38.64 -33 40 C-32.67 38.68 -32.34 37.36 -32 36 C-31.34 36 -30.68 36 -30 36 C-29.67 37.32 -29.34 38.64 -29 40 C-28.01 39.01 -27.02 38.02 -26 37 C-25.34 37.99 -24.68 38.98 -24 40 C-23.9175 38.7625 -23.835 37.525 -23.75 36.25 C-23.37084242 33.47279384 -22.98437497 31.97282604 -21.5625 29.5 C-17.55661878 27.15509392 -13.53150506 27.68867522 -9 28 C-9 28.33 -9 28.66 -9 29 C-9.71027344 29.12117188 -10.42054687 29.24234375 -11.15234375 29.3671875 C-12.07144531 29.53476563 -12.99054688 29.70234375 -13.9375 29.875 C-15.31228516 30.11863281 -15.31228516 30.11863281 -16.71484375 30.3671875 C-17.46894531 30.57601562 -18.22304687 30.78484375 -19 31 C-20.38550197 33.77100394 -20.1877467 35.9334706 -20 39 C-19.34 39.99 -18.68 40.98 -18 42 C-15.86286699 42.40171173 -15.86286699 42.40171173 -13.5 42.25 C-12.30890625 42.22679688 -12.30890625 42.22679688 -11.09375 42.203125 C-8.94264672 42.12080522 -8.94264672 42.12080522 -7 41 C-4.875 41.9375 -4.875 41.9375 -3 43 C-3.01160156 42.15695313 -3.02320313 41.31390625 -3.03515625 40.4453125 C-3.04417969 39.34960938 -3.05320313 38.25390625 -3.0625 37.125 C-3.07410156 36.03445312 -3.08570313 34.94390625 -3.09765625 33.8203125 C-3 31 -3 31 -2 29 C-2.99 29.33 -3.98 29.66 -5 30 C-5.66 29.01 -6.32 28.02 -7 27 C-5.35 27 -3.7 27 -2 27 C-1.67 26.34 -1.34 25.68 -1 25 C0.98 25.33 2.96 25.66 5 26 C3.38511914 17.32270684 1.76700365 8.64792375 0 0 Z " fill="#1A2129" transform="translate(87,49)"/>
<path d="M0 0 C0.99 0 1.98 0 3 0 C4.59641649 4.92458583 5.24020659 9.01593201 5.1953125 14.24609375 C5.1924826 14.90207047 5.18965271 15.55804718 5.18673706 16.23390198 C5.17565984 18.30196409 5.15058063 20.36957173 5.125 22.4375 C5.11495402 23.85090515 5.10583102 25.26431717 5.09765625 26.67773438 C5.07576184 30.11863394 5.04132051 33.55927252 5 37 C6.65 37.33 8.3 37.66 10 38 C10.99 36.68 11.98 35.36 13 34 C12.31836936 40.13467578 11.22043166 45.89784169 10 52 C19.9 52 29.8 52 40 52 C40 52.66 40 53.32 40 54 C38.02 54.495 38.02 54.495 36 55 C37.32 55.33 38.64 55.66 40 56 C40.02694851 57.95825873 40.04637218 59.91662226 40.0625 61.875 C40.07410156 62.96554688 40.08570313 64.05609375 40.09765625 65.1796875 C40 68 40 68 39 70 C37.7934375 69.7215625 37.7934375 69.7215625 36.5625 69.4375 C35.716875 69.293125 34.87125 69.14875 34 69 C33.67 69.33 33.34 69.66 33 70 C29.96525629 70.36876368 27.03285669 70.38798707 24 70 C21.23904371 67.82470111 21.06626787 66.45440825 20.5625 63 C21.09116436 59.37487294 22.20647362 58.26974019 25 56 C22.525 56.495 22.525 56.495 20 57 C19.67 60.63 19.34 64.26 19 68 C18.01 67.01 17.02 66.02 16 65 C15.01 65.99 14.02 66.98 13 68 C12.505 65.525 12.505 65.525 12 63 C11.34 63 10.68 63 10 63 C10.33 64.32 10.66 65.64 11 67 C10.34 67 9.68 67 9 67 C8.67 66.01 8.34 65.02 8 64 C6.35 64 4.7 64 3 64 C3.66 64.66 4.32 65.32 5 66 C5 66.99 5 67.98 5 69 C4.34 69 3.68 69 3 69 C2.505 69.99 2.505 69.99 2 71 C0.37355431 65.94388432 -0.37230623 61.24603895 -0.58203125 55.9296875 C-0.61843216 55.15760956 -0.65483307 54.38553162 -0.69233704 53.59005737 C-0.80662782 51.06037319 -0.90554117 48.53049917 -1 46 C-1.03333435 45.12734497 -1.0666687 44.25468994 -1.10101318 43.35559082 C-1.30426227 37.87695132 -1.47081852 32.39804157 -1.61254883 26.91748047 C-1.66319257 25.03062986 -1.71865521 23.14390337 -1.77856445 21.25732422 C-1.86646013 18.48683347 -1.94069782 15.71628096 -2.01171875 12.9453125 C-2.05530769 11.68293259 -2.05530769 11.68293259 -2.09977722 10.39505005 C-2.12519341 9.22134354 -2.12519341 9.22134354 -2.15112305 8.02392578 C-2.17031296 7.34097443 -2.18950287 6.65802307 -2.20927429 5.95437622 C-1.95981612 3.62472976 -1.14721821 2.02504327 0 0 Z " fill="#89949B" transform="translate(45,22)"/>
<path d="M0 0 C1.98 0 3.96 0 6 0 C4.02 0.99 4.02 0.99 2 2 C2 2.66 2 3.32 2 4 C2.86625 4.226875 3.7325 4.45375 4.625 4.6875 C9.65011133 6.64170996 12.88561423 9.32842134 15.875 13.8125 C17.86729361 19.45733188 17.03104104 24.79247005 16.4375 30.625 C16.03697058 34.62473129 16.04029104 38.05452983 17 42 C16.01 42 15.02 42 14 42 C14 41.34 14 40.68 14 40 C13.34 40 12.68 40 12 40 C12 39.34 12 38.68 12 38 C11.05898437 37.90203125 10.11796875 37.8040625 9.1484375 37.703125 C0.55224831 36.6708704 -3.99308456 35.78430902 -10.25 29.875 C-13.35107661 24.78037415 -14.5258863 19.4103122 -13.25 13.5625 C-12 11 -12 11 -10 8 C-8.68 8.33 -7.36 8.66 -6 9 C-5.67 11.31 -5.34 13.62 -5 16 C-2.3534665 16 -0.4191837 15.01860366 2 14 C1.814375 13.236875 1.62875 12.47375 1.4375 11.6875 C1 9 1 9 2 6 C1.01 5.67 0.02 5.34 -1 5 C-0.67 3.35 -0.34 1.7 0 0 Z " fill="#617985" transform="translate(109,90)"/>
<path d="M0 0 C2.47035712 2.47035712 2.35042281 3.3960007 2.4375 6.8125 C2.34549744 10.5629571 2.14333874 11.78499189 0 15 C-8.03268681 20.35512454 -18.7749589 20.17575162 -28.01953125 18.4296875 C-35.46575471 16.3582637 -35.46575471 16.3582637 -38 13 C-38.51171875 10.73828125 -38.51171875 10.73828125 -38.6875 8.3125 C-38.75324219 7.50425781 -38.81898437 6.69601563 -38.88671875 5.86328125 C-38.92410156 5.24839844 -38.96148437 4.63351563 -39 4 C-35.28574649 2.88334809 -33.49360475 3.20598675 -30 5 C-29.67 5.66 -29.34 6.32 -29 7 C-24.53351439 8.06632314 -20.19991621 8.10565959 -15.625 8.0625 C-14.37976563 8.05347656 -13.13453125 8.04445313 -11.8515625 8.03515625 C-10.91054687 8.02355469 -9.96953125 8.01195313 -9 8 C-9 7.34 -9 6.68 -9 6 C-8.43410156 5.73445313 -7.86820313 5.46890625 -7.28515625 5.1953125 C-6.55167969 4.84210938 -5.81820312 4.48890625 -5.0625 4.125 C-4.33160156 3.77695313 -3.60070312 3.42890625 -2.84765625 3.0703125 C-0.83667541 2.1315023 -0.83667541 2.1315023 0 0 Z " fill="#717275" transform="translate(92,89)"/>
<path d="M0 0 C0.99 0 1.98 0 3 0 C4.69067416 5.78080511 5.08333966 10.46657875 4.75 16.4375 C4.56949295 22.90717941 5.14420148 26.68460443 9.3359375 31.83984375 C14.4765252 38.51295407 16.41309453 46.36337003 16.82421875 54.62109375 C16.90999007 57.13941337 16.90999007 57.13941337 18 59.9375 C19.59668875 64.82735931 19.6856469 69.88762594 20 75 C17.125 75.125 17.125 75.125 14 75 C11.16572789 72.16572789 11.66206624 70.08751957 11.5 66.125 C11.20880264 60.17799147 10.48002389 54.47383468 9.41015625 48.609375 C8.89632834 45.34045076 8.8500253 42.29944332 9 39 C9.66 39.66 10.32 40.32 11 41 C8.78560745 34.7403205 6.58775423 29.84262946 2 25 C-6.17744168 33.17744168 -9.63019398 44.14173615 -13 55 C-13.33 55 -13.66 55 -14 55 C-13.46886588 45.79367524 -10.04480367 37.76448402 -4.6875 30.3125 C-1.34910622 25.07130672 -1.53231391 20.2530046 -1.86987305 14.23950195 C-2.15257814 9.07666797 -1.45352998 4.97554493 0 0 Z " fill="#5B5B5C" transform="translate(72,0)"/>
<path d="M0 0 C1.50416548 3.00833096 0.60839737 5.34961578 0.0625 8.625 C-0.13214844 9.81351563 -0.32679687 11.00203125 -0.52734375 12.2265625 C-0.68332031 13.14179687 -0.83929688 14.05703125 -1 15 C-2.65 15.33 -4.3 15.66 -6 16 C-6.33 16.99 -6.66 17.98 -7 19 C-7.99 19.66 -8.98 20.32 -10 21 C-10.2502157 24.08365871 -10.2502157 24.08365871 -10 27 C-9.5875 26.34 -9.175 25.68 -8.75 25 C-8.1725 24.34 -7.595 23.68 -7 23 C-5.68 23 -4.36 23 -3 23 C-3 25.64 -3 28.28 -3 31 C-1.35 30.67 0.3 30.34 2 30 C2.33 29.01 2.66 28.02 3 27 C3.66 27 4.32 27 5 27 C3.55172414 31.5862069 3.55172414 31.5862069 1.25 33.3125 C-1.57109421 34.17450101 -4.06759551 34.13329111 -7 34 C-6.34 35.32 -5.68 36.64 -5 38 C-6.85625 38.680625 -6.85625 38.680625 -8.75 39.375 C-11.59245495 40.4384007 -14.32663046 41.55192483 -17 43 C-17 41.68 -17 40.36 -17 39 C-16.34 39 -15.68 39 -15 39 C-15.144375 38.24976563 -15.28875 37.49953125 -15.4375 36.7265625 C-18.48580525 19.91854603 -18.48580525 19.91854603 -15.25 13.5625 C-13.26658219 11.30360749 -11.57133985 9.54280391 -9 8 C-8.34 8 -7.68 8 -7 8 C-6.67 7.34 -6.34 6.68 -6 6 C-5.01 5.34 -4.02 4.68 -3 4 C-4.32 3.01 -5.64 2.02 -7 1 C-3.535 0.505 -3.535 0.505 0 0 Z " fill="#A2B8C2" transform="translate(38,89)"/>
<path d="M0 0 C0.66 0.33 1.32 0.66 2 1 C3.08632905 7.42573883 3.04633632 14.05996946 3 20.5625 C2.97270026 26.60939158 3.05074098 32.64421225 3.25 38.6875 C3.26417969 39.56156494 3.27835938 40.43562988 3.29296875 41.33618164 C3.36216766 46.15829819 3.36216766 46.15829819 5.90625 50.0390625 C7.93982728 50.97238341 9.79854298 51.60688268 12 52 C11.67 52.66 11.34 53.32 11 54 C10.01 54 9.02 54 8 54 C6.29467677 55.94009522 6.29467677 55.94009522 5 58 C4.01 57.67 3.02 57.34 2 57 C2 59.31 2 61.62 2 64 C0.02 64.495 0.02 64.495 -2 65 C-3.60760148 61.34085688 -4.46344743 57.94669931 -5.0625 54 C-5.51856957 51.0449707 -5.96757107 48.13954267 -6.64453125 45.2265625 C-6.76183594 44.49179688 -6.87914063 43.75703125 -7 43 C-5.625 41.375 -5.625 41.375 -4 40 C-3.00614018 37.01842054 -2.87107371 35.03417492 -2.8671875 31.921875 C-2.86589844 30.92542969 -2.86460938 29.92898437 -2.86328125 28.90234375 C-2.86714844 27.86207031 -2.87101562 26.82179688 -2.875 25.75 C-2.87113281 24.72519531 -2.86726563 23.70039062 -2.86328125 22.64453125 C-2.86966335 16.29818952 -2.86966335 16.29818952 -3.62890625 10.01171875 C-4.19258258 5.43704033 -2.50561669 3.72046114 0 0 Z " fill="#696A6C" transform="translate(101,20)"/>
<path d="M0 0 C1.67542976 0.28604898 3.34385343 0.61781233 5 1 C9.16951788 13.50855365 9.16951788 13.50855365 9.25 18.0625 C9.28867188 19.37927734 9.28867188 19.37927734 9.328125 20.72265625 C9.21984375 21.47417969 9.1115625 22.22570312 9 23 C5.74917327 25.16721782 4.70767847 25.27221018 0.9375 25.25 C0.05964844 25.25515625 -0.81820312 25.2603125 -1.72265625 25.265625 C-4 25 -4 25 -6 23 C-5.69239172 16.3029282 -5.08911727 5.08911727 0 0 Z " fill="#BA7027" transform="translate(72,39)"/>
<path d="M0 0 C4.92041625 2.65099978 9.83117116 5.31489928 14.671875 8.109375 C15.28724121 8.46451172 15.90260742 8.81964844 16.53662109 9.18554688 C17.73916565 9.88184093 18.94008588 10.58094982 20.13916016 11.28320312 C22.65041428 12.73720119 25.09806961 14.03903609 27.796875 15.11328125 C30.55458922 16.22321233 31.58599713 17.4076614 33 20 C32.505 21.485 32.505 21.485 32 23 C24.41 21.68 16.82 20.36 9 19 C9 18.67 9 18.34 9 18 C10.89575251 17.97278824 12.79161979 17.95350864 14.6875 17.9375 C15.74324219 17.92589844 16.79898438 17.91429688 17.88671875 17.90234375 C20.72410262 17.99134575 23.2438919 18.35060162 26 19 C25.67 18.34 25.34 17.68 25 17 C22.12961352 16.60206839 22.12961352 16.60206839 18.6875 16.5 C12.01110206 16.12338268 5.56621152 15.23868093 -1 14 C-1 13.01 -1 12.02 -1 11 C-1.99 10.34 -2.98 9.68 -4 9 C-3.71125 8.443125 -3.4225 7.88625 -3.125 7.3125 C-1.95859537 4.91489049 -0.97854138 2.47924559 0 0 Z " fill="#6A757F" transform="translate(113,74)"/>
<path d="M0 0 C1.32 0 2.64 0 4 0 C4 4.95 4 9.9 4 15 C0.33471994 15.67518317 -3.33191697 16.34036903 -7 17 C-8.02996094 17.19078125 -9.05992188 17.3815625 -10.12109375 17.578125 C-15.84590269 18.59911003 -21.18558138 19.22363149 -27 19 C-25.80010777 15.4003233 -25.01596192 15.13132335 -21.81640625 13.30078125 C-20.97142578 12.81416016 -20.12644531 12.32753906 -19.25585938 11.82617188 C-18.36705078 11.32666016 -17.47824219 10.82714844 -16.5625 10.3125 C-15.67755859 9.80138672 -14.79261719 9.29027344 -13.88085938 8.76367188 C-7.2831275 5 -7.2831275 5 -5 5 C-4.34 6.32 -3.68 7.64 -3 9 C-2.34 9 -1.68 9 -1 9 C-0.67 6.03 -0.34 3.06 0 0 Z " fill="#BECECD" transform="translate(40,71)"/>
<path d="M0 0 C0.33 0 0.66 0 1 0 C1.00257812 0.845625 1.00515625 1.69125 1.0078125 2.5625 C1.24571534 9.54098341 1.79206248 13.75850088 6.4296875 19.0234375 C9.19718213 22.5069009 10.89370846 26.70453699 12 31 C11.505 32.485 11.505 32.485 11 34 C10.34 32.35 9.68 30.7 9 29 C9.14213297 30.89611434 9.28886907 32.79188394 9.4375 34.6875 C9.55931641 36.27111328 9.55931641 36.27111328 9.68359375 37.88671875 C9.93345474 40.89207151 9.93345474 40.89207151 10.5 43.375 C11.19162288 47.00602013 11.36154368 50.62610452 11.5625 54.3125 C11.60568359 55.05306641 11.64886719 55.79363281 11.69335938 56.55664062 C11.79870432 58.37091464 11.89978316 60.1854355 12 62 C4.25 62.125 4.25 62.125 2 61 C1.55671447 55.59191656 1.55671447 55.59191656 2 53 C2.825 52.54625 3.65 52.0925 4.5 51.625 C7.18789592 50.29616196 7.18789592 50.29616196 7.4375 47.95703125 C7.60998174 41.00386113 6.11698449 34.23396898 3 28 C2.01 27.34 1.02 26.68 0 26 C0.66 25.67 1.32 25.34 2 25 C1.855625 24.36835937 1.71125 23.73671875 1.5625 23.0859375 C-0.04606729 15.33353682 -0.20755772 7.89872441 0 0 Z " fill="#C6C8C0" transform="translate(73,12)"/>
<path d="M0 0 C0.66 0.66 1.32 1.32 2 2 C1.01 2 0.02 2 -1 2 C-1 4.97 -1 7.94 -1 11 C-2.32 11 -3.64 11 -5 11 C-5.495 9.02 -5.495 9.02 -6 7 C-8.92293675 8.57195431 -11.83710603 10.15952415 -14.75 11.75 C-15.575 12.1934375 -16.4 12.636875 -17.25 13.09375 C-21.36052411 15.34790838 -24.91736945 17.37536847 -28 21 C-26.83984375 20.7834375 -26.83984375 20.7834375 -25.65625 20.5625 C-19.69903855 19.50081875 -14.05281237 18.55164353 -8 19 C-7.34 19.66 -6.68 20.32 -6 21 C-7.32 21 -8.64 21 -10 21 C-10 21.66 -10 22.32 -10 23 C-13.85255857 23.6761872 -17.70726957 24.33923092 -21.5625 25 C-22.64853516 25.19078125 -23.73457031 25.3815625 -24.85351562 25.578125 C-30.30913274 26.50674068 -35.46452096 27.25413964 -41 27 C-38.89030247 20.67090741 -30.76695727 17.72520097 -25.171875 14.7421875 C-20.83869249 12.36213898 -16.61693049 9.81082181 -12.390625 7.24707031 C-8.29596536 4.76512414 -4.16590807 2.36068124 0 0 Z " fill="#848483" transform="translate(41,69)"/>
<path d="M0 0 C0 0.66 0 1.32 0 2 C2.31 2.66 4.62 3.32 7 4 C7.08131463 5.43655854 7.13933559 6.8744483 7.1875 8.3125 C7.23970703 9.51326172 7.23970703 9.51326172 7.29296875 10.73828125 C7 13 7 13 5.76171875 14.765625 C2.47192161 17.07067133 -1.16332532 16.58559771 -5 16 C-8 14.5 -8 14.5 -10 12 C-11.19699079 8.34917808 -11.43670351 5.16454268 -10.0625 1.5 C-6.79767157 -0.87442068 -3.96718098 -0.26014302 0 0 Z " fill="#7BDF5B" transform="translate(114,106)"/>
<path d="M0 0 C2.625 2.125 2.625 2.125 4 5 C4.25 8.3125 4.25 8.3125 4 11 C-0.93844285 14.03904175 -5.31111267 14.99276661 -11 14 C-13.76095629 11.82470111 -13.93373213 10.45440825 -14.4375 7 C-14 4 -14 4 -12.625 1.625 C-8.56442471 -0.88868946 -4.64019508 -0.886416 0 0 Z " fill="#4A8593" transform="translate(80,78)"/>
<path d="M0 0 C0.125 6.625 0.125 6.625 -1 10 C-3.475 9.505 -3.475 9.505 -6 9 C-10.6728547 21.68022223 -11.22488181 34.62448492 -12 48 C-14.31 48 -16.62 48 -19 48 C-18.76286373 45.62863731 -18.52474775 43.25743992 -18.28125 40.88671875 C-18.09494142 38.97446821 -17.92800616 37.0602232 -17.78125 35.14453125 C-17.7090625 34.25121094 -17.636875 33.35789063 -17.5625 32.4375 C-17.47162109 31.19806641 -17.47162109 31.19806641 -17.37890625 29.93359375 C-17.25386719 29.29550781 -17.12882812 28.65742187 -17 28 C-16.34 27.67 -15.68 27.34 -15 27 C-14.15354827 24.67151524 -13.40111372 22.36885637 -12.6875 20 C-6.35147722 0 -6.35147722 0 0 0 Z " fill="#E9E8E6" transform="translate(74,26)"/>
<path d="M0 0 C1.95216435 1.95216435 2.84826645 3.53199953 4 6 C4.66 5.34 5.32 4.68 6 4 C6.103125 5.258125 6.20625 6.51625 6.3125 7.8125 C6.70604334 11.4627571 7.45223778 14.79610776 8.5 18.3125 C10.19986896 24.16668287 10.69280498 29.93025012 11 36 C8.125 36.125 8.125 36.125 5 36 C2.16572789 33.16572789 2.66206624 31.08751957 2.5 27.125 C2.20880264 21.17799147 1.48002389 15.47383468 0.41015625 9.609375 C-0.10367166 6.34045076 -0.1499747 3.29944332 0 0 Z " fill="#8D897F" transform="translate(81,39)"/>
<path d="M0 0 C0.66 0 1.32 0 2 0 C2 5.94 2 11.88 2 18 C2.66 18.33 3.32 18.66 4 19 C4.27771418 23.67948398 3.54837397 26.67583336 1.5 30.875 C1.0359375 31.84179688 0.571875 32.80859375 0.09375 33.8046875 C-0.2671875 34.52914062 -0.628125 35.25359375 -1 36 C0.98 36.66 2.96 37.32 5 38 C4.67 38.66 4.34 39.32 4 40 C2.35 39.34 0.7 38.68 -1 38 C-1.33 38.99 -1.66 39.98 -2 41 C-3.65 40.34 -5.3 39.68 -7 39 C-5.515 38.505 -5.515 38.505 -4 38 C-4 37.34 -4 36.68 -4 36 C-4.66 36 -5.32 36 -6 36 C-5.67 31.38 -5.34 26.76 -5 22 C-6.65 21.67 -8.3 21.34 -10 21 C-10 20.34 -10 19.68 -10 19 C-6.32238669 17.82316374 -2.83330292 17.96421654 1 18 C0.9278125 16.95199219 0.855625 15.90398437 0.78125 14.82421875 C0.6874471 13.4453161 0.59370001 12.06640965 0.5 10.6875 C0.45230469 9.99720703 0.40460937 9.30691406 0.35546875 8.59570312 C0.16120511 5.72337641 0 2.87986212 0 0 Z " fill="#474C50" transform="translate(43,68)"/>
<path d="M0 0 C0 0.33 0 0.66 0 1 C-1.06541016 1.18175781 -1.06541016 1.18175781 -2.15234375 1.3671875 C-3.07144531 1.53476563 -3.99054688 1.70234375 -4.9375 1.875 C-5.85402344 2.03742188 -6.77054688 2.19984375 -7.71484375 2.3671875 C-8.46894531 2.57601562 -9.22304687 2.78484375 -10 3 C-11.38550197 5.77100394 -11.1877467 7.9334706 -11 11 C-10.01 12.485 -10.01 12.485 -9 14 C-6.63905774 14.50781107 -6.63905774 14.50781107 -4 14.5625 C0.79236641 14.79236641 0.79236641 14.79236641 3 17 C-0.46222615 18.06723961 -3.64039266 18.10173486 -7.25 18.0625 C-8.32765625 18.05347656 -9.4053125 18.04445313 -10.515625 18.03515625 C-11.33546875 18.02355469 -12.1553125 18.01195313 -13 18 C-12.67 18.66 -12.34 19.32 -12 20 C-13.32 19.67 -14.64 19.34 -16 19 C-16 18.34 -16 17.68 -16 17 C-20.455 16.01 -20.455 16.01 -25 15 C-25.33 13.68 -25.66 12.36 -26 11 C-27.32 11.33 -28.64 11.66 -30 12 C-30 11.01 -30 10.02 -30 9 C-28.02 8.67 -26.04 8.34 -24 8 C-24 9.32 -24 10.64 -24 12 C-23.67 10.68 -23.34 9.36 -23 8 C-22.34 8 -21.68 8 -21 8 C-20.67 9.32 -20.34 10.64 -20 12 C-19.01 11.01 -18.02 10.02 -17 9 C-16.01 10.485 -16.01 10.485 -15 12 C-14.9175 10.7625 -14.835 9.525 -14.75 8.25 C-14.37084242 5.47279384 -13.98437497 3.97282604 -12.5625 1.5 C-8.55661878 -0.84490608 -4.53150506 -0.31132478 0 0 Z " fill="#524A4D" transform="translate(78,77)"/>
<path d="M0 0 C1.32 0 2.64 0 4 0 C4 2.64 4 5.28 4 8 C5.65 7.67 7.3 7.34 9 7 C9.33 6.01 9.66 5.02 10 4 C10.66 4 11.32 4 12 4 C10.55172414 8.5862069 10.55172414 8.5862069 8.25 10.3125 C5.42890579 11.17450101 2.93240449 11.13329111 0 11 C0.66 12.32 1.32 13.64 2 15 C0.7625 15.45375 -0.475 15.9075 -1.75 16.375 C-4.59245495 17.4384007 -7.32663046 18.55192483 -10 20 C-10 18.68 -10 17.36 -10 16 C-9.34 16 -8.68 16 -8 16 C-7.67 13.36 -7.34 10.72 -7 8 C-5.68 7.67 -4.36 7.34 -3 7 C-2.814375 5.824375 -2.814375 5.824375 -2.625 4.625 C-2 2 -2 2 0 0 Z " fill="#A0C58E" transform="translate(31,112)"/>
<path d="M0 0 C2.22941405 0.31073024 4.45852212 0.62365625 6.6875 0.9375 C7.92886719 1.11152344 9.17023438 1.28554687 10.44921875 1.46484375 C13.32474548 1.89822897 16.15644813 2.39649282 19 3 C18.67 5.64 18.34 8.28 18 11 C11.35573245 11.48321946 6.84452648 10.18443566 1 7 C0 6 0 6 -0.0625 2.9375 C-0.041875 1.968125 -0.02125 0.99875 0 0 Z " fill="#E1E3E5" transform="translate(55,95)"/>
<path d="M0 0 C9.9 0 19.8 0 30 0 C30 0.66 30 1.32 30 2 C28.68 2.33 27.36 2.66 26 3 C27.32 3.33 28.64 3.66 30 4 C30.02694851 5.95825873 30.04637218 7.91662226 30.0625 9.875 C30.07410156 10.96554688 30.08570312 12.05609375 30.09765625 13.1796875 C30 16 30 16 29 18 C27.68 17.34 26.36 16.68 25 16 C25.99 15.67 26.98 15.34 28 15 C28.44823695 11.14516221 28.27280781 9.41830531 26.125 6.125 C21.78240118 3.1720328 18.10996905 3.39373249 13 4 C12.01 4.33 11.02 4.66 10 5 C8.77479736 8.00847418 8.77479736 8.00847418 8 11 C7.34 11 6.68 11 6 11 C6 9.68 6 8.36 6 7 C6.66 7 7.32 7 8 7 C8.33 6.01 8.66 5.02 9 4 C6.36 3.67 3.72 3.34 1 3 C0.67 3.66 0.34 4.32 0 5 C0 3.35 0 1.7 0 0 Z " fill="#81807B" transform="translate(55,74)"/>
<path d="M0 0 C0.33 0.99 0.66 1.98 1 3 C4.00778521 4.00259507 6.53820647 4.30314642 9.6875 4.5625 C10.68136719 4.64628906 11.67523438 4.73007812 12.69921875 4.81640625 C13.83810547 4.90728516 13.83810547 4.90728516 15 5 C13.68 5.33 12.36 5.66 11 6 C11 8.64 11 11.28 11 14 C11.66 14.33 12.32 14.66 13 15 C8.38 15 3.76 15 -1 15 C-0.67 10.05 -0.34 5.1 0 0 Z " fill="#E9EBE4" transform="translate(64,59)"/>
<path d="M0 0 C1.32 0 2.64 0 4 0 C4 3.96 4 7.92 4 12 C4.66 12 5.32 12 6 12 C5.4375 13.875 5.4375 13.875 4 16 C0.375 17.25 0.375 17.25 -3 18 C-3 18.66 -3 19.32 -3 20 C-8.96875175 21.70535764 -14.87072738 21.88107833 -20.625 19.5 C-21.40875 19.005 -22.1925 18.51 -23 18 C-19.8703842 17.06839344 -17.13169204 16.92222825 -13.875 17 C-10.29616131 17.15316487 -10.29616131 17.15316487 -7 16 C-7 15.01 -7 14.02 -7 13 C-5.35 13.66 -3.7 14.32 -2 15 C-1.67 11.7 -1.34 8.4 -1 5 C-0.67 5.99 -0.34 6.98 0 8 C0.66 8.33 1.32 8.66 2 9 C2.33 9.33 2.66 9.66 3 10 C3 7.36 3 4.72 3 2 C2.01 2 1.02 2 0 2 C0 1.34 0 0.68 0 0 Z " fill="#2B272C" transform="translate(86,77)"/>
<path d="M0 0 C0.86367188 -0.01675781 1.72734375 -0.03351563 2.6171875 -0.05078125 C5.60477791 0.38200054 6.973228 1.220224 9.125 3.3125 C9.375 6 9.375 6 9.125 8.3125 C8.465 8.3125 7.805 8.3125 7.125 8.3125 C6.795 9.6325 6.465 10.9525 6.125 12.3125 C4.475 12.3125 2.825 12.3125 1.125 12.3125 C1.125 9.6725 1.125 7.0325 1.125 4.3125 C-2.78902949 5.58191497 -4.66572873 6.82417694 -6.875 10.3125 C-7.0703125 4.2578125 -7.0703125 4.2578125 -6.875 2.3125 C-4.37490913 -0.18759087 -3.4537141 0.01537261 0 0 Z " fill="#48C724" transform="translate(33.875,107.6875)"/>
<path d="M0 0 C1.32 0.33 2.64 0.66 4 1 C5 7.75 5 7.75 5 10 C3.68 9.67 2.36 9.34 1 9 C-0.06638956 12.29611317 -0.10806279 13.72699926 1.1875 17 C2.93188054 19.88725056 4.81294894 22.43587118 7 25 C3 25 3 25 0.375 22.625 C-2.7383119 18.55745318 -3.69616662 14.05020343 -4 9 C-3.18215951 5.25156444 -2.12662776 3.18994165 0 0 Z " fill="#3D4F5B" transform="translate(99,98)"/>
<path d="M0 0 C0 0.66 0 1.32 0 2 C2.31 2.66 4.62 3.32 7 4 C7 6.64 7 9.28 7 12 C6.34 12 5.68 12 5 12 C5 12.66 5 13.32 5 14 C2.29120665 15.35439668 -0.00933268 15.06501451 -3 15 C-1.68 14.67 -0.36 14.34 1 14 C1 12.02 1 10.04 1 8 C0.15115234 7.72736328 0.15115234 7.72736328 -0.71484375 7.44921875 C-1.44832031 7.19785156 -2.18179688 6.94648437 -2.9375 6.6875 C-3.66839844 6.44386719 -4.39929688 6.20023437 -5.15234375 5.94921875 C-7 5 -7 5 -8 2 C-4.77208445 -0.1519437 -3.71599191 -0.20086443 0 0 Z " fill="#43BB20" transform="translate(114,106)"/>
<path d="M0 0 C0.99 0.66 1.98 1.32 3 2 C3.38394667 4.77262255 3.60342248 7.34323528 3.6875 10.125 C3.73874023 11.25615234 3.73874023 11.25615234 3.79101562 12.41015625 C3.87354278 14.27291201 3.93844711 16.13643326 4 18 C-3.75 18.125 -3.75 18.125 -6 17 C-6.4404247 11.62681872 -6.4404247 11.62681872 -6 9 C-3.5625 7.375 -3.5625 7.375 -1 6 C-0.10792821 2.9042893 -0.10792821 2.9042893 0 0 Z " fill="#BDBEB8" transform="translate(81,56)"/>
<path d="M0 0 C1.66666667 0.66666667 3.33333333 1.33333333 5 2 C5.86625 2.28875 6.7325 2.5775 7.625 2.875 C10.38982929 4.18465598 11.54023707 5.32376797 13 8 C12.67 8.99 12.34 9.98 12 11 C4.41 9.68 -3.18 8.36 -11 7 C-11 6.67 -11 6.34 -11 6 C-9.10424749 5.97278824 -7.20838021 5.95350864 -5.3125 5.9375 C-4.25675781 5.92589844 -3.20101562 5.91429688 -2.11328125 5.90234375 C0.72410262 5.99134575 3.2438919 6.35060162 6 7 C5.67 6.34 5.34 5.68 5 5 C1.99373534 4.60387521 1.99373534 4.60387521 -1.5625 4.5 C-6.99558582 4.19477046 -11.79882916 3.56035125 -17 2 C-17 1.67 -17 1.34 -17 1 C-11.39 1.33 -5.78 1.66 0 2 C0 1.34 0 0.68 0 0 Z " fill="#77787A" transform="translate(133,86)"/>
<path d="M0 0 C0.66 0 1.32 0 2 0 C2.33 7.92 2.66 15.84 3 24 C1.68 24.33 0.36 24.66 -1 25 C-2.74685308 21.17254549 -3.34886333 17.87557277 -3.625 13.6875 C-3.73714844 12.08455078 -3.73714844 12.08455078 -3.8515625 10.44921875 C-3.90054688 9.64097656 -3.94953125 8.83273438 -4 8 C-3.01 7.34 -2.02 6.68 -1 6 C-0.26656572 2.93443402 -0.26656572 2.93443402 0 0 Z " fill="#69747E" transform="translate(100,60)"/>
<path d="M0 0 C0.66 0.33 1.32 0.66 2 1 C1.2265625 2.175625 1.2265625 2.175625 0.4375 3.375 C-0.036875 4.24125 -0.51125 5.1075 -1 6 C-0.67 6.66 -0.34 7.32 0 8 C1.65 7.34 3.3 6.68 5 6 C4.505 6.7425 4.505 6.7425 4 7.5 C2.55625055 11.10937363 2.87659623 14.11278121 3 18 C3 18.99 3 19.98 3 21 C1.68 20.67 0.36 20.34 -1 20 C-1.33 20.99 -1.66 21.98 -2 23 C-4.06090339 17.07490276 -5.82156785 9.99952941 -3.1015625 4.02734375 C-2 2.375 -2 2.375 0 0 Z " fill="#788584" transform="translate(25,100)"/>
<path d="M0 0 C1.32 0.33 2.64 0.66 4 1 C4.02578125 1.68707031 4.0515625 2.37414062 4.078125 3.08203125 C4.13484375 3.98308594 4.1915625 4.88414063 4.25 5.8125 C4.29640625 6.70582031 4.3428125 7.59914063 4.390625 8.51953125 C4.80838739 11.08925333 4.80838739 11.08925333 6.6875 12.8125 C9.56446701 14.28986144 11.53305709 14.30239082 14.75 14.1875 C15.73484375 14.16042969 16.7196875 14.13335937 17.734375 14.10546875 C18.48203125 14.07066406 19.2296875 14.03585938 20 14 C20.33 13.01 20.66 12.02 21 11 C21.33 11.99 21.66 12.98 22 14 C20.94921875 15.45703125 20.94921875 15.45703125 19 17 C15.64453125 17.51171875 15.64453125 17.51171875 11.8125 17.6875 C9.90404297 17.78611328 9.90404297 17.78611328 7.95703125 17.88671875 C6.98121094 17.92410156 6.00539063 17.96148437 5 18 C4.8865625 17.40058594 4.773125 16.80117187 4.65625 16.18359375 C4.0612581 13.67371209 4.0612581 13.67371209 1.5 11.0625 C-0.91071616 8.1093727 -1.89859011 6.75216595 -2 3 C-1.34 2.01 -0.68 1.02 0 0 Z " fill="#374A54" transform="translate(100,107)"/>
<path d="M0 0 C0.99 0 1.98 0 3 0 C4.66838488 5.05355489 5.19994862 9.0812382 4.9765625 14.46484375 C4.95153656 15.14301651 4.92651062 15.82118927 4.90072632 16.51991272 C4.81936507 18.65968255 4.72246167 20.79840934 4.625 22.9375 C4.56667419 24.39904764 4.50937295 25.86063654 4.453125 27.32226562 C4.31391514 30.8820644 4.16077156 34.44110226 4 38 C3.34 37.67 2.68 37.34 2 37 C2 28.42 2 19.84 2 11 C1.34 11 0.68 11 0 11 C0 7.37 0 3.74 0 0 Z " fill="#745659" transform="translate(45,22)"/>
<path d="M0 0 C0.33 0 0.66 0 1 0 C1 2.97 1 5.94 1 9 C1.66 9 2.32 9 3 9 C3 24.51 3 40.02 3 56 C2.67 56 2.34 56 2 56 C1.67 52.04 1.34 48.08 1 44 C0.67 44 0.34 44 0 44 C-0.16738578 38.05533775 -0.32796884 32.11054603 -0.48217773 26.16552734 C-0.53563266 24.14203921 -0.59096466 22.11859977 -0.64819336 20.09521484 C-0.73000696 17.19118757 -0.80512562 14.28705356 -0.87890625 11.3828125 C-0.90594131 10.47443634 -0.93297638 9.56606018 -0.96083069 8.63015747 C-0.98092697 7.78943695 -1.00102325 6.94871643 -1.02172852 6.08251953 C-1.04171402 5.34083527 -1.06169952 4.599151 -1.08229065 3.83499146 C-1 2 -1 2 0 0 Z " fill="#CED1D5" transform="translate(44,24)"/>
<path d="M0 0 C2.64 0.33 5.28 0.66 8 1 C8.0810206 3.10353495 8.13919907 5.20795952 8.1875 7.3125 C8.22230469 8.48425781 8.25710937 9.65601562 8.29296875 10.86328125 C8 14 8 14 6.48828125 15.91796875 C5.75158203 16.45357422 5.75158203 16.45357422 5 17 C4.34 16.67 3.68 16.34 3 16 C3.33 15.67 3.66 15.34 4 15 C4.23427778 12.98405418 4.41336124 10.961526 4.5625 8.9375 C4.64628906 7.83277344 4.73007813 6.72804688 4.81640625 5.58984375 C4.87699219 4.73519531 4.93757813 3.88054687 5 3 C3.68 3 2.36 3 1 3 C1 3.66 1 4.32 1 5 C1.99 5 2.98 5 4 5 C4 7.64 4 10.28 4 13 C3.01 12.67 2.02 12.34 1 12 C1 10.68 1 9.36 1 8 C0.34 8 -0.32 8 -1 8 C-0.67 6.68 -0.34 5.36 0 4 C-0.99 4.33 -1.98 4.66 -3 5 C-3.66 4.01 -4.32 3.02 -5 2 C-3.35 2 -1.7 2 0 2 C0 1.34 0 0.68 0 0 Z " fill="#554C55" transform="translate(85,74)"/>
<path d="M0 0 C1.98 0 3.96 0 6 0 C4.02 0.99 4.02 0.99 2 2 C2 2.66 2 3.32 2 4 C2.886875 4.2475 3.77375 4.495 4.6875 4.75 C8.10427135 6.03934768 10.2797748 7.59980129 13 10 C12.67 10.99 12.34 11.98 12 13 C11.01 12.67 10.02 12.34 9 12 C8.01 12.99 7.02 13.98 6 15 C3.525 14.01 3.525 14.01 1 13 C1.33 10.69 1.66 8.38 2 6 C1.01 5.67 0.02 5.34 -1 5 C-0.67 3.35 -0.34 1.7 0 0 Z " fill="#5D7081" transform="translate(109,90)"/>
<path d="M0 0 C2.44989101 3.74235319 2.23086143 7.44225419 2.125 11.75 C2.11597656 12.44738281 2.10695313 13.14476562 2.09765625 13.86328125 C2.07419888 15.57566958 2.03833104 17.28788004 2 19 C0.02 19 -1.96 19 -4 19 C-4.09038099 13.84828377 -3.84681133 9.08086796 -3 4 C-2.34 4 -1.68 4 -1 4 C-0.67 2.68 -0.34 1.36 0 0 Z " fill="#F5CE35" transform="translate(74,40)"/>
<path d="M0 0 C0.33 0 0.66 0 1 0 C1.33 1.98 1.66 3.96 2 6 C2.66 5.01 3.32 4.02 4 3 C5.32 3.33 6.64 3.66 8 4 C7.505 5.3921875 7.505 5.3921875 7 6.8125 C5.85032996 9.92029291 5.85032996 9.92029291 6 13 C7.43750191 14.68798827 7.43750191 14.68798827 9 16 C7.54364629 16.22174933 6.08477044 16.42698698 4.625 16.625 C3.40683594 16.79902344 3.40683594 16.79902344 2.1640625 16.9765625 C1.44992188 16.98429687 0.73578125 16.99203125 0 17 C-0.66 16.34 -1.32 15.68 -2 15 C-1.34 15 -0.68 15 0 15 C-0.185625 13.824375 -0.37125 12.64875 -0.5625 11.4375 C-1.08230996 7.38731406 -0.7502354 4.00125547 0 0 Z " fill="#596A7C" transform="translate(105,70)"/>
<path d="M0 0 C2.31 0 4.62 0 7 0 C7.66 1.32 8.32 2.64 9 4 C9 3.01 9 2.02 9 1 C11.9375 1.75 11.9375 1.75 15 3 C16.5924178 6.07867442 15.81627167 8.73491331 15 12 C14.01 12 13.02 12 12 12 C11.67 13.65 11.34 15.3 11 17 C10.34 16.67 9.68 16.34 9 16 C9.66 13.03 10.32 10.06 11 7 C6.60171741 4.8008587 3.81449408 4.48144941 -1 4 C-0.67 2.68 -0.34 1.36 0 0 Z " fill="#4B5E67" transform="translate(32,104)"/>
<path d="M0 0 C0.66 0 1.32 0 2 0 C2.18175781 0.75925781 2.36351563 1.51851562 2.55078125 2.30078125 C2.80214844 3.29464844 3.05351563 4.28851563 3.3125 5.3125 C3.55613281 6.29863281 3.79976563 7.28476562 4.05078125 8.30078125 C4.78344828 11.00588264 4.78344828 11.00588264 6.54296875 12.54296875 C8.62862277 14.62862277 8.70777768 16.0657677 9 19 C8.96609216 21.947096 8.77681891 24.87362109 8.5625 27.8125 C8.51029297 28.60076172 8.45808594 29.38902344 8.40429688 30.20117188 C8.27540731 32.13451529 8.13850506 34.06732164 8 36 C7.67 36 7.34 36 7 36 C6.92652344 34.86111328 6.92652344 34.86111328 6.8515625 33.69921875 C6.77679688 32.70535156 6.70203125 31.71148437 6.625 30.6875 C6.55539063 29.70136719 6.48578125 28.71523437 6.4140625 27.69921875 C6.16134528 24.78471567 6.16134528 24.78471567 4 22 C3.59666663 20.1597915 3.2722055 18.30162159 3 16.4375 C2.15332943 10.9207021 1.13627345 5.46378298 0 0 Z " fill="#2E3234" transform="translate(87,49)"/>
<path d="M0 0 C0.556875 0.28875 1.11375 0.5775 1.6875 0.875 C0.0375 0.875 -1.6125 0.875 -3.3125 0.875 C-3.11778889 2.82499129 -3.11778889 2.82499129 -2.3125 4.875 C-0.31036055 6.0220525 -0.31036055 6.0220525 1.6875 6.875 C1.06101562 7.00777344 0.43453125 7.14054687 -0.2109375 7.27734375 C-1.43683594 7.54224609 -1.43683594 7.54224609 -2.6875 7.8125 C-3.49960938 7.98652344 -4.31171875 8.16054687 -5.1484375 8.33984375 C-7.341963 8.79830693 -7.341963 8.79830693 -9.3125 9.875 C-10.3125 3.125 -10.3125 3.125 -10.3125 0.875 C-10.9725 0.545 -11.6325 0.215 -12.3125 -0.125 C-7.90534518 -4.53215482 -4.91681254 -2.39196286 0 0 Z " fill="#323C4E" transform="translate(113.3125,98.125)"/>
<path d="M0 0 C0.66 0.66 1.32 1.32 2 2 C0.68 2 -0.64 2 -2 2 C-2 2.66 -2 3.32 -2 4 C-10.41826913 5.69882188 -18.41922945 6.24911914 -27 6 C-27 5.67 -27 5.34 -27 5 C-26.29875 4.89042969 -25.5975 4.78085938 -24.875 4.66796875 C-20.33875854 3.90987405 -16.06459942 3.16580435 -11.8125 1.375 C-7.70966292 -0.29151321 -4.4095914 -0.38013719 0 0 Z " fill="#8C3E41" transform="translate(33,88)"/>
<path d="M0 0 C3.3 0 6.6 0 10 0 C8.515 1.98 8.515 1.98 7 4 C6.34 4 5.68 4 5 4 C5 5.32 5 6.64 5 8 C5.99 8.33 6.98 8.66 8 9 C7.67 10.32 7.34 11.64 7 13 C6.34 12.01 5.68 11.02 5 10 C4.01 10.99 3.02 11.98 2 13 C1.67 11.35 1.34 9.7 1 8 C0.34 8 -0.32 8 -1 8 C-0.67 5.36 -0.34 2.72 0 0 Z " fill="#866F75" transform="translate(56,77)"/>
<path d="M0 0 C0.99081765 3.09717126 0.95127938 4.95467667 0.0625 8.0625 C-1.26114678 13.39262125 -1.18373413 18.53901332 -1 24 C-1.66 24 -2.32 24 -3 24 C-3 25.32 -3 26.64 -3 28 C-3.66 28 -4.32 28 -5 28 C-4.505 23.545 -4.505 23.545 -4 19 C-4.66 20.32 -5.32 21.64 -6 23 C-8.0662997 17.28728907 -8.0006709 12.96345767 -7 7 C-6.67 7 -6.34 7 -6 7 C-5.67 8.65 -5.34 10.3 -5 12 C-4.34 10.68 -3.68 9.36 -3 8 C-3.33 7.67 -3.66 7.34 -4 7 C-3.01 6.67 -2.02 6.34 -1 6 C-0.67 4.02 -0.34 2.04 0 0 Z " fill="#556C6F" transform="translate(57,56)"/>
<path d="M0 0 C1.67542976 0.28604898 3.34385343 0.61781233 5 1 C9.125 13.375 9.125 13.375 9.0625 18.1875 C9.05347656 19.08855469 9.04445313 19.98960938 9.03515625 20.91796875 C9.02355469 21.60503906 9.01195313 22.29210937 9 23 C7.68 22.34 6.36 21.68 5 21 C5 15.72 5 10.44 5 5 C4.34 5 3.68 5 3 5 C2.67 4.01 2.34 3.02 2 2 C1.67 2.99 1.34 3.98 1 5 C0.01 5.33 -0.98 5.66 -2 6 C-1.125 1.125 -1.125 1.125 0 0 Z " fill="#AE5A16" transform="translate(72,39)"/>
<path d="M0 0 C1.15627655 3.46882965 0.79427689 4.22094266 -0.375 7.5625 C-2.03122848 12.69756454 -2.66870543 17.63074313 -3 23 C-2.34 22.67 -1.68 22.34 -1 22 C-1.33 24.31 -1.66 26.62 -2 29 C-2.33 29 -2.66 29 -3 29 C-3.66 32.96 -4.32 36.92 -5 41 C-5.33 41 -5.66 41 -6 41 C-6.33452567 26.52247259 -5.0923774 13.71975465 0 0 Z " fill="#C3C4C3" transform="translate(68,33)"/>
<path d="M0 0 C0.66 0.33 1.32 0.66 2 1 C2.6328125 3.50390625 2.6328125 3.50390625 3.125 6.5625 C3.29257813 7.57441406 3.46015625 8.58632812 3.6328125 9.62890625 C3.75398438 10.41136719 3.87515625 11.19382813 4 12 C3.01 12 2.02 12 1 12 C1 11.34 1 10.68 1 10 C0.34 10 -0.32 10 -1 10 C-1 9.34 -1 8.68 -1 8 C-5.62 7.34 -10.24 6.68 -15 6 C-15 5.67 -15 5.34 -15 5 C-14.16855469 4.89042969 -13.33710937 4.78085938 -12.48046875 4.66796875 C-11.39378906 4.50941406 -10.30710937 4.35085937 -9.1875 4.1875 C-7.56908203 3.96126953 -7.56908203 3.96126953 -5.91796875 3.73046875 C-2.93559009 2.98387597 -1.85776521 2.37924316 0 0 Z " fill="#89CC7C" transform="translate(122,120)"/>
<path d="M0 0 C1.32 0 2.64 0 4 0 C4 4.95 4 9.9 4 15 C1.69 14.67 -0.62 14.34 -3 14 C-3 11 -3 11 -1 9 C-0.53993654 6.79749008 -0.53993654 6.79749008 -0.375 4.375 C-0.30023438 3.55773437 -0.22546875 2.74046875 -0.1484375 1.8984375 C-0.09945312 1.27195312 -0.05046875 0.64546875 0 0 Z " fill="#ABC6C9" transform="translate(40,71)"/>
<path d="M0 0 C0.78375 0.28875 1.5675 0.5775 2.375 0.875 C3.7671875 1.1534375 3.7671875 1.1534375 5.1875 1.4375 C5.909375 1.581875 6.63125 1.72625 7.375 1.875 C7.045 2.535 6.715 3.195 6.375 3.875 C3.3125 4.5 3.3125 4.5 0.375 4.875 C1.035 5.535 1.695 6.195 2.375 6.875 C-4.06 7.37 -4.06 7.37 -10.625 7.875 C-9.08535194 3.25605581 -5.02836564 -0.23944598 0 0 Z " fill="#A16164" transform="translate(10.625,88.125)"/>
<path d="M0 0 C0.6290625 0.19335938 1.258125 0.38671875 1.90625 0.5859375 C7.24216385 2.2092125 12.57759268 3.69460565 18 5 C18 5.99 18 6.98 18 8 C11.71723081 8.45692867 6.27153969 7.73737169 1 4 C0.24609375 1.859375 0.24609375 1.859375 0 0 Z " fill="#B9B9BD" transform="translate(55,98)"/>
<path d="M0 0 C3.7578867 -0.07828931 7.33659821 -0.00970911 11.0625 0.5 C14.43885926 0.92874403 17.60499159 1.08487521 21 1 C18.38604592 2.46381429 16.36177085 3.13204741 13.375 3.75 C9.71306986 4.65416403 9.71306986 4.65416403 8.5625 8.125 C8.376875 9.07375 8.19125 10.0225 8 11 C7.34 11 6.68 11 6 11 C6 9.68 6 8.36 6 7 C6.66 7 7.32 7 8 7 C8.33 6.01 8.66 5.02 9 4 C6.36 3.67 3.72 3.34 1 3 C0.67 3.66 0.34 4.32 0 5 C0 3.35 0 1.7 0 0 Z " fill="#B6BDC6" transform="translate(55,74)"/>
<path d="M0 0 C0.99 0 1.98 0 3 0 C4.26026798 2.52053595 3.91874445 3.8542098 3.5625 6.625 C3.46066406 7.44226563 3.35882813 8.25953125 3.25390625 9.1015625 C3.17011719 9.72804688 3.08632812 10.35453125 3 11 C2.01 11 1.02 11 0 11 C0 15.62 0 20.24 0 25 C-0.33 25 -0.66 25 -1 25 C-1.2242 22.33383784 -1.42964971 19.66830733 -1.625 17 C-1.68945312 16.25621094 -1.75390625 15.51242187 -1.8203125 14.74609375 C-2.19267949 9.39331828 -1.53197383 5.14556096 0 0 Z " fill="#A46A6C" transform="translate(72,0)"/>
<path d="M0 0 C0.33 0 0.66 0 1 0 C1.0093457 0.59014893 1.01869141 1.18029785 1.02832031 1.78833008 C1.08202657 4.46390205 1.16566852 7.13772553 1.25 9.8125 C1.26417969 10.74126953 1.27835937 11.67003906 1.29296875 12.62695312 C1.32519531 13.51962891 1.35742188 14.41230469 1.390625 15.33203125 C1.41157227 16.15421143 1.43251953 16.9763916 1.45410156 17.82348633 C1.82962231 20.16369431 1.82962231 20.16369431 3.89746094 21.7487793 C5.96388867 22.97851016 7.64473353 23.5794167 10 24 C9.67 24.66 9.34 25.32 9 26 C8.01 26 7.02 26 6 26 C4.29467677 27.94009522 4.29467677 27.94009522 3 30 C2.01 29.67 1.02 29.34 0 29 C0 19.43 0 9.86 0 0 Z " fill="#9DA3A9" transform="translate(103,48)"/>
<path d="M0 0 C0.33 0 0.66 0 1 0 C1 3.96 1 7.92 1 12 C0.34 12 -0.32 12 -1 12 C-1 14.64 -1 17.28 -1 20 C-2.66666667 20 -4.33333333 20 -6 20 C-6.6875 17.6875 -6.6875 17.6875 -7 15 C-6 14 -5 13 -4 12 C-3.36450566 9.99905162 -2.92196607 7.99161827 -2.47265625 5.94140625 C-1.9431853 3.76663716 -1.12675031 1.93157196 0 0 Z " fill="#6E7880" transform="translate(101,48)"/>
<path d="M0 0 C-0.99 2.64 -1.98 5.28 -3 8 C-4.32 8 -5.64 8 -7 8 C-7.66 8.99 -8.32 9.98 -9 11 C-10 10 -10 10 -10.3125 7.1875 C-10 4 -10 4 -8.375 1.625 C-5.3962104 -0.4131192 -3.53677664 -0.32152515 0 0 Z " fill="#6EC3CF" transform="translate(76,78)"/>
<path d="M0 0 C0.66 0.33 1.32 0.66 2 1 C2 4.96 2 8.92 2 13 C1.01 13 0.02 13 -1 13 C-1.33 14.32 -1.66 15.64 -2 17 C-4.52197309 8.5309417 -4.52197309 8.5309417 -3.2421875 4.77734375 C-2.125 2.875 -2.125 2.875 0 0 Z " fill="#906769" transform="translate(101,20)"/>
<path d="M0 0 C1.95216435 1.95216435 2.84826645 3.53199953 4 6 C4.66 5.34 5.32 4.68 6 4 C7.14806378 13.41002278 7.14806378 13.41002278 7 18 C5 15 5 15 5 13 C3.68 13.33 2.36 13.66 1 14 C0.67 9.38 0.34 4.76 0 0 Z " fill="#92928E" transform="translate(81,39)"/>
<path d="M0 0 C2.89696854 0.36982577 5.37621929 0.68810965 8 2 C8 2.66 8 3.32 8 4 C5.69 3.67 3.38 3.34 1 3 C1.38864654 6.45136841 1.38864654 6.45136841 3 10 C5.54307167 11.50508323 8.13908292 12.30140397 11 13 C11 13.66 11 14.32 11 15 C6.16691977 14.55041114 3.24441467 13.70790248 0 10 C-0.76078404 7.0040849 -1.0877689 4.09071907 -1 1 C-0.67 0.67 -0.34 0.34 0 0 Z " fill="#7D8081" transform="translate(54,92)"/>
<path d="M0 0 C3.10489399 0.10991566 6.20857994 0.24053415 9.3125 0.375 C10.63411133 0.42140625 10.63411133 0.42140625 11.98242188 0.46875 C12.82998047 0.50742188 13.67753906 0.54609375 14.55078125 0.5859375 C15.33106689 0.6173584 16.11135254 0.6487793 16.9152832 0.68115234 C19 1 19 1 22 3 C22.33 3.66 22.66 4.32 23 5 C20.15820312 4.64477539 20.15820312 4.64477539 17.31640625 4.28955078 C16.16978516 4.14622314 16.16978516 4.14622314 15 4 C12.16666667 3.64583333 9.33333333 3.29166667 6.5 2.9375 C5.77296875 2.84662109 5.0459375 2.75574219 4.296875 2.66210938 C2.53125 2.44140625 0.765625 2.22070312 -1 2 C-0.67 1.34 -0.34 0.68 0 0 Z " fill="#7D1719" transform="translate(119,89)"/>
<path d="M0 0 C0.33 0 0.66 0 1 0 C1.21755666 5.4389165 1.10428384 9.87080814 -1 15 C-0.34 15 0.32 15 1 15 C1 13.68 1 12.36 1 11 C1.99 10.67 2.98 10.34 4 10 C3.88637738 11.4800841 3.75877092 12.95910074 3.625 14.4375 C3.55539063 15.26121094 3.48578125 16.08492187 3.4140625 16.93359375 C3.27742188 17.61550781 3.14078125 18.29742187 3 19 C2.34 19.33 1.68 19.66 1 20 C0.67 19.01 0.34 18.02 0 17 C-2.01508358 16.26676204 -2.01508358 16.26676204 -4 16 C-3.88637738 14.5199159 -3.75877092 13.04089926 -3.625 11.5625 C-3.55539063 10.73878906 -3.48578125 9.91507813 -3.4140625 9.06640625 C-3.27742188 8.38449219 -3.14078125 7.70257813 -3 7 C-2.34 6.67 -1.68 6.34 -1 6 C-0.34227572 2.97065509 -0.34227572 2.97065509 0 0 Z " fill="#96A8A8" transform="translate(53,69)"/>
<path d="M0 0 C0.66 0.66 1.32 1.32 2 2 C1.40316406 2.68578125 0.80632812 3.3715625 0.19140625 4.078125 C-2.15190743 7.20254324 -3.56231785 10.14956284 -5.0625 13.75 C-5.31854004 14.36182129 -5.57458008 14.97364258 -5.83837891 15.60400391 C-7.7941425 20.33842081 -9.48237147 25.10986364 -11 30 C-11.33 30 -11.66 30 -12 30 C-11.35415288 18.80531659 -5.96830106 9.27035079 0 0 Z " fill="#868686" transform="translate(70,25)"/>
<path d="M0 0 C2.97 0.33 5.94 0.66 9 1 C8.25 6.75 8.25 6.75 6 9 C5.30251417 10.31747324 4.63040043 11.64914193 4 13 C3.67 10.36 3.34 7.72 3 5 C2.34 6.32 1.68 7.64 1 9 C0 8 0 8 -0.09765625 6.15234375 C-0.06510417 4.1015625 -0.03255208 2.05078125 0 0 Z " fill="#87B1B5" transform="translate(47,59)"/>
<path d="M0 0 C0.66 0.33 1.32 0.66 2 1 C1.67 1.99 1.34 2.98 1 4 C1.99 4.99 2.98 5.98 4 7 C3.34 8.65 2.68 10.3 2 12 C-0.97 11.505 -0.97 11.505 -4 11 C-3.39301257 6.87248551 -1.96189209 3.6678852 0 0 Z " fill="#88A0A6" transform="translate(46,93)"/>
<path d="M0 0 C0 2.64 0 5.28 0 8 C-1.98 8 -3.96 8 -6 8 C-6.6875 6.25 -6.6875 6.25 -7 4 C-4.96738407 0.1487277 -4.56536841 0 0 0 Z " fill="#A2F655" transform="translate(35,112)"/>
<path d="M0 0 C0.33 0 0.66 0 1 0 C1.33 9.9 1.66 19.8 2 30 C2.99 30.33 3.98 30.66 5 31 C4.34 31 3.68 31 3 31 C3 31.99 3 32.98 3 34 C1.515 34.495 1.515 34.495 0 35 C0 23.45 0 11.9 0 0 Z " fill="#2E3842" transform="translate(102,51)"/>
<path d="M0 0 C1.27351308 2.54702616 0.80191925 3.4282945 0.0625 6.125 C-0.13214844 6.84945312 -0.32679687 7.57390625 -0.52734375 8.3203125 C-0.68332031 8.87460938 -0.83929688 9.42890625 -1 10 C-2.65 10.33 -4.3 10.66 -6 11 C-5.01 10.34 -4.02 9.68 -3 9 C-5.31 9.66 -7.62 10.32 -10 11 C-9.67 10.01 -9.34 9.02 -9 8 C-8.34 8 -7.68 8 -7 8 C-6.67 7.34 -6.34 6.68 -6 6 C-5.01 5.34 -4.02 4.68 -3 4 C-4.32 3.01 -5.64 2.02 -7 1 C-3.535 0.505 -3.535 0.505 0 0 Z " fill="#8E989B" transform="translate(38,89)"/>
<path d="M0 0 C0.99 0 1.98 0 3 0 C3.1799928 5.21979128 2.97094808 9.07262981 1 14 C-0.5 12.9375 -0.5 12.9375 -2 11 C-2.3862557 6.75118727 -2.3297964 3.64030688 0 0 Z " fill="#76827D" transform="translate(123,107)"/>
<path d="M0 0 C0.99 0 1.98 0 3 0 C3.12375 0.94875 3.2475 1.8975 3.375 2.875 C3.71687177 6.08667191 3.71687177 6.08667191 6 8 C5.34 8 4.68 8 4 8 C3.67 8.99 3.34 9.98 3 11 C2.34 9.68 1.68 8.36 1 7 C-0.65 7.66 -2.3 8.32 -4 9 C-4.66 7.02 -5.32 5.04 -6 3 C-4.35 3 -2.7 3 -1 3 C-0.67 2.01 -0.34 1.02 0 0 Z " fill="#4D5C72" transform="translate(105,89)"/>
<path d="M0 0 C8.2425317 -0.26305952 15.91191011 0.39385449 24 2 C23.67 2.99 23.34 3.98 23 5 C11.615 3.02 11.615 3.02 0 1 C0 0.67 0 0.34 0 0 Z " fill="#666463" transform="translate(122,92)"/>
<path d="M0 0 C0.66 0 1.32 0 2 0 C2 5.94 2 11.88 2 18 C2.66 18.33 3.32 18.66 4 19 C3 20 3 20 0.05859375 20.09765625 C-1.13636719 20.08605469 -2.33132812 20.07445313 -3.5625 20.0625 C-5.35880859 20.04896484 -5.35880859 20.04896484 -7.19140625 20.03515625 C-8.11824219 20.02355469 -9.04507813 20.01195313 -10 20 C-6.36576791 17.67409146 -3.22911669 17.83734167 1 18 C0.9278125 16.95199219 0.855625 15.90398437 0.78125 14.82421875 C0.6874471 13.4453161 0.59370001 12.06640965 0.5 10.6875 C0.45230469 9.99720703 0.40460937 9.30691406 0.35546875 8.59570312 C0.16120511 5.72337641 0 2.87986212 0 0 Z " fill="#292930" transform="translate(43,68)"/>
<path d="M0 0 C2.44989101 3.74235319 2.23086143 7.44225419 2.125 11.75 C2.11597656 12.44738281 2.10695313 13.14476562 2.09765625 13.86328125 C2.07419888 15.57566958 2.03833104 17.28788004 2 19 C1.67 19 1.34 19 1 19 C0.67 14.71 0.34 10.42 0 6 C-1.52475697 10.57427092 -2.4351418 14.29284832 -3 19 C-3.33 19 -3.66 19 -4 19 C-4.09038099 13.84828377 -3.84681133 9.08086796 -3 4 C-2.34 4 -1.68 4 -1 4 C-0.67 2.68 -0.34 1.36 0 0 Z " fill="#F6A312" transform="translate(74,40)"/>
<path d="M0 0 C2 2 2 2 2.1953125 4.3828125 C2.17210938 5.28773437 2.14890625 6.19265625 2.125 7.125 C2.10695313 8.03507812 2.08890625 8.94515625 2.0703125 9.8828125 C2.04710938 10.58148438 2.02390625 11.28015625 2 12 C1.34 12 0.68 12 0 12 C-0.33 10.02 -0.66 8.04 -1 6 C-2.1446875 6.495 -2.1446875 6.495 -3.3125 7 C-6 8 -6 8 -9 8 C-9 7.34 -9 6.68 -9 6 C-8.43410156 5.73445313 -7.86820312 5.46890625 -7.28515625 5.1953125 C-6.55167969 4.84210938 -5.81820312 4.48890625 -5.0625 4.125 C-4.33160156 3.77695313 -3.60070312 3.42890625 -2.84765625 3.0703125 C-0.83667541 2.1315023 -0.83667541 2.1315023 0 0 Z " fill="#545557" transform="translate(92,89)"/>
<path d="M0 0 C2 3 2 3 3.375 5.875 C4.96758845 8.9376701 6.76605978 11.38089767 9 14 C7.68 14 6.36 14 5 14 C1.5770789 10.5770789 -0.72982115 7.99830873 -1 3 C-0.67 2.01 -0.34 1.02 0 0 Z " fill="#79949F" transform="translate(97,109)"/>
<path d="M0 0 C1.98 0 3.96 0 6 0 C4.02 0.99 4.02 0.99 2 2 C2 2.66 2 3.32 2 4 C2.928125 4.268125 3.85625 4.53625 4.8125 4.8125 C8 6 8 6 11 9 C8.03 8.67 5.06 8.34 2 8 C2 7.34 2 6.68 2 6 C1.01 5.67 0.02 5.34 -1 5 C-0.67 3.35 -0.34 1.7 0 0 Z " fill="#7A7E8F" transform="translate(109,90)"/>
<path d="M0 0 C0.33 0 0.66 0 1 0 C1.33 1.98 1.66 3.96 2 6 C2.66 5.01 3.32 4.02 4 3 C5.32 3.33 6.64 3.66 8 4 C7.39816251 6.02045442 6.72693904 8.02111039 6 10 C5.01 10.495 5.01 10.495 4 11 C2.68 10.34 1.36 9.68 0 9 C0 6.03 0 3.06 0 0 Z " fill="#521E26" transform="translate(105,70)"/>
<path d="M0 0 C3.63 1.98 7.26 3.96 11 6 C11 6.33 11 6.66 11 7 C7.04 6.67 3.08 6.34 -1 6 C-1 2 -1 2 0 0 Z " fill="#A8B4B9" transform="translate(113,76)"/>
<path d="M0 0 C1.65 0.33 3.3 0.66 5 1 C5 1.99 5 2.98 5 4 C6.98 4.66 8.96 5.32 11 6 C10.67 6.66 10.34 7.32 10 8 C7.525 7.01 7.525 7.01 5 6 C4.67 6.99 4.34 7.98 4 9 C1.525 8.01 1.525 8.01 -1 7 C-0.01 6.67 0.98 6.34 2 6 C2 5.34 2 4.68 2 4 C1.34 4 0.68 4 0 4 C0 2.68 0 1.36 0 0 Z " fill="#2A3D3D" transform="translate(37,100)"/>
<path d="M0 0 C0.90105469 0.01804687 1.80210938 0.03609375 2.73046875 0.0546875 C3.41753906 0.07789062 4.10460937 0.10109375 4.8125 0.125 C4.8125 0.455 4.8125 0.785 4.8125 1.125 C3.74708984 1.30675781 3.74708984 1.30675781 2.66015625 1.4921875 C1.74105469 1.65976563 0.82195312 1.82734375 -0.125 2 C-1.04152344 2.16242188 -1.95804688 2.32484375 -2.90234375 2.4921875 C-3.65644531 2.70101562 -4.41054687 2.90984375 -5.1875 3.125 C-6.6658226 6.08164519 -6.24782783 8.86729737 -6.1875 12.125 C-7.1775 12.125 -8.1675 12.125 -9.1875 12.125 C-10.33921123 8.09401069 -10.19106005 5.83158609 -8.1875 2.125 C-4.87379 -0.08414 -3.8428979 -0.09981553 0 0 Z " fill="#242735" transform="translate(73.1875,76.875)"/>
<path d="M0 0 C0.125 6.625 0.125 6.625 -1 10 C-2.32 10 -3.64 10 -5 10 C-5.3669579 3.51707705 -5.3669579 3.51707705 -3.625 1.0625 C-2 0 -2 0 0 0 Z " fill="#F2F1F0" transform="translate(74,26)"/>
<path d="M0 0 C0.83144531 0.2165625 0.83144531 0.2165625 1.6796875 0.4375 C2.40414062 0.623125 3.12859375 0.80875 3.875 1 C4.59429687 1.185625 5.31359375 1.37125 6.0546875 1.5625 C7.99289317 2.07313965 7.99289317 2.07313965 10 2 C10 2.66 10 3.32 10 4 C3.07 4 -3.86 4 -11 4 C-7.91111478 1.94074319 -7.29064073 1.7609626 -3.8125 1.875 C-1.9253125 1.936875 -1.9253125 1.936875 0 2 C0 1.34 0 0.68 0 0 Z " fill="#536E7D" transform="translate(123,84)"/>
<path d="M0 0 C1.95901454 0.11382653 3.9172338 0.24141125 5.875 0.375 C6.96554688 0.44460937 8.05609375 0.51421875 9.1796875 0.5859375 C12 1 12 1 14 3 C10.84493858 3.93619813 8.03413498 4.1057123 4.75 4.0625 C3.85796875 4.05347656 2.9659375 4.04445313 2.046875 4.03515625 C1.37140625 4.02355469 0.6959375 4.01195313 0 4 C0 2.68 0 1.36 0 0 Z " fill="#3D3B3E" transform="translate(67,91)"/>
<path d="M0 0 C1.19882813 0.15275391 1.19882813 0.15275391 2.421875 0.30859375 C3.02515625 0.39238281 3.6284375 0.47617188 4.25 0.5625 C4.25 1.2225 4.25 1.8825 4.25 2.5625 C5.24 3.2225 6.23 3.8825 7.25 4.5625 C5.25045254 4.60504356 3.24958364 4.60330783 1.25 4.5625 C0.92 4.2325 0.59 3.9025 0.25 3.5625 C-2.08297433 3.52157063 -4.41705225 3.52008277 -6.75 3.5625 C-6.75 2.9025 -6.75 2.2425 -6.75 1.5625 C-7.41 1.2325 -8.07 0.9025 -8.75 0.5625 C-5.62819599 -0.40411363 -3.22916205 -0.42738909 0 0 Z " fill="#4A3E45" transform="translate(114.75,87.4375)"/>
<path d="M0 0 C1.9375 0.3125 1.9375 0.3125 4 1 C4.33 1.99 4.66 2.98 5 4 C2 6 2 6 -1 7 C-1 7.66 -1 8.32 -1 9 C-1.99 8.67 -2.98 8.34 -4 8 C-2.87548273 5.0280615 -1.77706209 2.66559313 0 0 Z " fill="#8A9AA0" transform="translate(99,98)"/>
<path d="M0 0 C0.33 0 0.66 0 1 0 C1.02712066 1.43739513 1.04645067 2.87493863 1.0625 4.3125 C1.07410156 5.11300781 1.08570313 5.91351563 1.09765625 6.73828125 C1 9 1 9 0 12 C0.66 12.33 1.32 12.66 2 13 C1.01 13 0.02 13 -1 13 C-0.34 13.66 0.32 14.32 1 15 C1 15.99 1 16.98 1 18 C0.34 18 -0.32 18 -1 18 C-1.33 18.66 -1.66 19.32 -2 20 C-3.31428571 12.11428571 -3.31428571 12.11428571 -1 8 C-0.52522536 5.33713357 -0.26948609 2.6948609 0 0 Z " fill="#73828C" transform="translate(49,73)"/>
<path d="M0 0 C0.66 0 1.32 0 2 0 C1.15646064 2.67120799 0.54188875 4.54147875 -1.625 6.375 C-5.33402533 7.3510593 -8.2394483 6.73978066 -12 6 C-12.33 5.34 -12.66 4.68 -13 4 C-7.06 3.505 -7.06 3.505 -1 3 C-0.67 2.01 -0.34 1.02 0 0 Z " fill="#92B98B" transform="translate(41,116)"/>
<path d="M0 0 C2.97 0 5.94 0 9 0 C8.67 1.32 8.34 2.64 8 4 C5.36 4 2.72 4 0 4 C0 2.68 0 1.36 0 0 Z " fill="#CCE7AF" transform="translate(107,114)"/>
<path d="M0 0 C0.66 0.66 1.32 1.32 2 2 C1.98251781 4.91952568 1.86055367 7.72297885 1.625 10.625 C1.56828125 11.42679688 1.5115625 12.22859375 1.453125 13.0546875 C1.31152018 15.03715498 1.15697741 17.01869051 1 19 C0.67 19 0.34 19 0 19 C-0.1938211 16.02111874 -0.38035102 13.04209754 -0.5625 10.0625 C-0.61857422 9.21236328 -0.67464844 8.36222656 -0.73242188 7.48632812 C-0.80493164 6.27299805 -0.80493164 6.27299805 -0.87890625 5.03515625 C-0.9260376 4.2862915 -0.97316895 3.53742676 -1.02172852 2.76586914 C-1 1 -1 1 0 0 Z " fill="#313A42" transform="translate(94,66)"/>
<path d="M0 0 C1.485 0.99 1.485 0.99 3 2 C3.36328125 4.2421875 3.36328125 4.2421875 3.3125 6.875 C3.30863281 7.73867188 3.30476563 8.60234375 3.30078125 9.4921875 C2.9897786 12.0852226 2.30753633 13.75999753 1 16 C1 14.02 1 12.04 1 10 C0.67 10.33 0.34 10.66 0 11 C-0.33 11 -0.66 11 -1 11 C-0.67 7.37 -0.34 3.74 0 0 Z " fill="#B2B5B3" transform="translate(81,56)"/>
<path d="M0 0 C2.4375 0.1875 2.4375 0.1875 5 1 C7.17831524 3.90442032 7.19715281 6.45124947 7 10 C6.34 9.34 5.68 8.68 5 8 C5 7.01 5 6.02 5 5 C4.34 5 3.68 5 3 5 C2.67 4.01 2.34 3.02 2 2 C1.67 2.99 1.34 3.98 1 5 C0.01 5.33 -0.98 5.66 -2 6 C-1.125 1.125 -1.125 1.125 0 0 Z " fill="#70401D" transform="translate(72,39)"/>
<path d="M0 0 C0.66 0 1.32 0 2 0 C3.25841946 6.74153283 4.26404456 13.13484138 4 20 C3.67 20 3.34 20 3 20 C1.09579269 13.19925959 -0.40850553 7.08076251 0 0 Z " fill="#CED2D1" transform="translate(79,41)"/>
<path d="M0 0 C2.31 0 4.62 0 7 0 C8.4606285 2.64738916 9 3.89448334 9 7 C8.34 6.34 7.68 5.68 7 5 C4.34462628 4.43479997 1.70855287 4.26211802 -1 4 C-0.67 2.68 -0.34 1.36 0 0 Z " fill="#65856A" transform="translate(32,104)"/>
<path d="M0 0 C0.66 0.66 1.32 1.32 2 2 C1.01 2 0.02 2 -1 2 C-1.33 4.64 -1.66 7.28 -2 10 C-2.66 10 -3.32 10 -4 10 C-4.103125 9.360625 -4.20625 8.72125 -4.3125 8.0625 C-4.539375 7.381875 -4.76625 6.70125 -5 6 C-5.99 5.67 -6.98 5.34 -8 5 C-4.04 2.525 -4.04 2.525 0 0 Z " fill="#9D8481" transform="translate(41,69)"/>
<path d="M0 0 C3.37462715 0.54723683 5.08235 1.0549 8 3 C8.1875 5.625 8.1875 5.625 8 8 C6.68 8 5.36 8 4 8 C4 6.68 4 5.36 4 4 C3.34 3.67 2.68 3.34 2 3 C1.34 2.01 0.68 1.02 0 0 Z " fill="#3DBD1F" transform="translate(35,108)"/>
<path d="M0 0 C-3.60957611 3.2910841 -6.12637153 4.54663921 -11 5 C-11.33 3.68 -11.66 2.36 -12 1 C-7.9472484 0.01751476 -4.16138263 -0.08159574 0 0 Z " fill="#969699" transform="translate(86,97)"/>
<path d="M0 0 C0.33 0 0.66 0 1 0 C1.32357362 3.55930982 1.3880551 5.41791735 -0.625 8.4375 C-3 10 -3 10 -6.25 9.75 C-7.61125 9.37875 -7.61125 9.37875 -9 9 C-8.01 8.67 -7.02 8.34 -6 8 C-6 7.34 -6 6.68 -6 6 C-5.195625 5.7525 -4.39125 5.505 -3.5625 5.25 C-0.828919 4.27761141 -0.828919 4.27761141 -0.1875 1.875 C-0.125625 1.25625 -0.06375 0.6375 0 0 Z " fill="#306D81" transform="translate(76,81)"/>
<path d="M0 0 C3.16115776 1.36983503 3.9927092 1.9890638 6 5 C6.125 8.1875 6.125 8.1875 6 11 C4.68 11.33 3.36 11.66 2 12 C2.226875 10.948125 2.45375 9.89625 2.6875 8.8125 C3.03180444 4.61198583 2.48772258 3.2837938 0 0 Z " fill="#353C40" transform="translate(78,78)"/>
<path d="M0 0 C0.99 0 1.98 0 3 0 C3.99 2.64 4.98 5.28 6 8 C4.68 8.33 3.36 8.66 2 9 C0.50178941 5.62902617 0 3.79557881 0 0 Z " fill="#5B6A77" transform="translate(97,76)"/>
<path d="M0 0 C0.33 0 0.66 0 1 0 C1 3.96 1 7.92 1 12 C0.34 12 -0.32 12 -1 12 C-1 13.32 -1 14.64 -1 16 C-1.66 15.67 -2.32 15.34 -3 15 C-2.88529863 13.24929483 -2.75780972 11.49942464 -2.625 9.75 C-2.55539063 8.77546875 -2.48578125 7.8009375 -2.4140625 6.796875 C-2.01534751 4.10366811 -1.36492937 2.33036721 0 0 Z " fill="#95989A" transform="translate(101,48)"/>
<path d="M0 0 C0.33 0 0.66 0 1 0 C0.67 5.61 0.34 11.22 0 17 C-0.33 17 -0.66 17 -1 17 C-1.33 15.35 -1.66 13.7 -2 12 C-2.66 12 -3.32 12 -4 12 C-3.67 10.02 -3.34 8.04 -3 6 C-2.01 6 -1.02 6 0 6 C0 4.02 0 2.04 0 0 Z " fill="#7F8484" transform="translate(103,27)"/>
<path d="M0 0 C0.66 0.33 1.32 0.66 2 1 C1.34 2.32 0.68 3.64 0 5 C-3.3125 5.25 -3.3125 5.25 -7 5 C-8.9375 3 -8.9375 3 -10 1 C-7.98177083 1.03255208 -5.96354167 1.06510417 -3.9453125 1.09765625 C-1.91814596 1.12649242 -1.91814596 1.12649242 0 0 Z " fill="#434945" transform="translate(39,121)"/>
<path d="M0 0 C1.73662334 3.22515763 2.8905928 6.51329166 4 10 C3.01 10.33 2.02 10.66 1 11 C0.34 10.67 -0.32 10.34 -1 10 C-1.33 10.99 -1.66 11.98 -2 13 C-1.85769192 11.58297487 -1.71099254 10.1663904 -1.5625 8.75 C-1.48128906 7.96109375 -1.40007813 7.1721875 -1.31640625 6.359375 C-1.02365007 4.17635361 -0.57935581 2.1226818 0 0 Z " fill="#4C7A57" transform="translate(25,110)"/>
<path d="M0 0 C0.99 0.33 1.98 0.66 3 1 C2.34 1.66 1.68 2.32 1 3 C1 3.66 1 4.32 1 5 C2.32 5.33 3.64 5.66 5 6 C3.02 6 1.04 6 -1 6 C-1 7.98 -1 9.96 -1 12 C-2.73745313 9.34271875 -3.00831972 8.10399645 -2.75 4.875 C-2 2 -2 2 0 0 Z " fill="#60965F" transform="translate(106,106)"/>
<path d="M0 0 C2.97 0.495 2.97 0.495 6 1 C6.02694851 2.95825873 6.04637218 4.91662226 6.0625 6.875 C6.07410156 7.96554688 6.08570312 9.05609375 6.09765625 10.1796875 C6 13 6 13 5 15 C3.68 14.34 2.36 13.68 1 13 C1.99 12.67 2.98 12.34 4 12 C4.50423019 6.70558305 3.18923033 4.18586481 0 0 Z " fill="#8E9598" transform="translate(79,77)"/>
<path d="M0 0 C1.32 0.33 2.64 0.66 4 1 C4 1.66 4 2.32 4 3 C4.66 3 5.32 3 6 3 C6 3.99 6 4.98 6 6 C4.02 6.33 2.04 6.66 0 7 C0 4.69 0 2.38 0 0 Z " fill="#AFE843" transform="translate(25,120)"/>
<path d="M0 0 C0.66 0.33 1.32 0.66 2 1 C1.67 1.99 1.34 2.98 1 4 C1.99 4.33 2.98 4.66 4 5 C2.35 4.67 0.7 4.34 -1 4 C-1 4.66 -1 5.32 -1 6 C-3.31 6 -5.62 6 -8 6 C-7 3 -7 3 -3.5625 1.25 C-2.386875 0.8375 -1.21125 0.425 0 0 Z " fill="#B5BFBF" transform="translate(29,81)"/>
<path d="M0 0 C0.33 0.99 0.66 1.98 1 3 C-0.59766103 3.86627399 -2.20339944 4.71766465 -3.8125 5.5625 C-4.70582031 6.03816406 -5.59914063 6.51382813 -6.51953125 7.00390625 C-9 8 -9 8 -12 7 C-8.04 4.69 -4.08 2.38 0 0 Z " fill="#E3E5E7" transform="translate(28,79)"/>
<path d="M0 0 C0.99 0.33 1.98 0.66 3 1 C3 1.99 3 2.98 3 4 C3.99 3.67 4.98 3.34 6 3 C5.67 4.32 5.34 5.64 5 7 C3.35 7 1.7 7 0 7 C0 4.69 0 2.38 0 0 Z " fill="#5BDF22" transform="translate(35,113)"/>
<path d="M0 0 C0 3 0 3 -1.75 5.25 C-4 7 -4 7 -6.25 6.75 C-6.8275 6.5025 -7.405 6.255 -8 6 C-6.72879117 2.18637351 -4.19078006 0 0 0 Z " fill="#89B4C0" transform="translate(31,101)"/>
<path d="M0 0 C0 1.65 0 3.3 0 5 C-2.97 4.67 -5.94 4.34 -9 4 C-5.9592059 0.9592059 -4.26659377 0 0 0 Z " fill="#D4D4D8" transform="translate(74,98)"/>
<path d="M0 0 C1.32 0.33 2.64 0.66 4 1 C3.67 1.99 3.34 2.98 3 4 C3.66 4.33 4.32 4.66 5 5 C3.68 5.33 2.36 5.66 1 6 C1.33 6.66 1.66 7.32 2 8 C0.68 7.67 -0.64 7.34 -2 7 C-1.42415568 4.61435923 -0.77772405 2.33317216 0 0 Z " fill="#5F5762" transform="translate(64,89)"/>
<path d="M0 0 C0.66 0.33 1.32 0.66 2 1 C2 2.32 2 3.64 2 5 C0.35 5.33 -1.3 5.66 -3 6 C-3 5.34 -3 4.68 -3 4 C-3.66 3.67 -4.32 3.34 -5 3 C-3 1 -3 1 0 0 Z " fill="#3A4753" transform="translate(106,95)"/>
<path d="M0 0 C6.625 -0.25 6.625 -0.25 10 2 C9.04287109 2.07347656 9.04287109 2.07347656 8.06640625 2.1484375 C7.24011719 2.22320312 6.41382813 2.29796875 5.5625 2.375 C4.73878906 2.44460937 3.91507813 2.51421875 3.06640625 2.5859375 C2.04353516 2.79089844 2.04353516 2.79089844 1 3 C0.67 3.66 0.34 4.32 0 5 C0 3.35 0 1.7 0 0 Z " fill="#BEAEA4" transform="translate(55,74)"/>
<path d="M0 0 C2.31 0 4.62 0 7 0 C5.68 0.33 4.36 0.66 3 1 C3 3.64 3 6.28 3 9 C3.66 9.33 4.32 9.66 5 10 C4.01 10 3.02 10 2 10 C2 8.02 2 6.04 2 4 C1.01 4 0.02 4 -1 4 C-0.67 2.68 -0.34 1.36 0 0 Z " fill="#DCE1D9" transform="translate(72,64)"/>
<path d="M0 0 C1.85772162 0.08984301 3.71247985 0.24611861 5.5625 0.4375 C7.08037109 0.59025391 7.08037109 0.59025391 8.62890625 0.74609375 C9.80259766 0.87177734 9.80259766 0.87177734 11 1 C11 1.66 11 2.32 11 3 C2.42857143 3.28571429 2.42857143 3.28571429 -1 1 C-0.67 0.67 -0.34 0.34 0 0 Z " fill="#2D1516" transform="translate(119,89)"/>
<path d="M0 0 C0.33 0 0.66 0 1 0 C1 2.97 1 5.94 1 9 C1.66 9 2.32 9 3 9 C3 11.64 3 14.28 3 17 C2.67 17 2.34 17 2 17 C2 15.35 2 13.7 2 12 C1.34 12 0.68 12 0 12 C-0.19477739 10.37585622 -0.38059458 8.75063577 -0.5625 7.125 C-0.66691406 6.22007813 -0.77132812 5.31515625 -0.87890625 4.3828125 C-1 2 -1 2 0 0 Z " fill="#B9C0C2" transform="translate(44,24)"/>
<path d="M0 0 C0.33 0 0.66 0 1 0 C1.04898438 0.86882813 1.09796875 1.73765625 1.1484375 2.6328125 C1.22320312 3.78523437 1.29796875 4.93765625 1.375 6.125 C1.44460937 7.26195312 1.51421875 8.39890625 1.5859375 9.5703125 C1.99443876 12.95393616 2.80967569 15.81612441 4 19 C3.34 19.33 2.68 19.66 2 20 C0.19320413 15.37630977 -0.21839082 11.57471347 -0.125 6.625 C-0.10695313 5.37976563 -0.08890625 4.13453125 -0.0703125 2.8515625 C-0.04710938 1.91054687 -0.02390625 0.96953125 0 0 Z " fill="#B5BABE" transform="translate(73,12)"/>
<path d="M0 0 C1.32 0 2.64 0 4 0 C4 1.98 4 3.96 4 6 C2.68 6 1.36 6 0 6 C0 4.02 0 2.04 0 0 Z " fill="#DDECB3" transform="translate(31,112)"/>
<path d="M0 0 C6.93 0.495 6.93 0.495 14 1 C11.03082597 2.97944936 10.34297721 3.29350581 7 3.3125 C6.319375 3.32925781 5.63875 3.34601563 4.9375 3.36328125 C3 3 3 3 0 0 Z " fill="#141819" transform="translate(63,94)"/>
<path d="M0 0 C1.5 1.375 1.5 1.375 3 3 C3 3.66 3 4.32 3 5 C3.66 5 4.32 5 5 5 C7.125 9.625 7.125 9.625 6 13 C5.34 11.35 4.68 9.7 4 8 C3.34 8 2.68 8 2 8 C0.23537317 4.91190305 0 3.76687864 0 0 Z " fill="#B9B9B2" transform="translate(78,33)"/>
<path d="M0 0 C0.66 0.66 1.32 1.32 2 2 C1.4225 2.66 0.845 3.32 0.25 4 C-2.35741329 7.47655106 -4.16930498 11.07569099 -6 15 C-7 12 -7 12 -5.8203125 9.3359375 C-4.98113281 7.87027344 -4.98113281 7.87027344 -4.125 6.375 C-3.57070312 5.39273437 -3.01640625 4.41046875 -2.4453125 3.3984375 C-1 1 -1 1 0 0 Z " fill="#7E7D7E" transform="translate(70,25)"/>
<path d="M0 0 C0 0.66 0 1.32 0 2 C-0.99 2 -1.98 2 -3 2 C-3 2.66 -3 3.32 -3 4 C-4.32 4.33 -5.64 4.66 -7 5 C-7.33 4.01 -7.66 3.02 -8 2 C-4.77208445 -0.1519437 -3.71599191 -0.20086443 0 0 Z " fill="#2A9C24" transform="translate(114,106)"/>
<path d="M0 0 C4.75 0.875 4.75 0.875 7 2 C6.67 2.99 6.34 3.98 6 5 C3.83125748 4.49396008 2.00032373 4.00016187 0 3 C0 2.01 0 1.02 0 0 Z " fill="#EBEFF0" transform="translate(55,95)"/>
<path d="M0 0 C0.1875 2.375 0.1875 2.375 0 5 C-0.99 5.66 -1.98 6.32 -3 7 C-4.19232613 9.05003955 -4.19232613 9.05003955 -5 11 C-5.49095023 4.61764706 -5.49095023 4.61764706 -3.0625 1.5625 C-1 0 -1 0 0 0 Z " fill="#F5F5F4" transform="translate(62,56)"/>
<path d="M0 0 C0 0.99 0 1.98 0 3 C-3.96 2.67 -7.92 2.34 -12 2 C-12 1.67 -12 1.34 -12 1 C-7.9472484 0.01751476 -4.16138263 -0.08159574 0 0 Z " fill="#89A69F" transform="translate(119,124)"/>
<path d="M0 0 C0.33 0.99 0.66 1.98 1 3 C-0.69179328 5.04219706 -1.63727666 5.91793306 -4.26171875 6.51171875 C-5.06222656 6.56972656 -5.86273438 6.62773438 -6.6875 6.6875 C-7.49574219 6.75324219 -8.30398437 6.81898437 -9.13671875 6.88671875 C-10.05904297 6.94279297 -10.05904297 6.94279297 -11 7 C-10.67 6.34 -10.34 5.68 -10 5 C-7.69289122 4.40103907 -5.38311282 4.04345035 -3.03125 3.66015625 C-2.02578125 3.33337891 -2.02578125 3.33337891 -1 3 C-0.67 2.01 -0.34 1.02 0 0 Z " fill="#1C2621" transform="translate(121,118)"/>
<path d="M0 0 C0.66 0 1.32 0 2 0 C1.67 1.32 1.34 2.64 1 4 C1.66 4 2.32 4 3 4 C3 4.66 3 5.32 3 6 C0.29120665 7.35439668 -2.00933268 7.06501451 -5 7 C-3.68 6.67 -2.36 6.34 -1 6 C-0.67 4.02 -0.34 2.04 0 0 Z " fill="#55D52B" transform="translate(116,114)"/>
<path d="M0 0 C0.66 0 1.32 0 2 0 C2 5.94 2 11.88 2 18 C1.67 18 1.34 18 1 18 C0.83210874 15.56257869 0.66563867 13.12507454 0.5 10.6875 C0.45230469 9.99720703 0.40460937 9.30691406 0.35546875 8.59570312 C0.16120511 5.72337641 0 2.87986212 0 0 Z " fill="#4D5E62" transform="translate(43,68)"/>
<path d="M0 0 C0.33 0 0.66 0 1 0 C1.36923077 7.50769231 1.36923077 7.50769231 -0.5 10 C-0.995 10.33 -1.49 10.66 -2 11 C-2.25 3.375 -2.25 3.375 0 0 Z " fill="#92B7C1" transform="translate(49,64)"/>
<path d="M0 0 C0.33 0.99 0.66 1.98 1 3 C3.00016466 4.20882096 3.00016466 4.20882096 5 5 C5 5.66 5 6.32 5 7 C3.68 7 2.36 7 1 7 C0.67 7.66 0.34 8.32 0 9 C0 6.03 0 3.06 0 0 Z " fill="#EFEDEE" transform="translate(64,59)"/>
<path d="M0 0 C1.32 0.33 2.64 0.66 4 1 C3.34 3.64 2.68 6.28 2 9 C1.34 8.67 0.68 8.34 0 8 C0 5.36 0 2.72 0 0 Z " fill="#8DA4AE" transform="translate(47,59)"/>
<path d="M0 0 C0.99 0 1.98 0 3 0 C3 0.66 3 1.32 3 2 C2.34 2 1.68 2 1 2 C1 4.97 1 7.94 1 11 C0.67 11 0.34 11 0 11 C-1.7578125 5.04296875 -1.7578125 5.04296875 -2 3 C-1.34 2.01 -0.68 1.02 0 0 Z " fill="#486162" transform="translate(122,105)"/>
<path d="M0 0 C1.98 0 3.96 0 6 0 C6.33 1.32 6.66 2.64 7 4 C4.69 3.67 2.38 3.34 0 3 C0 2.01 0 1.02 0 0 Z " fill="#86ABAF" transform="translate(37,82)"/>
<path d="M0 0 C1.98 0.99 1.98 0.99 4 2 C3.25 6.75 3.25 6.75 1 9 C0.67 6.03 0.34 3.06 0 0 Z " fill="#89988C" transform="translate(21,112)"/>
<path d="M0 0 C0.33 0.66 0.66 1.32 1 2 C1.66 2 2.32 2 3 2 C3.33 2.99 3.66 3.98 4 5 C2.35 5.33 0.7 5.66 -1 6 C-1.33 4.35 -1.66 2.7 -2 1 C-1.34 0.67 -0.68 0.34 0 0 Z " fill="#4E5E66" transform="translate(39,96)"/>
<path d="M0 0 C1.65 0 3.3 0 5 0 C5.33 1.32 5.66 2.64 6 4 C4.02 4.99 4.02 4.99 2 6 C1.34 4.02 0.68 2.04 0 0 Z " fill="#5C707B" transform="translate(99,92)"/>
<path d="M0 0 C0.99 0.99 1.98 1.98 3 3 C2.67 3.66 2.34 4.32 2 5 C2.66 5 3.32 5 4 5 C4.33 4.01 4.66 3.02 5 2 C4.67 3.65 4.34 5.3 4 7 C3.01 6.67 2.02 6.34 1 6 C0.6278958 4.67696283 0.29369827 3.34262065 0 2 C-0.66 1.67 -1.32 1.34 -2 1 C-1.34 0.67 -0.68 0.34 0 0 Z " fill="#53252F" transform="translate(35,74)"/>
<path d="M0 0 C0.268125 0.61875 0.53625 1.2375 0.8125 1.875 C1.95556848 4.2995233 1.95556848 4.2995233 5 6 C3.35 5.67 1.7 5.34 0 5 C0 4.34 0 3.68 0 3 C-1.65 3.33 -3.3 3.66 -5 4 C-4.67 3.01 -4.34 2.02 -4 1 C-2 0 -2 0 0 0 Z " fill="#D5DFDC" transform="translate(35,76)"/>
<path d="M0 0 C0.66 0 1.32 0 2 0 C2.66 3.3 3.32 6.6 4 10 C3.34 10 2.68 10 2 10 C1.34 6.7 0.68 3.4 0 0 Z " fill="#5F5E5C" transform="translate(87,49)"/>
<path d="M0 0 C0.33 1.65 0.66 3.3 1 5 C0.01 5 -0.98 5 -2 5 C-2.99 5.495 -2.99 5.495 -4 6 C-4.33 4.35 -4.66 2.7 -5 1 C-3 0 -3 0 0 0 Z " fill="#E1E1E3" transform="translate(62,53)"/>
<path d="M0 0 C0.33 0 0.66 0 1 0 C2 7.625 2 7.625 2 11 C-0.125 8.875 -0.125 8.875 -2 6 C-1.25 2.6875 -1.25 2.6875 0 0 Z " fill="#4B7A86" transform="translate(101,109)"/>
<path d="M0 0 C0 2.31 0 4.62 0 7 C-0.99 7.495 -0.99 7.495 -2 8 C-2 6.35 -2 4.7 -2 3 C-3.32 2.67 -4.64 2.34 -6 2 C-1.125 0 -1.125 0 0 0 Z " fill="#939396" transform="translate(92,94)"/>
<path d="M0 0 C-0.33 0.99 -0.66 1.98 -1 3 C-3.31 2.67 -5.62 2.34 -8 2 C-8 1.34 -8 0.68 -8 0 C-4.94736336 -0.98120464 -3.05263664 -0.98120464 0 0 Z " fill="#5E5C5A" transform="translate(146,94)"/>
<path d="M0 0 C2.64 0.33 5.28 0.66 8 1 C7.34 1.66 6.68 2.32 6 3 C4.33333333 3 2.66666667 3 1 3 C0.34 3.66 -0.32 4.32 -1 5 C-0.67 3.35 -0.34 1.7 0 0 Z " fill="#666C72" transform="translate(95,86)"/>
<path d="M0 0 C0.66 0 1.32 0 2 0 C1.67 2.64 1.34 5.28 1 8 C0.01 7.67 -0.98 7.34 -2 7 C-1.125 1.125 -1.125 1.125 0 0 Z " fill="#F7F7F8" transform="translate(62,47)"/>
<path d="M0 0 C6.0546875 -0.1953125 6.0546875 -0.1953125 8 0 C8.66 0.66 9.32 1.32 10 2 C9.67 2.66 9.34 3.32 9 4 C7.68 3.67 6.36 3.34 5 3 C5 2.34 5 1.68 5 1 C3.35 1 1.7 1 0 1 C0 0.67 0 0.34 0 0 Z " fill="#497D53" transform="translate(109,105)"/>
<path d="M0 0 C0.5534764 2.07553648 1 3.84365964 1 6 C-0.65 6 -2.3 6 -4 6 C-2.25 1.125 -2.25 1.125 0 0 Z " fill="#4E6F7F" transform="translate(103,102)"/>
<path d="M0 0 C0.33 0.66 0.66 1.32 1 2 C2.32 1.67 3.64 1.34 5 1 C5 2.32 5 3.64 5 5 C3.35 4.67 1.7 4.34 0 4 C0 2.68 0 1.36 0 0 Z " fill="#59BBCC" transform="translate(68,81)"/>
<path d="M0 0 C1.98 0.66 3.96 1.32 6 2 C5.67 2.66 5.34 3.32 5 4 C4.01 4 3.02 4 2 4 C0.29467677 5.94009522 0.29467677 5.94009522 -1 8 C-0.67 5.36 -0.34 2.72 0 0 Z " fill="#919596" transform="translate(107,70)"/>
<path d="M0 0 C0.66 0 1.32 0 2 0 C2 2.64 2 5.28 2 8 C1.34 8 0.68 8 0 8 C-0.98120464 4.94736336 -0.98120464 3.05263664 0 0 Z " fill="#F1DC5A" transform="translate(73,50)"/>
<path d="M0 0 C0.33 0 0.66 0 1 0 C1 1.98 1 3.96 1 6 C-0.32 6 -1.64 6 -3 6 C-1.125 1.125 -1.125 1.125 0 0 Z " fill="#42D026" transform="translate(120,112)"/>
<path d="M0 0 C3.96 1.98 3.96 1.98 8 4 C8 4.33 8 4.66 8 5 C3.48279689 5.36625971 3.48279689 5.36625971 1.1875 3.625 C0 2 0 2 0 0 Z " fill="#989BA8" transform="translate(112,94)"/>
<path d="M0 0 C0.99 0 1.98 0 3 0 C3 0.66 3 1.32 3 2 C2.01 2 1.02 2 0 2 C0 1.34 0 0.68 0 0 Z " fill="#BDD2AA" transform="translate(128,140)"/>
<path d="M0 0 C0.66 0 1.32 0 2 0 C2 0.66 2 1.32 2 2 C1.34 2 0.68 2 0 2 C0 1.34 0 0.68 0 0 Z " fill="#B6D27E" transform="translate(17,140)"/>
<path d="M0 0 C0.66 0 1.32 0 2 0 C1.67 0.66 1.34 1.32 1 2 C0.67 1.34 0.34 0.68 0 0 Z " fill="#D1D3D0" transform="translate(20,134)"/>
<path d="" fill="#EBEFF2" transform="translate(0,0)"/>
<path d="" fill="#E9FAF2" transform="translate(0,0)"/>
<path d="" fill="#E9FAF4" transform="translate(0,0)"/>
</svg>
